<svg width="38" height="38" viewBox="0 0 38 38" fill="none" xmlns="http://www.w3.org/2000/svg">
<path d="M4.75 27.3127V33.2502H10.6875L28.1992 15.7227L22.2617 9.78517L4.75 27.3127ZM32.7908 11.0835C33.4083 10.466 33.4083 9.50017 32.7908 8.85101L29.0858 5.20934C28.5 4.59184 27.4708 4.59184 26.8533 5.20934L23.94 8.10684L29.8775 14.0443L32.7908 11.0835Z" fill="#D2F234"/>
<path opacity="0.6" d="M29.0693 35.7995L35.7984 29.0703L32.9959 26.2836L30.7476 28.5003L29.0693 26.917L31.3809 24.6686L29.1326 22.4203L25.2218 26.347L23.6384 24.7636L20.8359 27.5661L29.0693 35.7995Z" fill="#D2F234"/>
<path opacity="0.6" d="M2.20117 8.93009L10.4662 17.1476L14.9787 12.7459L13.3953 11.1626L15.6437 8.93009L13.3953 6.68176L9.50034 10.6084L7.80617 8.93009L11.717 5.00343L8.93034 2.20093L2.20117 8.93009Z" fill="#D2F234"/>
</svg>
