<svg width="432" height="400" viewBox="0 0 432 400" fill="none" xmlns="http://www.w3.org/2000/svg">
<circle cx="429.5" cy="200.5" r="281.5" stroke="white" stroke-width="20"/>
<circle cx="219.5" cy="25.5" r="81.5" fill="#52D6DA"/>
<circle cx="219.5" cy="372.5" r="81.5" fill="#D2F234"/>
<path d="M220 45L220 44L218 44L218 45L219 45L220 45ZM218.293 61.7071C218.683 62.0976 219.317 62.0976 219.707 61.7071L226.071 55.3431C226.462 54.9526 226.462 54.3195 226.071 53.9289C225.681 53.5384 225.047 53.5384 224.657 53.9289L219 59.5858L213.343 53.9289C212.953 53.5384 212.319 53.5384 211.929 53.9289C211.538 54.3195 211.538 54.9526 211.929 55.3431L218.293 61.7071ZM219 45L218 45L218 61L219 61L220 61L220 45L219 45Z" fill="#0B0C0B"/>
<path d="M220 368L220 367L218 367L218 368L219 368L220 368ZM218.293 384.707C218.683 385.098 219.317 385.098 219.707 384.707L226.071 378.343C226.462 377.953 226.462 377.319 226.071 376.929C225.681 376.538 225.047 376.538 224.657 376.929L219 382.586L213.343 376.929C212.953 376.538 212.319 376.538 211.929 376.929C211.538 377.319 211.538 377.953 211.929 378.343L218.293 384.707ZM219 368L218 368L218 384L219 384L220 384L220 368L219 368Z" fill="#0B0C0B"/>
<path d="M165.458 32V19.562H172.496L172.244 21.326H167.834V25.052H171.668V26.816H167.834V32H165.458ZM175.917 22.478V32H173.613V22.478H175.917ZM174.747 17.654C175.179 17.654 175.527 17.792 175.791 18.068C176.067 18.332 176.205 18.662 176.205 19.058C176.205 19.454 176.067 19.784 175.791 20.048C175.527 20.312 175.179 20.444 174.747 20.444C174.327 20.444 173.979 20.312 173.703 20.048C173.439 19.784 173.307 19.454 173.307 19.058C173.307 18.662 173.439 18.332 173.703 18.068C173.979 17.792 174.327 17.654 174.747 17.654ZM183.769 22.208C184.621 22.208 185.281 22.466 185.749 22.982C186.229 23.486 186.469 24.194 186.469 25.106V32H184.165V25.466C184.165 24.902 184.063 24.506 183.859 24.278C183.667 24.05 183.379 23.936 182.995 23.936C182.599 23.936 182.239 24.062 181.915 24.314C181.603 24.554 181.297 24.908 180.997 25.376V32H178.693V22.478H180.691L180.871 23.72C181.651 22.712 182.617 22.208 183.769 22.208ZM196.19 29.48C196.19 29.852 196.244 30.128 196.352 30.308C196.472 30.476 196.658 30.608 196.91 30.704L196.424 32.234C195.884 32.186 195.44 32.054 195.092 31.838C194.756 31.622 194.498 31.292 194.318 30.848C193.994 31.328 193.586 31.688 193.094 31.928C192.614 32.156 192.074 32.27 191.474 32.27C190.526 32.27 189.776 32 189.224 31.46C188.672 30.92 188.396 30.212 188.396 29.336C188.396 28.304 188.768 27.518 189.512 26.978C190.268 26.426 191.342 26.15 192.734 26.15H193.922V25.61C193.922 24.998 193.778 24.572 193.49 24.332C193.214 24.08 192.764 23.954 192.14 23.954C191.444 23.954 190.604 24.122 189.62 24.458L189.08 22.892C190.268 22.436 191.42 22.208 192.536 22.208C194.972 22.208 196.19 23.3 196.19 25.484V29.48ZM192.086 30.596C192.866 30.596 193.478 30.206 193.922 29.426V27.5H192.968C191.48 27.5 190.736 28.052 190.736 29.156C190.736 29.612 190.85 29.966 191.078 30.218C191.306 30.47 191.642 30.596 192.086 30.596ZM201.052 32.27C200.32 32.27 199.744 32.06 199.324 31.64C198.916 31.208 198.712 30.602 198.712 29.822V18.662L201.016 18.41V29.75C201.016 30.194 201.196 30.416 201.556 30.416C201.736 30.416 201.916 30.386 202.096 30.326L202.582 31.946C202.102 32.162 201.592 32.27 201.052 32.27ZM211.743 19.562C213.675 19.562 215.217 20 216.369 20.876C217.533 21.752 218.115 23.366 218.115 25.718C218.115 28.022 217.545 29.648 216.405 30.596C215.265 31.532 213.819 32 212.067 32H208.683V19.562H211.743ZM211.059 21.344V30.218H212.229C213.285 30.218 214.113 29.894 214.713 29.246C215.313 28.586 215.613 27.41 215.613 25.718C215.613 24.542 215.457 23.636 215.145 23C214.845 22.352 214.443 21.914 213.939 21.686C213.447 21.458 212.853 21.344 212.157 21.344H211.059ZM228.094 27.014C228.094 27.134 228.076 27.446 228.04 27.95H222.064C222.136 28.874 222.376 29.534 222.784 29.93C223.192 30.326 223.732 30.524 224.404 30.524C224.824 30.524 225.22 30.458 225.592 30.326C225.964 30.182 226.36 29.966 226.78 29.678L227.734 30.992C226.678 31.844 225.502 32.27 224.206 32.27C222.754 32.27 221.632 31.826 220.84 30.938C220.06 30.05 219.67 28.838 219.67 27.302C219.67 26.33 219.838 25.46 220.174 24.692C220.51 23.912 220.996 23.306 221.632 22.874C222.268 22.43 223.024 22.208 223.9 22.208C225.232 22.208 226.264 22.634 226.996 23.486C227.728 24.326 228.094 25.502 228.094 27.014ZM225.808 26.348C225.808 24.68 225.19 23.846 223.954 23.846C223.39 23.846 222.946 24.056 222.622 24.476C222.31 24.884 222.124 25.544 222.064 26.456H225.808V26.348ZM232.411 32.27C231.679 32.27 231.103 32.06 230.683 31.64C230.275 31.208 230.071 30.602 230.071 29.822V18.662L232.375 18.41V29.75C232.375 30.194 232.555 30.416 232.915 30.416C233.095 30.416 233.275 30.386 233.455 30.326L233.941 31.946C233.461 32.162 232.951 32.27 232.411 32.27ZM237.774 22.478V32H235.47V22.478H237.774ZM236.604 17.654C237.036 17.654 237.384 17.792 237.648 18.068C237.924 18.332 238.062 18.662 238.062 19.058C238.062 19.454 237.924 19.784 237.648 20.048C237.384 20.312 237.036 20.444 236.604 20.444C236.184 20.444 235.836 20.312 235.56 20.048C235.296 19.784 235.164 19.454 235.164 19.058C235.164 18.662 235.296 18.332 235.56 18.068C235.836 17.792 236.184 17.654 236.604 17.654ZM248.2 22.478L245.104 32H242.35L239.2 22.478H241.702L243.736 30.146L245.824 22.478H248.2ZM257.327 27.014C257.327 27.134 257.309 27.446 257.273 27.95H251.297C251.369 28.874 251.609 29.534 252.017 29.93C252.425 30.326 252.965 30.524 253.637 30.524C254.057 30.524 254.453 30.458 254.825 30.326C255.197 30.182 255.593 29.966 256.013 29.678L256.967 30.992C255.911 31.844 254.735 32.27 253.439 32.27C251.987 32.27 250.865 31.826 250.073 30.938C249.293 30.05 248.903 28.838 248.903 27.302C248.903 26.33 249.071 25.46 249.407 24.692C249.743 23.912 250.229 23.306 250.865 22.874C251.501 22.43 252.257 22.208 253.133 22.208C254.465 22.208 255.497 22.634 256.229 23.486C256.961 24.326 257.327 25.502 257.327 27.014ZM255.041 26.348C255.041 24.68 254.423 23.846 253.187 23.846C252.623 23.846 252.179 24.056 251.855 24.476C251.543 24.884 251.357 25.544 251.297 26.456H255.041V26.348ZM264.092 22.226C264.44 22.226 264.758 22.268 265.046 22.352L264.65 24.584C264.362 24.512 264.08 24.476 263.804 24.476C263.24 24.476 262.796 24.68 262.472 25.088C262.148 25.484 261.89 26.096 261.698 26.924V32H259.394V22.478H261.392L261.608 24.35C261.836 23.666 262.166 23.144 262.598 22.784C263.03 22.412 263.528 22.226 264.092 22.226ZM271.086 32.036C270.702 33.212 270.12 34.124 269.34 34.772C268.56 35.432 267.492 35.816 266.136 35.924L265.902 34.25C266.526 34.154 267.024 34.016 267.396 33.836C267.78 33.668 268.086 33.44 268.314 33.152C268.542 32.864 268.752 32.48 268.944 32H268.152L265.128 22.478H267.576L269.646 30.47L271.806 22.478H274.182L271.086 32.036Z" fill="#151615"/>
<path d="M194.436 349.744H192.51V355H190.8V342.598H194.058C195.606 342.598 196.776 342.892 197.568 343.48C198.372 344.068 198.774 344.944 198.774 346.108C198.774 346.972 198.552 347.674 198.108 348.214C197.664 348.754 196.992 349.162 196.092 349.438L199.44 355H197.406L194.436 349.744ZM194.238 348.43C195.138 348.43 195.816 348.25 196.272 347.89C196.728 347.518 196.956 346.924 196.956 346.108C196.956 345.34 196.722 344.788 196.254 344.452C195.798 344.104 195.06 343.93 194.04 343.93H192.51V348.43H194.238ZM208.509 349.978C208.509 350.254 208.497 350.536 208.473 350.824H202.425C202.497 351.868 202.761 352.636 203.217 353.128C203.673 353.62 204.261 353.866 204.981 353.866C205.437 353.866 205.857 353.8 206.241 353.668C206.625 353.536 207.027 353.326 207.447 353.038L208.167 354.028C207.159 354.82 206.055 355.216 204.855 355.216C203.535 355.216 202.503 354.784 201.759 353.92C201.027 353.056 200.661 351.868 200.661 350.356C200.661 349.372 200.817 348.502 201.129 347.746C201.453 346.978 201.909 346.378 202.497 345.946C203.097 345.514 203.799 345.298 204.603 345.298C205.863 345.298 206.829 345.712 207.501 346.54C208.173 347.368 208.509 348.514 208.509 349.978ZM206.871 349.492C206.871 348.556 206.685 347.842 206.313 347.35C205.941 346.858 205.383 346.612 204.639 346.612C203.283 346.612 202.545 347.608 202.425 349.6H206.871V349.492ZM214.375 342.832C213.871 342.832 213.511 342.946 213.295 343.174C213.079 343.39 212.971 343.732 212.971 344.2V345.514H215.275L215.095 346.792H212.971V355H211.315V346.792H209.623V345.514H211.315V344.218C211.315 343.402 211.573 342.748 212.089 342.256C212.617 341.752 213.349 341.5 214.285 341.5C214.717 341.5 215.101 341.542 215.437 341.626C215.785 341.698 216.157 341.818 216.553 341.986L216.031 343.192C215.491 342.952 214.939 342.832 214.375 342.832ZM224.239 355H222.817L222.691 353.524C222.331 354.112 221.917 354.544 221.449 354.82C220.981 355.084 220.411 355.216 219.739 355.216C218.911 355.216 218.263 354.964 217.795 354.46C217.327 353.956 217.093 353.242 217.093 352.318V345.514H218.749V352.138C218.749 352.786 218.863 353.248 219.091 353.524C219.319 353.788 219.691 353.92 220.207 353.92C221.131 353.92 221.923 353.374 222.583 352.282V345.514H224.239V355ZM232.123 345.298C232.987 345.298 233.659 345.556 234.139 346.072C234.631 346.588 234.877 347.296 234.877 348.196V355H233.221V348.43C233.221 347.758 233.095 347.284 232.843 347.008C232.591 346.732 232.219 346.594 231.727 346.594C231.223 346.594 230.779 346.738 230.395 347.026C230.011 347.314 229.651 347.728 229.315 348.268V355H227.659V345.514H229.081L229.225 346.918C229.561 346.414 229.975 346.018 230.467 345.73C230.971 345.442 231.523 345.298 232.123 345.298ZM245.55 341.698V355H244.092L243.93 353.686C243.618 354.166 243.228 354.544 242.76 354.82C242.292 355.084 241.77 355.216 241.194 355.216C240.066 355.216 239.184 354.772 238.548 353.884C237.924 352.996 237.612 351.802 237.612 350.302C237.612 349.33 237.762 348.466 238.062 347.71C238.362 346.954 238.794 346.366 239.358 345.946C239.922 345.514 240.582 345.298 241.338 345.298C242.31 345.298 243.162 345.688 243.894 346.468V341.5L245.55 341.698ZM241.554 353.902C242.058 353.902 242.49 353.788 242.85 353.56C243.21 353.32 243.558 352.966 243.894 352.498V347.854C243.582 347.446 243.246 347.14 242.886 346.936C242.538 346.72 242.142 346.612 241.698 346.612C240.966 346.612 240.396 346.918 239.988 347.53C239.592 348.142 239.394 349.054 239.394 350.266C239.394 351.49 239.58 352.402 239.952 353.002C240.324 353.602 240.858 353.902 241.554 353.902Z" fill="#0B0C0B"/>
<circle cx="159.5" cy="199.5" r="81.5" fill="#FF6A00"/>
<path d="M137 208L183 162M137 162L183 208" stroke="white" stroke-width="5" stroke-linecap="round"/>
<path d="M136.96 229.8C137.827 229.8 138.593 229.927 139.26 230.18C139.94 230.433 140.58 230.813 141.18 231.32L139.62 233.18C139.207 232.86 138.8 232.62 138.4 232.46C138 232.3 137.573 232.22 137.12 232.22C136.187 232.22 135.447 232.613 134.9 233.4C134.367 234.187 134.1 235.4 134.1 237.04C134.1 238.653 134.367 239.853 134.9 240.64C135.447 241.413 136.2 241.8 137.16 241.8C137.667 241.8 138.127 241.707 138.54 241.52C138.953 241.32 139.4 241.04 139.88 240.68L141.34 242.56C140.82 243.08 140.187 243.507 139.44 243.84C138.707 244.173 137.893 244.34 137 244.34C135.72 244.34 134.607 244.06 133.66 243.5C132.713 242.94 131.973 242.113 131.44 241.02C130.92 239.913 130.66 238.587 130.66 237.04C130.66 235.533 130.927 234.233 131.46 233.14C132.007 232.047 132.753 231.22 133.7 230.66C134.66 230.087 135.747 229.8 136.96 229.8ZM150.989 240.92C150.989 241.32 151.042 241.613 151.149 241.8C151.269 241.987 151.455 242.127 151.709 242.22L151.049 244.28C150.395 244.227 149.862 244.087 149.449 243.86C149.035 243.62 148.715 243.247 148.489 242.74C147.795 243.807 146.729 244.34 145.289 244.34C144.235 244.34 143.395 244.033 142.769 243.42C142.142 242.807 141.829 242.007 141.829 241.02C141.829 239.86 142.255 238.973 143.109 238.36C143.962 237.747 145.195 237.44 146.809 237.44H147.889V236.98C147.889 236.353 147.755 235.927 147.489 235.7C147.222 235.46 146.755 235.34 146.089 235.34C145.742 235.34 145.322 235.393 144.829 235.5C144.335 235.593 143.829 235.727 143.309 235.9L142.589 233.82C143.255 233.567 143.935 233.373 144.629 233.24C145.335 233.107 145.989 233.04 146.589 233.04C148.109 233.04 149.222 233.353 149.929 233.98C150.635 234.607 150.989 235.547 150.989 236.8V240.92ZM146.209 242.08C146.929 242.08 147.489 241.74 147.889 241.06V239.18H147.109C146.389 239.18 145.849 239.307 145.489 239.56C145.142 239.813 144.969 240.207 144.969 240.74C144.969 241.167 145.075 241.5 145.289 241.74C145.515 241.967 145.822 242.08 146.209 242.08ZM159.726 233.04C160.646 233.04 161.366 233.32 161.886 233.88C162.406 234.44 162.666 235.227 162.666 236.24V244H159.506V236.78C159.506 236.247 159.419 235.88 159.246 235.68C159.086 235.467 158.839 235.36 158.506 235.36C157.866 235.36 157.252 235.82 156.666 236.74V244H153.506V233.38H156.266L156.486 234.64C156.939 234.107 157.426 233.707 157.946 233.44C158.479 233.173 159.072 233.04 159.726 233.04ZM169.649 233.04C170.382 233.04 171.042 233.147 171.629 233.36C172.215 233.573 172.769 233.9 173.289 234.34L171.929 236.22C171.262 235.713 170.589 235.46 169.909 235.46C169.202 235.46 168.669 235.72 168.309 236.24C167.949 236.76 167.769 237.6 167.769 238.76C167.769 239.88 167.949 240.673 168.309 241.14C168.669 241.607 169.189 241.84 169.869 241.84C170.229 241.84 170.555 241.787 170.849 241.68C171.142 241.56 171.495 241.373 171.909 241.12L173.289 243.08C172.235 243.92 171.042 244.34 169.709 244.34C168.629 244.34 167.695 244.113 166.909 243.66C166.122 243.193 165.515 242.547 165.089 241.72C164.662 240.88 164.449 239.9 164.449 238.78C164.449 237.66 164.662 236.667 165.089 235.8C165.515 234.933 166.122 234.26 166.909 233.78C167.695 233.287 168.609 233.04 169.649 233.04ZM183.488 238.48C183.488 238.92 183.468 239.3 183.428 239.62H176.848C176.955 240.513 177.208 241.14 177.608 241.5C178.008 241.86 178.562 242.04 179.268 242.04C179.695 242.04 180.108 241.967 180.508 241.82C180.908 241.66 181.342 241.42 181.808 241.1L183.108 242.86C181.868 243.847 180.488 244.34 178.968 244.34C177.248 244.34 175.928 243.833 175.008 242.82C174.088 241.807 173.628 240.447 173.628 238.74C173.628 237.66 173.822 236.693 174.208 235.84C174.595 234.973 175.162 234.293 175.908 233.8C176.655 233.293 177.548 233.04 178.588 233.04C180.122 233.04 181.322 233.52 182.188 234.48C183.055 235.44 183.488 236.773 183.488 238.48ZM180.388 237.58C180.362 235.953 179.788 235.14 178.668 235.14C178.122 235.14 177.695 235.34 177.388 235.74C177.095 236.14 176.915 236.8 176.848 237.72H180.388V237.58ZM188.083 244.34C187.163 244.34 186.443 244.08 185.923 243.56C185.417 243.027 185.163 242.273 185.163 241.3V229.16L188.323 228.82V241.18C188.323 241.62 188.503 241.84 188.863 241.84C189.05 241.84 189.223 241.807 189.383 241.74L190.003 243.98C189.43 244.22 188.79 244.34 188.083 244.34Z" fill="white"/>
</svg>
