<svg width="64" height="64" viewBox="0 0 64 64" fill="none" xmlns="http://www.w3.org/2000/svg">
<path d="M48 0H16C7.16344 0 0 7.16344 0 16V48C0 56.8366 7.16344 64 16 64H48C56.8366 64 64 56.8366 64 48V16C64 7.16344 56.8366 0 48 0Z" fill="#E62415"/>
<g clip-path="url(#clip0_7159_21204)">
<path d="M34.3725 39.7416C38.633 39.7416 42.0868 36.2878 42.0868 32.0273C42.0868 27.7668 38.633 24.313 34.3725 24.313C30.112 24.313 26.6582 27.7668 26.6582 32.0273C26.6582 36.2878 30.112 39.7416 34.3725 39.7416Z" fill="white"/>
<path d="M43.5354 41.5978C41.2153 43.6858 38.1412 44.8459 34.7771 44.8459C33.068 44.8943 31.3672 44.5924 29.7792 43.9587C28.1912 43.3251 26.7497 42.3731 25.5435 41.1615C24.3373 39.9498 23.3918 38.504 22.7653 36.9132C22.1388 35.3224 21.8445 33.6202 21.9006 31.9114C21.9006 24.4291 27.1788 19.2089 34.7771 19.2089C38.0832 19.2089 41.2153 20.311 43.5934 22.399L45.2175 23.7911L52.4097 16.5988L50.6117 14.9748C46.2562 11.09 40.6132 8.96095 34.7771 9.00054C21.4366 9.00054 11.7503 18.6289 11.7503 31.8534C11.6794 34.9021 12.2257 37.9337 13.3563 40.7659C14.4869 43.5981 16.1785 46.1725 18.3295 48.3343C20.4804 50.496 23.0463 52.2006 25.8728 53.3454C28.6993 54.4903 31.728 55.0518 34.7771 54.9962C40.8673 54.9962 46.5515 52.8502 50.7277 48.964L52.4678 47.34L45.1595 40.1477L43.5354 41.5978Z" fill="white"/>
</g>
<defs>
<clipPath id="clip0_7159_21204">
<rect width="48" height="48" fill="white" transform="translate(8 8)"/>
</clipPath>
</defs>
</svg>
