<svg width="724" height="866" viewBox="0 0 724 866" fill="none" xmlns="http://www.w3.org/2000/svg">
<path d="M387 387L415.127 398.448L401.064 402.264L397.965 416.097L387 387Z" fill="#D2F234"/>
<g clip-path="url(#clip0_7283_2791)">
<mask id="mask0_7283_2791" style="mask-type:alpha" maskUnits="userSpaceOnUse" x="0" y="0" width="724" height="934">
<path d="M376.63 621.978C491.606 608.838 570.598 506.343 570.598 364.427C570.598 211.998 480.197 105.123 351.178 105.123C222.159 105.123 131.758 211.998 131.758 364.427C131.758 524.739 216.893 617.598 439.823 699.944C601.317 760.39 723.314 805.943 723.314 933.843H600.439C600.439 890.042 524.958 865.513 370.487 805.067C108.06 702.572 0.105469 562.408 0.105469 364.427C0.105469 150.676 144.923 0 351.178 0C557.433 0 702.25 150.676 702.25 364.427C702.25 509.847 635.546 626.358 527.591 685.052L376.63 621.978Z" fill="url(#paint0_linear_7283_2791)"/>
</mask>
<g mask="url(#mask0_7283_2791)">
<path d="M-42.3828 951.923H-123.744V871.466H-42.3828V951.923ZM118.532 951.923H-42.3818V871.466H118.532V951.923ZM280.35 951.923H119.436V871.466H280.35V951.923ZM442.166 951.923H281.253V871.466H442.166V951.923ZM765.802 951.923H442.167V871.466H765.802V951.923ZM847.165 951.923H766.708V871.466H847.165V951.923ZM-122.84 951.019H-43.2871V872.37H-122.84V951.019ZM-41.4775 951.019H37.1709V872.37H-41.4775V951.019ZM38.9795 951.019H117.628V872.37H38.9795V951.019ZM120.34 951.019H198.988V872.37H120.34V951.019ZM200.797 951.019H279.445V872.37H200.797V951.019ZM282.157 951.019H360.806V872.37H282.157V951.019ZM362.613 951.019H441.262V872.37H362.613V951.019ZM443.071 951.019H522.624V872.37H443.071V951.019ZM524.433 951.019H603.984V872.37H524.433V951.019ZM604.89 951.019H684.441V872.37H604.89V951.019ZM686.249 951.019H764.897V872.37H686.249V951.019ZM767.612 951.019H846.261V872.37H767.612V951.019ZM-42.3828 870.56H-123.744V628.287H-42.3828V870.56ZM118.532 870.56H-42.3818V708.744H-42.3809V628.287H118.532V870.56ZM280.35 870.56H119.436V708.744H119.437V628.287H280.35V870.56ZM442.166 870.56H281.253V628.287H442.166V870.56ZM765.802 870.56H442.167V628.287H765.802V870.56ZM847.165 870.56H766.708V628.287H847.165V870.56ZM-122.84 869.655H-43.2871V791.007H-122.84V869.655ZM-41.4775 869.655H37.1709V791.007H-41.4775V869.655ZM38.9795 869.655H117.628V791.007H38.9795V869.655ZM120.34 869.655H198.988V791.007H120.34V869.655ZM200.797 869.655H279.445V791.007H200.797V869.655ZM282.157 869.655H360.806V791.007H282.157V869.655ZM362.613 869.655H441.262V791.007H362.613V869.655ZM443.071 869.655H522.624V791.007H443.071V869.655ZM524.433 869.655H603.984V791.007H524.433V869.655ZM604.89 869.655H684.441V791.007H604.89V869.655ZM686.249 869.655H764.897V791.007H686.249V869.655ZM767.612 869.655H846.261V791.007H767.612V869.655ZM-122.84 789.201H-43.2871V709.648H-122.84V789.201ZM-41.4775 789.201H37.1709V709.648H-41.4775V789.201ZM38.9795 789.201H117.628V709.648H38.9795V789.201ZM120.34 789.201H198.988V709.648H120.34V789.201ZM200.797 789.201H279.445V709.648H200.797V789.201ZM282.157 789.201H360.806V709.648H282.157V789.201ZM362.613 789.201H441.262V709.648H362.613V789.201ZM443.071 789.201H522.624V709.648H443.071V789.201ZM524.433 789.201H603.984V709.648H524.433V789.201ZM604.89 789.201H684.441V709.648H604.89V789.201ZM686.249 789.201H764.897V709.648H686.249V789.201ZM767.612 789.201H846.261V709.648H767.612V789.201ZM-122.84 707.84H-43.2871V629.191H-122.84V707.84ZM-41.4766 707.84H37.1719V629.191H-41.4766V707.84ZM38.9795 707.84H117.628V629.191H38.9795V707.84ZM120.341 707.84H198.989V629.191H120.341V707.84ZM200.797 707.84H279.445V629.191H200.797V707.84ZM282.157 707.84H360.806V629.191H282.157V707.84ZM362.613 707.84H441.262V629.191H362.613V707.84ZM443.071 707.84H522.624V629.191H443.071V707.84ZM524.433 707.84H603.984V629.191H524.433V707.84ZM604.89 707.84H684.441V629.191H604.89V707.84ZM686.249 707.84H764.897V629.191H686.249V707.84ZM767.612 707.84H846.261V629.191H767.612V707.84ZM-42.3828 628.285H-123.744V547.828H-42.3828V628.285ZM118.532 628.285H-42.3809V547.828H118.532V628.285ZM280.35 628.285H119.437V547.828H280.35V628.285ZM442.166 628.285H281.253V547.828H442.166V628.285ZM765.802 628.285H442.167V547.828H765.802V628.285ZM847.165 628.285H766.708V547.828H847.165V628.285ZM-122.84 627.381H-43.2871V548.732H-122.84V627.381ZM-41.4766 627.381H37.1719V548.732H-41.4766V627.381ZM38.9795 627.381H117.628V548.732H38.9795V627.381ZM120.341 627.381H198.989V548.732H120.341V627.381ZM200.797 627.381H279.445V548.732H200.797V627.381ZM282.157 627.381H360.806V548.732H282.157V627.381ZM362.613 627.381H441.262V548.732H362.613V627.381ZM443.071 627.381H522.624V548.732H443.071V627.381ZM524.433 627.381H603.984V548.732H524.433V627.381ZM604.89 627.381H684.441V548.732H604.89V627.381ZM686.249 627.381H764.897V548.732H686.249V627.381ZM767.612 627.381H846.261V548.732H767.612V627.381ZM-42.3828 547.826H-123.744V304.65H-42.3828V547.826ZM118.532 547.826H-42.3818V466.465H-42.3809V386.012H-42.3818V304.65H118.532V547.826ZM280.35 547.826H119.436V466.465H119.437V386.012H119.436V304.65H280.35V547.826ZM442.166 547.826H281.253V304.65H442.166V547.826ZM765.802 547.826H442.167V304.65H765.802V547.826ZM847.165 547.826H766.708V304.65H847.165V547.826ZM-122.84 546.922H-43.2871V467.369H-122.84V546.922ZM-41.4775 546.922H37.1709V467.369H-41.4775V546.922ZM38.9795 546.922H117.628V467.369H38.9795V546.922ZM120.34 546.922H198.988V467.369H120.34V546.922ZM200.797 546.922H279.445V467.369H200.797V546.922ZM282.157 546.922H360.806V467.369H282.157V546.922ZM362.613 546.922H441.262V467.369H362.613V546.922ZM443.071 546.922H522.624V467.369H443.071V546.922ZM524.433 546.922H603.984V467.369H524.433V546.922ZM604.89 546.922H684.441V467.369H604.89V546.922ZM686.249 546.922H764.897V467.369H686.249V546.922ZM767.612 546.922H846.261V467.369H767.612V546.922ZM-122.84 465.566H-43.2871V386.014H-122.84V465.566ZM-41.4766 465.566H37.1719V386.014H-41.4766V465.566ZM38.9795 465.566H117.628V386.014H38.9795V465.566ZM120.341 465.566H198.989V386.014H120.341V465.566ZM200.797 465.566H279.445V386.014H200.797V465.566ZM282.157 465.566H360.806V386.014H282.157V465.566ZM362.613 465.566H441.262V386.014H362.613V465.566ZM443.071 465.566H522.624V386.014H443.071V465.566ZM524.433 465.566H603.984V386.014H524.433V465.566ZM604.89 465.566H684.441V386.014H604.89V465.566ZM686.249 465.566H764.897V386.014H686.249V465.566ZM767.612 465.566H846.261V386.014H767.612V465.566ZM-122.84 385.107H-43.2871V305.555H-122.84V385.107ZM-41.4775 385.107H37.1709V305.555H-41.4775V385.107ZM38.9795 385.107H117.628V305.555H38.9795V385.107ZM120.34 385.107H198.988V305.555H120.34V385.107ZM200.797 385.107H279.445V305.555H200.797V385.107ZM282.157 385.107H360.806V305.555H282.157V385.107ZM362.613 385.107H441.262V305.555H362.613V385.107ZM443.071 385.107H522.624V305.555H443.071V385.107ZM524.433 385.107H603.984V305.555H524.433V385.107ZM604.89 385.107H684.441V305.555H604.89V385.107ZM686.249 385.107H764.897V305.555H686.249V385.107ZM767.612 385.107H846.261V305.555H767.612V385.107ZM-42.3828 304.648H-123.744V224.191H-42.3828V304.648ZM118.532 304.648H-42.3818V224.191H118.532V304.648ZM280.35 304.648H119.436V224.191H280.35V304.648ZM442.166 304.648H281.253V224.191H442.166V304.648ZM765.802 304.648H442.167V224.191H765.802V304.648ZM847.165 304.648H766.708V224.191H847.165V304.648ZM-122.84 303.744H-43.2871V225.096H-122.84V303.744ZM-41.4775 303.744H37.1709V225.096H-41.4775V303.744ZM38.9795 303.744H117.628V225.096H38.9795V303.744ZM120.34 303.744H198.988V225.096H120.34V303.744ZM200.797 303.744H279.445V225.096H200.797V303.744ZM282.157 303.744H360.806V225.096H282.157V303.744ZM362.613 303.744H441.262V225.096H362.613V303.744ZM443.071 303.744H522.624V225.096H443.071V303.744ZM524.433 303.744H603.984V225.096H524.433V303.744ZM604.89 303.744H684.441V225.096H604.89V303.744ZM686.249 303.744H764.897V225.096H686.249V303.744ZM767.612 303.744H846.261V225.096H767.612V303.744ZM-42.3828 223.29H-123.744V62.376H-42.3828V223.29ZM118.532 223.29H-42.3818V142.833H-42.3809V62.376H118.532V223.29ZM280.35 223.29H119.436V142.833H119.437V62.376H280.35V223.29ZM442.166 223.29H281.253V62.376H442.166V223.29ZM765.802 223.29H442.167V62.376H765.802V223.29ZM847.165 223.29H766.708V62.376H847.165V223.29ZM-122.84 222.386H-43.2871V143.737H-122.84V222.386ZM-41.4775 222.386H37.1709V143.737H-41.4775V222.386ZM38.9795 222.386H117.628V143.737H38.9795V222.386ZM120.34 222.386H198.988V143.737H120.34V222.386ZM200.797 222.386H279.445V143.737H200.797V222.386ZM282.157 222.386H360.806V143.737H282.157V222.386ZM362.613 222.386H441.262V143.737H362.613V222.386ZM443.071 222.386H522.624V143.737H443.071V222.386ZM524.433 222.386H603.984V143.737H524.433V222.386ZM604.89 222.386H684.441V143.737H604.89V222.386ZM686.249 222.386H764.897V143.737H686.249V222.386ZM767.612 222.386H846.261V143.737H767.612V222.386ZM-122.84 141.929H-43.2871V63.2803H-122.84V141.929ZM-41.4766 141.929H37.1719V63.2803H-41.4766V141.929ZM38.9795 141.929H117.628V63.2803H38.9795V141.929ZM120.341 141.929H198.989V63.2803H120.341V141.929ZM200.797 141.929H279.445V63.2803H200.797V141.929ZM282.157 141.929H360.806V63.2803H282.157V141.929ZM362.613 141.929H441.262V63.2803H362.613V141.929ZM443.071 141.929H522.624V63.2803H443.071V141.929ZM524.433 141.929H603.984V63.2803H524.433V141.929ZM604.89 141.929H684.441V63.2803H604.89V141.929ZM686.249 141.929H764.897V63.2803H686.249V141.929ZM767.612 141.929H846.261V63.2803H767.612V141.929ZM-42.3828 62.375H-123.744V-18.9863H-42.3828V62.375ZM118.532 62.375H-42.3818V-18.9863H118.532V62.375ZM280.35 62.375H119.436V-18.9863H280.35V62.375ZM442.166 62.375H281.253V-18.9863H442.166V62.375ZM765.802 62.375H442.167V-18.9863H765.802V62.375ZM847.165 62.375H766.708V-18.9863H847.165V62.375ZM-122.84 61.4707H-43.2871V-18.082H-122.84V61.4707ZM-41.4775 61.4707H37.1709V-18.082H-41.4775V61.4707ZM38.9795 61.4707H117.628V-18.082H38.9795V61.4707ZM120.34 61.4707H198.988V-18.082H120.34V61.4707ZM200.797 61.4707H279.445V-18.082H200.797V61.4707ZM282.157 61.4707H360.806V-18.082H282.157V61.4707ZM362.613 61.4707H441.262V-18.082H362.613V61.4707ZM443.071 61.4707H522.624V-18.082H443.071V61.4707ZM524.433 61.4707H603.984V-18.082H524.433V61.4707ZM604.89 61.4707H684.441V-18.082H604.89V61.4707ZM686.249 61.4707H764.897V-18.082H686.249V61.4707ZM767.612 61.4707H846.261V-18.082H767.612V61.4707Z" fill="white"/>
</g>
</g>
<path d="M470 459.25V302.016C470 294.828 475.828 289 483.016 289H558.569C565.758 289 571.586 294.828 571.586 302.016V459.25C571.586 466.439 565.758 472.267 558.569 472.267H483.016C475.828 472.266 470 466.439 470 459.25Z" fill="url(#paint1_radial_7283_2791)"/>
<path d="M509.456 423.987C508.728 423.26 507.548 423.259 506.82 423.985L504.723 426.074L503.947 425.298C503.22 424.571 502.039 424.571 501.311 425.296C500.706 425.899 500.611 426.809 501.009 427.518L487.817 440.66C487.162 441.313 486.801 442.181 486.801 443.105C486.8 444.028 487.16 444.897 487.814 445.55C488.489 446.225 489.376 446.562 490.264 446.562C491.149 446.562 492.035 446.226 492.71 445.554L505.905 432.409C506.615 432.808 507.527 432.714 508.132 432.111C508.86 431.386 508.861 430.208 508.134 429.481L507.357 428.705L509.454 426.617C510.182 425.892 510.183 424.714 509.456 423.987ZM491.533 444.373C490.832 445.072 489.692 445.071 488.992 444.371C488.653 444.033 488.467 443.584 488.467 443.106C488.468 442.628 488.654 442.179 488.993 441.841L502.134 428.751L504.67 431.286L491.533 444.373Z" fill="#DDE3DD"/>
<path d="M557.589 448.052L547.53 438.016C549.093 436.14 549.945 433.802 549.945 431.332C549.945 428.531 548.853 425.899 546.869 423.92C542.773 419.834 536.111 419.834 532.016 423.92C530.032 425.899 528.939 428.532 528.939 431.332C528.939 434.131 530.032 436.764 532.016 438.744C534.064 440.787 536.753 441.808 539.442 441.808C541.825 441.808 544.205 441.003 546.141 439.4L556.204 449.44L557.589 448.052ZM533.401 437.356C531.789 435.747 530.9 433.607 530.9 431.332C530.9 429.056 531.789 426.917 533.401 425.308C535.066 423.646 537.255 422.815 539.442 422.815C541.63 422.815 543.818 423.646 545.484 425.308C547.096 426.917 547.985 429.056 547.985 431.332C547.985 433.607 547.096 435.746 545.484 437.356C542.153 440.679 536.732 440.679 533.401 437.356Z" fill="#DDE3DD"/>
<path d="M543.408 376.586C540.156 376.586 536.904 375.35 534.428 372.88C532.029 370.486 530.707 367.303 530.707 363.918C530.707 360.532 532.029 357.349 534.428 354.955C539.38 350.015 547.437 350.015 552.389 354.955C554.788 357.349 556.109 360.532 556.109 363.918C556.109 367.303 554.788 370.486 552.389 372.88C549.913 375.351 546.66 376.586 543.408 376.586ZM543.408 353.209C540.657 353.209 537.907 354.254 535.813 356.343C533.784 358.366 532.668 361.057 532.668 363.918C532.668 366.779 533.784 369.469 535.813 371.492C540.001 375.67 546.815 375.67 551.003 371.492C553.031 369.469 554.148 366.779 554.148 363.918C554.148 361.057 553.031 358.366 551.003 356.343C548.91 354.255 546.159 353.209 543.408 353.209Z" fill="#DDE3DD"/>
<path d="M552.078 389.56L533.346 408.25L534.731 409.638L553.462 390.948L552.078 389.56Z" fill="#DDE3DD"/>
<path d="M487.917 316.372L504.446 327.386L495.153 326.56C495.095 326.555 495.037 326.553 494.979 326.553C494.219 326.553 493.521 326.994 493.199 327.694L489.298 336.167L487.917 316.372ZM485.684 312.527L487.875 343.947L494.98 328.513L511.935 330.021L485.684 312.527Z" fill="#DDE3DD"/>
<path d="M530.281 312.527L532.472 343.947L539.577 328.513L556.533 330.021L530.281 312.527Z" fill="#DDE3DD"/>
<path d="M487.916 389.123V394.103H489.877V391.084H497.83V408.124H494.85V410.085H502.771V408.124H499.791V391.084H507.745V394.103H509.706V389.123H487.916Z" fill="#DDE3DD"/>
<path d="M502.724 359.043L483.992 377.732L485.377 379.12L504.109 360.431L502.724 359.043Z" fill="#DDE3DD"/>
<path d="M500.877 355.75C498.246 355.75 496.115 357.877 496.115 360.501C496.115 357.876 493.984 355.75 491.354 355.75C493.984 355.75 496.115 353.625 496.115 351C496.115 353.624 498.246 355.75 500.877 355.75Z" fill="#DDE3DD"/>
<path d="M510.232 353.003C508.248 353.003 506.64 354.607 506.64 356.587C506.64 354.607 505.033 353.003 503.049 353.003C505.033 353.003 506.64 351.399 506.64 349.42C506.64 351.399 508.248 353.003 510.232 353.003Z" fill="#DDE3DD"/>
<path d="M293.851 345.839C296.633 345.839 299.049 346.723 301.097 348.491L298.024 352.114C297.377 351.64 296.741 351.273 296.116 351.015C295.512 350.756 294.865 350.626 294.175 350.626C292.859 350.626 291.835 351.219 291.102 352.406C290.39 353.592 290.034 355.349 290.034 357.678C290.034 360.007 290.401 361.754 291.134 362.919C291.867 364.062 292.913 364.633 294.272 364.633C295.005 364.633 295.684 364.482 296.31 364.18C296.957 363.878 297.668 363.425 298.445 362.822L301.356 366.509C300.45 367.415 299.35 368.17 298.057 368.774C296.784 369.356 295.415 369.647 293.948 369.647C291.727 369.647 289.808 369.194 288.19 368.288C286.573 367.361 285.322 366.002 284.438 364.213C283.554 362.423 283.112 360.245 283.112 357.678C283.112 355.22 283.565 353.106 284.47 351.338C285.376 349.548 286.638 348.19 288.255 347.262C289.873 346.313 291.738 345.839 293.851 345.839ZM317.832 369H312.236L312.009 367.124C310.823 368.806 309.12 369.647 306.898 369.647C305.281 369.647 304.073 369.162 303.275 368.191C302.477 367.221 302.078 365.873 302.078 364.148V351.726H308.483V363.307C308.483 363.932 308.57 364.374 308.742 364.633C308.936 364.87 309.206 364.989 309.551 364.989C309.853 364.989 310.165 364.87 310.489 364.633C310.834 364.396 311.147 364.04 311.427 363.566V351.726H317.832V369ZM327.485 351.079C328.757 351.079 329.975 351.284 331.14 351.694C332.326 352.082 333.318 352.621 334.116 353.311L331.852 356.773C331.226 356.384 330.558 356.082 329.846 355.867C329.134 355.63 328.434 355.511 327.743 355.511C326.773 355.511 326.288 355.77 326.288 356.287C326.288 356.503 326.353 356.686 326.482 356.837C326.611 356.967 326.913 357.139 327.388 357.355C327.884 357.549 328.671 357.808 329.749 358.131C331.474 358.67 332.747 359.36 333.566 360.201C334.407 361.021 334.828 362.185 334.828 363.695C334.828 364.859 334.472 365.895 333.76 366.8C333.07 367.706 332.1 368.407 330.849 368.903C329.62 369.399 328.218 369.647 326.644 369.647C325.134 369.647 323.711 369.41 322.374 368.935C321.058 368.439 319.948 367.76 319.042 366.897L322.083 363.533C322.73 364.051 323.43 364.471 324.185 364.795C324.962 365.097 325.727 365.248 326.482 365.248C327.064 365.248 327.506 365.161 327.808 364.989C328.132 364.795 328.293 364.525 328.293 364.18C328.293 363.878 328.218 363.652 328.067 363.501C327.938 363.328 327.657 363.167 327.226 363.016C326.795 362.843 326.04 362.595 324.962 362.272C321.619 361.28 319.948 359.414 319.948 356.675C319.948 355.619 320.239 354.67 320.821 353.829C321.425 352.988 322.287 352.319 323.409 351.823C324.552 351.327 325.91 351.079 327.485 351.079ZM348.613 368.159C347.945 368.633 347.125 369 346.155 369.259C345.206 369.518 344.3 369.647 343.437 369.647C341.303 369.625 339.717 369.032 338.682 367.868C337.669 366.682 337.162 364.935 337.162 362.627V356.061H335.092V351.726H337.162V348.103L343.567 347.359V351.726H347.449L346.802 356.061H343.567V362.563C343.567 363.318 343.685 363.857 343.923 364.18C344.16 364.482 344.494 364.633 344.925 364.633C345.465 364.633 346.004 364.482 346.543 364.18L348.613 368.159ZM356.954 351.079C359.714 351.079 361.881 351.888 363.455 353.505C365.051 355.123 365.849 357.419 365.849 360.395C365.849 362.25 365.483 363.878 364.749 365.28C364.038 366.682 363.013 367.76 361.676 368.515C360.339 369.27 358.765 369.647 356.954 369.647C354.193 369.647 352.015 368.838 350.419 367.221C348.845 365.603 348.058 363.307 348.058 360.331C348.058 358.476 348.414 356.848 349.125 355.446C349.859 354.045 350.894 352.966 352.231 352.211C353.568 351.457 355.142 351.079 356.954 351.079ZM356.954 355.673C356.134 355.673 355.541 356.039 355.174 356.773C354.808 357.506 354.625 358.692 354.625 360.331C354.625 362.034 354.808 363.253 355.174 363.986C355.541 364.698 356.134 365.054 356.954 365.054C357.773 365.054 358.366 364.687 358.733 363.954C359.099 363.221 359.283 362.034 359.283 360.395C359.283 358.692 359.099 357.484 358.733 356.773C358.366 356.039 357.773 355.673 356.954 355.673ZM387.878 351.079C389.193 351.079 390.25 351.543 391.048 352.47C391.867 353.376 392.277 354.638 392.277 356.255V369H385.872V357.419C385.872 356.794 385.797 356.363 385.646 356.126C385.495 355.867 385.279 355.737 384.999 355.737C384.675 355.737 384.362 355.888 384.061 356.19C383.759 356.471 383.478 356.891 383.219 357.452V369H376.815V357.419C376.815 356.794 376.739 356.363 376.588 356.126C376.437 355.867 376.222 355.737 375.941 355.737C375.618 355.737 375.305 355.888 375.003 356.19C374.701 356.471 374.421 356.891 374.162 357.452V369H367.757V351.726H373.353L373.806 353.473C374.496 352.632 375.24 352.028 376.038 351.662C376.858 351.273 377.785 351.079 378.82 351.079C379.726 351.079 380.513 351.295 381.182 351.726C381.85 352.158 382.357 352.772 382.702 353.57C383.435 352.707 384.211 352.082 385.031 351.694C385.85 351.284 386.799 351.079 387.878 351.079ZM299.488 377.486C303.111 377.486 306.011 378.295 308.19 379.912C310.368 381.508 311.457 384.419 311.457 388.646C311.457 392.808 310.411 395.741 308.319 397.445C306.227 399.148 303.413 400 299.876 400H292.274V377.486H299.488ZM298.938 382.176V395.31H300.264C301.299 395.31 302.13 395.105 302.755 394.695C303.381 394.285 303.844 393.606 304.146 392.657C304.448 391.687 304.599 390.35 304.599 388.646C304.599 386.964 304.437 385.659 304.114 384.732C303.812 383.783 303.348 383.125 302.723 382.759C302.097 382.37 301.289 382.176 300.297 382.176H298.938ZM329.741 391.137C329.741 391.676 329.698 392.355 329.612 393.175H319.131C319.304 394.339 319.66 395.126 320.199 395.536C320.759 395.924 321.557 396.118 322.592 396.118C323.196 396.118 323.811 396 324.436 395.762C325.062 395.504 325.752 395.115 326.507 394.598L329.094 398.091C327.003 399.795 324.63 400.647 321.978 400.647C318.916 400.647 316.597 399.806 315.023 398.124C313.449 396.42 312.662 394.177 312.662 391.395C312.662 389.67 312.985 388.107 313.632 386.705C314.301 385.282 315.282 384.16 316.576 383.341C317.87 382.5 319.433 382.079 321.266 382.079C322.97 382.079 324.458 382.435 325.73 383.147C327.003 383.858 327.984 384.894 328.674 386.252C329.385 387.611 329.741 389.239 329.741 391.137ZM323.433 389.325C323.412 388.312 323.25 387.525 322.948 386.964C322.668 386.403 322.15 386.123 321.396 386.123C320.684 386.123 320.145 386.371 319.778 386.867C319.433 387.363 319.207 388.258 319.099 389.552H323.433V389.325ZM338.399 382.079C339.671 382.079 340.89 382.284 342.054 382.694C343.24 383.082 344.232 383.621 345.03 384.311L342.766 387.773C342.14 387.384 341.472 387.082 340.76 386.867C340.049 386.63 339.348 386.511 338.658 386.511C337.687 386.511 337.202 386.77 337.202 387.287C337.202 387.503 337.267 387.686 337.396 387.837C337.526 387.967 337.827 388.139 338.302 388.355C338.798 388.549 339.585 388.808 340.663 389.131C342.388 389.67 343.661 390.36 344.48 391.201C345.321 392.021 345.742 393.185 345.742 394.695C345.742 395.859 345.386 396.895 344.674 397.8C343.984 398.706 343.014 399.407 341.763 399.903C340.534 400.399 339.132 400.647 337.558 400.647C336.048 400.647 334.625 400.41 333.288 399.935C331.972 399.439 330.862 398.76 329.956 397.897L332.997 394.533C333.644 395.051 334.345 395.471 335.099 395.795C335.876 396.097 336.641 396.248 337.396 396.248C337.978 396.248 338.42 396.161 338.722 395.989C339.046 395.795 339.208 395.525 339.208 395.18C339.208 394.878 339.132 394.652 338.981 394.501C338.852 394.328 338.571 394.167 338.14 394.016C337.709 393.843 336.954 393.595 335.876 393.272C332.533 392.28 330.862 390.414 330.862 387.675C330.862 386.619 331.153 385.67 331.735 384.829C332.339 383.988 333.202 383.319 334.323 382.823C335.466 382.327 336.825 382.079 338.399 382.079ZM353.834 382.726V400H347.429V382.726H353.834ZM350.632 373.184C351.667 373.184 352.519 373.518 353.187 374.186C353.877 374.833 354.222 375.642 354.222 376.613C354.222 377.583 353.877 378.402 353.187 379.071C352.519 379.718 351.667 380.041 350.632 380.041C349.597 380.041 348.734 379.718 348.044 379.071C347.375 378.402 347.041 377.583 347.041 376.613C347.041 375.642 347.375 374.833 348.044 374.186C348.734 373.518 349.597 373.184 350.632 373.184ZM373.638 383.891C372.495 384.408 370.856 384.667 368.721 384.667C369.886 385.163 370.738 385.756 371.277 386.446C371.816 387.115 372.086 388.031 372.086 389.196C372.086 390.274 371.773 391.255 371.148 392.139C370.522 393.002 369.627 393.681 368.463 394.177C367.32 394.652 365.972 394.889 364.419 394.889C363.578 394.889 362.964 394.857 362.575 394.792C362.317 394.921 362.187 395.126 362.187 395.407C362.187 395.644 362.295 395.838 362.511 395.989C362.726 396.14 363.179 396.215 363.869 396.215H366.36C367.783 396.215 369.023 396.431 370.08 396.862C371.137 397.294 371.945 397.908 372.506 398.706C373.088 399.482 373.38 400.367 373.38 401.359C373.38 403.213 372.549 404.669 370.889 405.726C369.25 406.804 366.888 407.343 363.805 407.343C361.54 407.343 359.761 407.106 358.467 406.631C357.195 406.157 356.3 405.499 355.782 404.658C355.286 403.817 355.038 402.793 355.038 401.585H360.764C360.764 402.038 360.85 402.383 361.023 402.62C361.195 402.857 361.508 403.03 361.961 403.138C362.414 403.246 363.093 403.299 363.999 403.299C365.163 403.299 365.94 403.159 366.328 402.879C366.737 402.62 366.942 402.264 366.942 401.811C366.942 401.445 366.791 401.143 366.489 400.906C366.209 400.669 365.745 400.55 365.099 400.55H362.705C360.721 400.55 359.254 400.237 358.305 399.612C357.357 398.965 356.882 398.124 356.882 397.089C356.882 396.42 357.087 395.773 357.497 395.148C357.907 394.522 358.435 394.016 359.082 393.627C357.917 393.002 357.087 392.29 356.591 391.493C356.095 390.695 355.847 389.724 355.847 388.581C355.847 386.533 356.58 384.937 358.047 383.794C359.513 382.651 361.486 382.079 363.966 382.079C365.605 382.144 367.072 381.939 368.366 381.465C369.681 380.969 370.975 380.289 372.247 379.427L373.638 383.891ZM364.16 386.22C363.578 386.22 363.104 386.414 362.737 386.802C362.371 387.19 362.187 387.74 362.187 388.452C362.187 389.228 362.371 389.821 362.737 390.231C363.104 390.619 363.578 390.813 364.16 390.813C365.476 390.813 366.134 389.994 366.134 388.355C366.134 387.6 365.972 387.061 365.648 386.737C365.325 386.392 364.829 386.22 364.16 386.22ZM386.296 382.079C387.741 382.079 388.873 382.532 389.693 383.438C390.534 384.344 390.955 385.616 390.955 387.255V400H384.55V388.419C384.55 387.773 384.463 387.33 384.291 387.093C384.14 386.856 383.903 386.737 383.579 386.737C382.868 386.737 382.145 387.309 381.412 388.452V400H375.007V382.726H380.603L381.056 384.505C381.854 383.664 382.663 383.05 383.482 382.662C384.323 382.273 385.261 382.079 386.296 382.079Z" fill="url(#paint2_linear_7283_2791)"/>
<defs>
<linearGradient id="paint0_linear_7283_2791" x1="-47.6103" y1="364.856" x2="361.849" y2="865.685" gradientUnits="userSpaceOnUse">
<stop stop-color="#CDCDCD"/>
<stop offset="0.558995" stop-color="#636363"/>
<stop offset="1" stop-color="#313131"/>
</linearGradient>
<radialGradient id="paint1_radial_7283_2791" cx="0" cy="0" r="1" gradientUnits="userSpaceOnUse" gradientTransform="translate(537.724 330.723) rotate(180) scale(209.823 116.307)">
<stop stop-color="#00AAFF"/>
<stop offset="0.25888" stop-color="#232623"/>
<stop offset="1" stop-color="#0B0C0B"/>
</radialGradient>
<linearGradient id="paint2_linear_7283_2791" x1="284" y1="353" x2="389" y2="400" gradientUnits="userSpaceOnUse">
<stop stop-color="#151615"/>
<stop offset="1" stop-color="#D2F234"/>
</linearGradient>
<clipPath id="clip0_7283_2791">
<rect width="723.237" height="866" fill="white"/>
</clipPath>
</defs>
</svg>
