<svg width="235" height="400" viewBox="0 0 235 400" fill="none" xmlns="http://www.w3.org/2000/svg">
<path opacity="0.5" d="M472 20V381H110.417L21 290.838V110.161L110.417 20H472Z" stroke="#DDE3DD" stroke-width="2"/>
<g clip-path="url(#clip0_7159_20466)">
<circle cx="140.894" cy="324.894" r="56.8941" fill="#D2F234"/>
<circle cx="140.894" cy="307.765" r="21.4118" fill="white"/>
<circle cx="140.895" cy="400.753" r="71.5765" fill="white"/>
</g>
<g clip-path="url(#clip1_7159_20466)">
<circle cx="76.8937" cy="230.894" r="56.8941" transform="rotate(-15 76.8937 230.894)" fill="#00AAFF"/>
<circle cx="72.4603" cy="214.348" r="21.4118" transform="rotate(-15 72.4603 214.348)" fill="white"/>
<circle cx="96.5282" cy="304.168" r="71.5765" transform="rotate(-15 96.5282 304.168)" fill="white"/>
</g>
<g clip-path="url(#clip2_7159_20466)">
<circle cx="68.2739" cy="128.274" r="45.918" transform="rotate(32 68.2739 128.274)" fill="white"/>
<circle cx="75.5991" cy="116.549" r="17.281" transform="rotate(32 75.5991 116.549)" fill="#52D6DA"/>
<circle cx="35.8307" cy="180.195" r="57.7679" transform="rotate(32 35.8307 180.195)" fill="#52D6DA"/>
</g>
<g clip-path="url(#clip3_7159_20466)">
<circle cx="190.893" cy="222.895" r="56.8941" transform="rotate(-48 190.893 222.895)" fill="#FF6A00"/>
<circle cx="178.163" cy="211.433" r="21.4118" transform="rotate(-48 178.163 211.433)" fill="white"/>
<circle cx="247.267" cy="273.654" r="71.5765" transform="rotate(-48 247.267 273.654)" fill="white"/>
</g>
<rect x="120.316" y="108" width="133.97" height="36" rx="18" transform="rotate(15 120.316 108)" fill="#EEF3EE"/>
<path d="M133.296 123.094L132.691 124.505L127.532 123.123L126.368 127.47L130.85 128.671L130.456 130.139L125.974 128.938L124.753 133.497L130.278 134.978L129.884 136.446L122.524 134.474L126.091 121.163L133.296 123.094ZM139.135 131.222L141.266 139.495L139.18 138.936L137.687 132.221L132.998 137.28L131.027 136.752L136.926 130.734L134.942 123.535L137.028 124.094L138.373 129.817L142.418 125.538L144.388 126.066L139.135 131.222ZM150.358 127.666C152.007 128.107 153.189 128.797 153.904 129.734C154.623 130.658 154.799 131.803 154.433 133.168C154.043 134.623 153.283 135.579 152.153 136.035C151.023 136.492 149.679 136.511 148.121 136.094L146.44 135.643L145.131 140.531L143.295 140.039L146.862 126.729L150.358 127.666ZM148.432 134.624C149.501 134.911 150.367 134.922 151.032 134.658C151.709 134.398 152.19 133.733 152.477 132.664C152.732 131.711 152.634 130.946 152.181 130.369C151.741 129.796 150.999 129.37 149.956 129.09L148.314 128.65L146.828 134.194L148.432 134.624ZM165.293 131.667L164.687 133.079L159.529 131.696L158.364 136.043L162.846 137.244L162.453 138.712L157.971 137.511L156.749 142.07L162.274 143.551L161.881 145.019L154.52 143.047L158.087 129.736L165.293 131.667ZM170.273 141.222L168.206 140.668L166.694 146.309L164.859 145.817L168.425 132.507L171.922 133.444C173.583 133.889 174.755 134.541 175.435 135.4C176.129 136.262 176.309 137.318 175.974 138.567C175.726 139.494 175.285 140.184 174.654 140.636C174.022 141.087 173.183 141.332 172.138 141.37L174.132 148.302L171.949 147.717L170.273 141.222ZM170.438 139.755C171.404 140.013 172.183 140.015 172.776 139.76C173.373 139.492 173.788 138.92 174.023 138.044C174.244 137.22 174.151 136.56 173.746 136.065C173.356 135.56 172.614 135.161 171.52 134.868L169.878 134.428L168.583 139.258L170.438 139.755ZM187.607 137.646L186.995 139.159L183.305 138.171L180.158 149.916L178.323 149.425L181.47 137.679L177.683 136.664L178.103 135.1L187.607 137.646ZM202.7 141.691L202.088 143.204L198.398 142.215L195.25 153.961L193.415 153.469L196.562 141.723L192.776 140.709L193.195 139.144L202.7 141.691ZM212.023 144.189L211.417 145.6L206.259 144.218L205.095 148.564L209.576 149.765L209.183 151.234L204.701 150.033L203.48 154.592L209.005 156.072L208.611 157.541L201.251 155.568L204.817 142.258L212.023 144.189ZM218.679 160.238L218.57 156.627L213.528 155.276L211.628 158.349L209.773 157.852L217.609 145.685L219.927 146.307L220.611 160.756L218.679 160.238ZM214.371 153.907L218.524 155.02L218.321 147.512L214.371 153.907ZM234.564 164.494L232.786 164.018L233.933 157.886C234.371 155.477 234.746 153.638 235.059 152.369L229.52 161.528L227.8 161.067L227.433 150.305C227.002 151.915 226.419 153.754 225.686 155.821L223.668 161.575L221.929 161.109L226.597 148.094L229.07 148.756L229.278 159.185L234.537 150.221L237.029 150.889L234.564 164.494Z" fill="#232423"/>
<defs>
<clipPath id="clip0_7159_20466">
<rect x="84" y="268" width="113.788" height="113.788" rx="56.8941" fill="white"/>
</clipPath>
<clipPath id="clip1_7159_20466">
<rect x="7.21289" y="190.664" width="113.788" height="113.788" rx="56.8941" transform="rotate(-15 7.21289 190.664)" fill="white"/>
</clipPath>
<clipPath id="clip2_7159_20466">
<rect x="53.666" y="65" width="91.8361" height="91.8361" rx="45.918" transform="rotate(32 53.666 65)" fill="white"/>
</clipPath>
<clipPath id="clip3_7159_20466">
<rect x="110.543" y="227.105" width="113.788" height="113.788" rx="56.8941" transform="rotate(-48 110.543 227.105)" fill="white"/>
</clipPath>
</defs>
</svg>
