<svg width="369" height="417" viewBox="0 0 369 417" fill="none" xmlns="http://www.w3.org/2000/svg">
<g clip-path="url(#clip0_7256_4777)">
<rect width="369" height="417" rx="16" fill="url(#paint0_radial_7256_4777)"/>
</g>
<path d="M263.644 124.815C250.306 111.476 232.566 104.128 213.701 104.128C194.834 104.125 177.097 111.475 163.754 124.818C153.329 135.243 146.561 148.357 144.104 162.602C143.854 164.041 143.65 165.488 143.495 166.948C143.336 168.381 143.223 169.828 143.154 171.281C143.096 172.436 143.068 173.597 143.068 174.762L143.071 184.365V188.686L143.068 193.011L143.064 245.395L195.456 245.392H199.777H204.098C204.171 244.216 204.208 243.027 204.211 241.83V232.34L199.899 232.336H156.123L156.127 192.873V184.254L156.123 174.761C156.127 173.563 156.164 172.375 156.236 171.199C156.325 169.745 156.468 168.309 156.666 166.886C156.863 165.427 157.119 163.988 157.431 162.574C159.802 151.578 165.33 141.748 173.007 134.071C183.433 123.644 197.826 117.187 213.701 117.185C245.448 117.188 271.275 143.015 271.278 174.762C271.275 190.637 264.818 205.03 254.392 215.456C246.715 223.133 236.883 228.661 225.889 231.032V232.226L225.886 241.829C225.886 242.676 225.873 243.523 225.849 244.358C240.094 241.902 253.215 235.136 263.644 224.708C276.987 211.366 284.334 193.626 284.334 174.761C284.334 155.898 276.987 138.157 263.644 124.815Z" fill="#FF6A00"/>
<path d="M156.126 184.254H160.435H164.744L204.207 184.252L204.211 223.72V228.029V232.338V241.828C204.207 243.025 204.17 244.215 204.098 245.391C204.009 246.845 203.869 248.282 203.668 249.703C203.473 251.159 203.22 252.595 202.909 254.01C200.533 265.005 195.005 274.843 187.328 282.52C176.902 292.945 162.508 299.402 146.634 299.406C114.888 299.402 89.0601 273.575 89.0567 241.828C89.0601 225.954 95.5174 211.56 105.943 201.135C113.62 193.458 123.454 187.933 134.449 185.555V174.761C134.449 173.907 134.462 173.059 134.488 172.228C120.245 174.678 107.122 181.449 96.69 191.881C83.3471 205.223 75.9966 222.96 76 241.827C76 260.692 83.3482 278.432 96.6866 291.77C110.028 305.112 127.768 312.46 146.633 312.46C165.498 312.46 183.238 305.112 196.58 291.77C209.095 279.253 216.337 262.865 217.181 245.307C217.208 244.743 217.23 244.18 217.245 243.616C217.252 243.31 217.257 243.006 217.261 242.698C217.264 242.408 217.266 242.119 217.266 241.826L217.264 241.823V232.223L217.266 171.189L164.876 171.193L160.558 171.195H156.237C156.164 172.371 156.127 173.559 156.124 174.757L156.126 184.254Z" fill="white"/>
<rect x="77.5" y="105.628" width="205.333" height="205.333" stroke="white" stroke-width="3"/>
<path d="M68 98H83.3186V113.319H68V98Z" fill="#52D6DA"/>
<path d="M276 98H291.319V113.319H276V98Z" fill="#52D6DA"/>
<path d="M68 301.738H83.3186V317.057H68V301.738Z" fill="#52D6DA"/>
<path d="M276 301.738H291.319V317.057H276V301.738Z" fill="#52D6DA"/>
<defs>
<radialGradient id="paint0_radial_7256_4777" cx="0" cy="0" r="1" gradientUnits="userSpaceOnUse" gradientTransform="translate(184.5 -250.506) rotate(90) scale(667.506 590.671)">
<stop offset="0.498118" stop-color="#0B0C0B"/>
<stop offset="1" stop-color="#FF6A00"/>
</radialGradient>
<clipPath id="clip0_7256_4777">
<rect width="369" height="417" rx="16" fill="white"/>
</clipPath>
</defs>
</svg>
