<svg width="645" height="584" viewBox="0 0 645 584" fill="none" xmlns="http://www.w3.org/2000/svg">
<g opacity="0.5" clip-path="url(#clip0_7217_2379)">
<mask id="mask0_7217_2379" style="mask-type:alpha" maskUnits="userSpaceOnUse" x="0" y="-109" width="702" height="906">
<path d="M365.298 494.433C476.847 481.685 553.483 382.246 553.483 244.561C553.483 96.6773 465.777 -7.01127 340.605 -7.01127C215.432 -7.01127 127.727 96.6773 127.727 244.561C127.727 400.094 210.323 490.184 426.607 570.075C583.286 628.719 701.646 672.914 701.646 797H582.434C582.434 754.505 509.204 730.707 359.338 672.064C104.736 572.625 0 436.64 0 244.561C0 37.1839 140.499 -109 340.605 -109C540.71 -109 681.209 37.1839 681.209 244.561C681.209 385.645 616.495 498.683 511.759 555.627L365.298 494.433Z" fill="url(#paint0_linear_7217_2379)"/>
</mask>
<g mask="url(#mask0_7217_2379)">
<path d="M36.8369 814.541H-120.156V736.483H36.8369V814.541ZM114.896 814.541H36.8379V736.483H114.896V814.541ZM193.83 814.541H115.772V736.483H193.83V814.541ZM271.889 814.541H193.831V736.483H271.889V814.541ZM350.823 814.541H272.766V736.483H350.823V814.541ZM742.868 814.541H350.824V736.483H742.868V814.541ZM821.803 814.541H743.745V736.483H821.803V814.541ZM-119.279 813.664H-42.0986V737.36H-119.279V813.664ZM-40.3438 813.664H35.96V737.36H-40.3438V813.664ZM37.7148 813.664H114.019V737.36H37.7148V813.664ZM116.649 813.664H192.953V737.36H116.649V813.664ZM194.708 813.664H271.012V737.36H194.708V813.664ZM273.643 813.664H349.946V737.36H273.643V813.664ZM351.701 813.664H428.005V737.36H351.701V813.664ZM429.759 813.664H506.939V737.36H429.759V813.664ZM508.694 813.664H585.875V737.36H508.694V813.664ZM586.753 813.664H663.933V737.36H586.753V813.664ZM665.688 813.664H741.991V737.36H665.688V813.664ZM744.622 813.664H820.926V737.36H744.622V813.664ZM114.895 735.605H-120.156V578.613H114.895V735.605ZM271.888 735.605H115.772V578.613H271.888V735.605ZM428.881 735.605H272.766V578.613H428.881V735.605ZM742.867 735.605H428.882V578.613H742.867V735.605ZM821.803 735.605H743.745V578.613H821.803V735.605ZM-119.279 734.729H-42.0986V658.425H-119.279V734.729ZM-40.3438 734.729H35.96V658.425H-40.3438V734.729ZM37.7139 734.729H114.018V658.425H37.7139V734.729ZM116.649 734.729H192.953V658.425H116.649V734.729ZM194.707 734.729H271.011V658.425H194.707V734.729ZM273.643 734.729H349.946V658.425H273.643V734.729ZM351.7 734.729H428.004V658.425H351.7V734.729ZM429.759 734.729H506.939V658.425H429.759V734.729ZM508.694 734.729H585.875V658.425H508.694V734.729ZM586.753 734.729H663.933V658.425H586.753V734.729ZM665.687 734.729H741.99V658.425H665.687V734.729ZM744.622 734.729H820.926V658.425H744.622V734.729ZM-119.279 656.671H-42.0986V579.49H-119.279V656.671ZM-40.3438 656.671H35.96V579.49H-40.3438V656.671ZM37.7139 656.671H114.018V579.49H37.7139V656.671ZM116.649 656.671H192.953V579.49H116.649V656.671ZM194.707 656.671H271.011V579.49H194.707V656.671ZM273.643 656.671H349.946V579.49H273.643V656.671ZM351.7 656.671H428.004V579.49H351.7V656.671ZM429.759 656.671H506.939V579.49H429.759V656.671ZM508.694 656.671H585.875V579.49H508.694V656.671ZM586.753 656.671H663.933V579.49H586.753V656.671ZM665.687 656.671H741.99V579.49H665.687V656.671ZM744.622 656.671H820.926V579.49H744.622V656.671ZM114.895 578.612H-120.156V186.568H114.895V578.612ZM271.888 578.612H115.772V186.568H271.888V578.612ZM428.881 578.612H272.766V186.568H428.881V578.612ZM742.867 578.612H428.882V186.568H742.867V578.612ZM821.803 578.612H743.745V186.568H821.803V578.612ZM-119.279 577.735H-42.0986V501.432H-119.279V577.735ZM-40.3438 577.735H35.96V501.432H-40.3438V577.735ZM37.7139 577.735H114.018V501.432H37.7139V577.735ZM116.649 577.735H192.953V501.432H116.649V577.735ZM194.707 577.735H271.011V501.432H194.707V577.735ZM273.643 577.735H349.946V501.432H273.643V577.735ZM351.7 577.735H428.004V501.432H351.7V577.735ZM429.759 577.735H506.939V501.432H429.759V577.735ZM508.694 577.735H585.875V501.432H508.694V577.735ZM586.753 577.735H663.933V501.432H586.753V577.735ZM665.687 577.735H741.99V501.432H665.687V577.735ZM744.622 577.735H820.926V501.432H744.622V577.735ZM-119.279 499.678H-42.0986V423.374H-119.279V499.678ZM-40.3438 499.678H35.96V423.374H-40.3438V499.678ZM37.7139 499.678H114.018V423.374H37.7139V499.678ZM116.649 499.678H192.953V423.374H116.649V499.678ZM194.707 499.678H271.011V423.374H194.707V499.678ZM273.643 499.678H349.946V423.374H273.643V499.678ZM351.7 499.678H428.004V423.374H351.7V499.678ZM429.759 499.678H506.939V423.374H429.759V499.678ZM508.694 499.678H585.875V423.374H508.694V499.678ZM586.753 499.678H663.933V423.374H586.753V499.678ZM665.687 499.678H741.99V423.374H665.687V499.678ZM744.622 499.678H820.926V423.374H744.622V499.678ZM-119.279 421.619H-42.0986V344.438H-119.279V421.619ZM-40.3438 421.619H35.96V344.438H-40.3438V421.619ZM37.7139 421.619H114.018V344.438H37.7139V421.619ZM116.649 421.619H192.953V344.438H116.649V421.619ZM194.707 421.619H271.011V344.438H194.707V421.619ZM273.643 421.619H349.946V344.438H273.643V421.619ZM351.7 421.619H428.004V344.438H351.7V421.619ZM429.759 421.619H506.939V344.438H429.759V421.619ZM508.694 421.619H585.875V344.438H508.694V421.619ZM586.753 421.619H663.933V344.438H586.753V421.619ZM665.687 421.619H741.99V344.438H665.687V421.619ZM744.622 421.619H820.926V344.438H744.622V421.619ZM-119.279 342.685H-42.0986V265.504H-119.279V342.685ZM-40.3438 342.685H35.96V265.504H-40.3438V342.685ZM37.7139 342.685H114.018V265.504H37.7139V342.685ZM116.649 342.685H192.953V265.504H116.649V342.685ZM194.707 342.685H271.011V265.504H194.707V342.685ZM273.643 342.685H349.946V265.504H273.643V342.685ZM351.7 342.685H428.004V265.504H351.7V342.685ZM429.759 342.685H506.939V265.504H429.759V342.685ZM508.694 342.685H585.875V265.504H508.694V342.685ZM586.753 342.685H663.933V265.504H586.753V342.685ZM665.687 342.685H741.99V265.504H665.687V342.685ZM744.622 342.685H820.926V265.504H744.622V342.685ZM-119.279 264.626H-42.0986V187.445H-119.279V264.626ZM-40.3438 264.626H35.96V187.445H-40.3438V264.626ZM37.7139 264.626H114.018V187.445H37.7139V264.626ZM116.649 264.626H192.953V187.445H116.649V264.626ZM194.707 264.626H271.011V187.445H194.707V264.626ZM273.643 264.626H349.946V187.445H273.643V264.626ZM351.7 264.626H428.004V187.445H351.7V264.626ZM429.759 264.626H506.939V187.445H429.759V264.626ZM508.694 264.626H585.875V187.445H508.694V264.626ZM586.753 264.626H663.933V187.445H586.753V264.626ZM665.687 264.626H741.99V187.445H665.687V264.626ZM744.622 264.626H820.926V187.445H744.622V264.626ZM114.895 186.567H-120.156V108.51H114.895V186.567ZM271.888 186.567H115.772V108.51H271.888V186.567ZM428.881 186.567H272.766V108.51H428.881V186.567ZM742.867 186.567H428.882V108.51H742.867V186.567ZM821.803 186.567H743.745V108.51H821.803V186.567ZM-119.279 185.69H-42.0986V109.387H-119.279V185.69ZM-40.3438 185.69H35.96V109.387H-40.3438V185.69ZM37.7139 185.69H114.018V109.387H37.7139V185.69ZM116.649 185.69H192.953V109.387H116.649V185.69ZM194.707 185.69H271.011V109.387H194.707V185.69ZM273.643 185.69H349.946V109.387H273.643V185.69ZM351.7 185.69H428.004V109.387H351.7V185.69ZM429.759 185.69H506.939V109.387H429.759V185.69ZM508.694 185.69H585.875V109.387H508.694V185.69ZM586.753 185.69H663.933V109.387H586.753V185.69ZM665.687 185.69H741.99V109.387H665.687V185.69ZM744.622 185.69H820.926V109.387H744.622V185.69ZM114.895 107.633H-120.156V29.5752H114.895V107.633ZM271.888 107.633H115.772V29.5752H271.888V107.633ZM428.881 107.633H272.766V29.5752H428.881V107.633ZM742.867 107.633H428.882V29.5752H742.867V107.633ZM821.803 107.633H743.745V29.5752H821.803V107.633ZM-119.279 106.756H-42.0986V30.4521H-119.279V106.756ZM-40.3438 106.756H35.96V30.4521H-40.3438V106.756ZM37.7139 106.756H114.018V30.4521H37.7139V106.756ZM116.649 106.756H192.953V30.4521H116.649V106.756ZM194.707 106.756H271.011V30.4521H194.707V106.756ZM273.643 106.756H349.946V30.4521H273.643V106.756ZM351.7 106.756H428.004V30.4521H351.7V106.756ZM429.759 106.756H506.939V30.4521H429.759V106.756ZM508.694 106.756H585.875V30.4521H508.694V106.756ZM586.753 106.756H663.933V30.4521H586.753V106.756ZM665.687 106.756H741.99V30.4521H665.687V106.756ZM744.622 106.756H820.926V30.4521H744.622V106.756ZM114.895 29.5742H-120.156V-127.418H114.895V29.5742ZM271.888 29.5742H115.772V-127.418H271.888V29.5742ZM428.881 29.5742H272.766V-127.418H428.881V29.5742ZM742.867 29.5742H428.882V-127.418H742.867V29.5742ZM821.803 29.5742H743.745V-127.418H821.803V29.5742ZM-119.279 28.6973H-42.0986V-47.6064H-119.279V28.6973ZM-40.3438 28.6973H35.96V-47.6064H-40.3438V28.6973ZM37.7139 28.6973H114.018V-47.6064H37.7139V28.6973ZM116.649 28.6973H192.953V-47.6064H116.649V28.6973ZM194.707 28.6973H271.011V-47.6064H194.707V28.6973ZM273.643 28.6973H349.946V-47.6064H273.643V28.6973ZM351.7 28.6973H428.004V-47.6064H351.7V28.6973ZM429.759 28.6973H506.939V-47.6064H429.759V28.6973ZM508.694 28.6973H585.875V-47.6064H508.694V28.6973ZM586.753 28.6973H663.933V-47.6064H586.753V28.6973ZM665.687 28.6973H741.99V-47.6064H665.687V28.6973ZM744.622 28.6973H820.926V-47.6064H744.622V28.6973ZM-119.279 -49.3604H-42.0986V-126.541H-119.279V-49.3604ZM-40.3438 -49.3604H35.96V-126.541H-40.3438V-49.3604ZM37.7139 -49.3604H114.018V-126.541H37.7139V-49.3604ZM116.649 -49.3604H192.953V-126.541H116.649V-49.3604ZM194.707 -49.3604H271.011V-126.541H194.707V-49.3604ZM273.643 -49.3604H349.946V-126.541H273.643V-49.3604ZM351.7 -49.3604H428.004V-126.541H351.7V-49.3604ZM429.759 -49.3604H506.939V-126.541H429.759V-49.3604ZM508.694 -49.3604H585.875V-126.541H508.694V-49.3604ZM586.753 -49.3604H663.933V-126.541H586.753V-49.3604ZM665.687 -49.3604H741.99V-126.541H665.687V-49.3604ZM744.622 -49.3604H820.926V-126.541H744.622V-49.3604Z" fill="#9EA19E"/>
</g>
</g>
<g clip-path="url(#clip1_7217_2379)">
<rect x="112" y="60" width="533" height="464" rx="32" fill="#151615"/>
<path d="M307.232 469.296C308.144 469.296 308.912 469.424 309.536 469.68C310.176 469.92 310.816 470.296 311.456 470.808L310.688 471.768C310.128 471.32 309.592 471 309.08 470.808C308.568 470.616 307.984 470.52 307.328 470.52C305.776 470.52 304.512 471.112 303.536 472.296C302.576 473.48 302.096 475.304 302.096 477.768C302.096 479.368 302.32 480.712 302.768 481.8C303.216 482.888 303.824 483.696 304.592 484.224C305.376 484.736 306.264 484.992 307.256 484.992C308.04 484.992 308.704 484.88 309.248 484.656C309.792 484.416 310.344 484.072 310.904 483.624L311.648 484.56C310.448 485.696 308.968 486.264 307.208 486.264C305.928 486.264 304.784 485.936 303.776 485.28C302.784 484.624 302 483.664 301.424 482.4C300.864 481.12 300.584 479.576 300.584 477.768C300.584 475.96 300.88 474.424 301.472 473.16C302.064 471.88 302.856 470.92 303.848 470.28C304.856 469.624 305.984 469.296 307.232 469.296ZM323.102 486H321.902L321.83 483.768C320.838 485.432 319.47 486.264 317.726 486.264C316.59 486.264 315.71 485.936 315.086 485.28C314.478 484.608 314.174 483.656 314.174 482.424V473.448H315.566V482.28C315.566 483.256 315.766 483.976 316.166 484.44C316.582 484.888 317.206 485.112 318.038 485.112C319.494 485.112 320.718 484.256 321.71 482.544V473.448H323.102V486ZM331.264 473.184C332.048 473.184 332.76 473.304 333.4 473.544C334.04 473.768 334.664 474.112 335.272 474.576L334.624 475.488C334.048 475.088 333.504 474.8 332.992 474.624C332.48 474.432 331.92 474.336 331.312 474.336C330.48 474.336 329.808 474.528 329.296 474.912C328.784 475.296 328.528 475.808 328.528 476.448C328.528 477.056 328.744 477.528 329.176 477.864C329.624 478.2 330.424 478.52 331.576 478.824C333 479.192 334.024 479.656 334.648 480.216C335.288 480.776 335.608 481.576 335.608 482.616C335.608 483.736 335.176 484.624 334.312 485.28C333.448 485.936 332.368 486.264 331.072 486.264C330.112 486.264 329.272 486.128 328.552 485.856C327.832 485.568 327.176 485.168 326.584 484.656L327.352 483.768C327.912 484.216 328.48 484.552 329.056 484.776C329.648 484.984 330.312 485.088 331.048 485.088C331.976 485.088 332.72 484.88 333.28 484.464C333.856 484.032 334.144 483.44 334.144 482.688C334.144 482.176 334.048 481.76 333.856 481.44C333.664 481.12 333.336 480.848 332.872 480.624C332.408 480.384 331.728 480.144 330.832 479.904C329.504 479.552 328.544 479.112 327.952 478.584C327.376 478.056 327.088 477.352 327.088 476.472C327.088 475.848 327.272 475.288 327.64 474.792C328.008 474.28 328.504 473.888 329.128 473.616C329.768 473.328 330.48 473.184 331.264 473.184ZM345.037 485.472C344.237 486 343.357 486.264 342.397 486.264C341.437 486.264 340.685 485.984 340.141 485.424C339.597 484.848 339.325 484.024 339.325 482.952V474.576H337.213V473.448H339.325V470.448L340.717 470.28V473.448H343.957L343.789 474.576H340.717V482.88C340.717 483.616 340.869 484.168 341.173 484.536C341.477 484.888 341.941 485.064 342.565 485.064C343.205 485.064 343.845 484.88 344.485 484.512L345.037 485.472ZM351.544 473.184C353.208 473.184 354.504 473.76 355.432 474.912C356.376 476.048 356.848 477.64 356.848 479.688C356.848 481.72 356.368 483.328 355.408 484.512C354.464 485.68 353.168 486.264 351.52 486.264C349.856 486.264 348.552 485.688 347.608 484.536C346.68 483.368 346.216 481.768 346.216 479.736C346.216 478.408 346.432 477.248 346.864 476.256C347.296 475.264 347.912 474.504 348.712 473.976C349.512 473.448 350.456 473.184 351.544 473.184ZM351.544 474.36C350.328 474.36 349.384 474.816 348.712 475.728C348.04 476.64 347.704 477.976 347.704 479.736C347.704 481.48 348.032 482.808 348.688 483.72C349.36 484.632 350.304 485.088 351.52 485.088C352.736 485.088 353.68 484.632 354.352 483.72C355.04 482.808 355.384 481.464 355.384 479.688C355.384 477.944 355.048 476.624 354.376 475.728C353.72 474.816 352.776 474.36 351.544 474.36ZM373.175 473.184C374.183 473.184 374.975 473.528 375.551 474.216C376.143 474.904 376.439 475.84 376.439 477.024V486H375.047V477.216C375.047 476.224 374.855 475.496 374.471 475.032C374.103 474.552 373.583 474.312 372.911 474.312C372.207 474.312 371.575 474.536 371.015 474.984C370.455 475.432 369.911 476.072 369.383 476.904V486H367.991V477.216C367.991 476.224 367.799 475.496 367.415 475.032C367.047 474.552 366.527 474.312 365.855 474.312C365.135 474.312 364.495 474.536 363.935 474.984C363.375 475.432 362.839 476.072 362.327 476.904V486H360.935V473.448H362.135L362.255 475.584C362.735 474.832 363.303 474.248 363.959 473.832C364.615 473.4 365.335 473.184 366.119 473.184C366.919 473.184 367.591 473.408 368.135 473.856C368.679 474.288 369.047 474.896 369.239 475.68C369.735 474.896 370.311 474.288 370.967 473.856C371.639 473.408 372.375 473.184 373.175 473.184ZM391.483 469.56C393.755 469.56 395.595 470.136 397.003 471.288C398.427 472.44 399.139 474.56 399.139 477.648C399.139 480.736 398.419 482.904 396.979 484.152C395.555 485.384 393.811 486 391.747 486H388.219V469.56H391.483ZM389.659 470.76V484.8H391.843C395.699 484.8 397.627 482.416 397.627 477.648C397.627 475.76 397.347 474.312 396.787 473.304C396.227 472.296 395.515 471.624 394.651 471.288C393.803 470.936 392.811 470.76 391.675 470.76H389.659ZM412.167 479.256C412.167 479.608 412.151 479.944 412.119 480.264H403.743C403.823 481.896 404.207 483.112 404.895 483.912C405.599 484.696 406.519 485.088 407.655 485.088C408.311 485.088 408.887 484.992 409.383 484.8C409.895 484.592 410.447 484.272 411.039 483.84L411.687 484.728C411.063 485.24 410.423 485.624 409.767 485.88C409.111 486.136 408.383 486.264 407.583 486.264C405.919 486.264 404.615 485.696 403.671 484.56C402.727 483.424 402.255 481.848 402.255 479.832C402.255 478.504 402.455 477.344 402.855 476.352C403.271 475.344 403.855 474.568 404.607 474.024C405.375 473.464 406.263 473.184 407.271 473.184C408.871 473.184 410.087 473.728 410.919 474.816C411.751 475.888 412.167 477.368 412.167 479.256ZM410.799 478.824C410.799 477.416 410.503 476.32 409.911 475.536C409.335 474.736 408.471 474.336 407.319 474.336C406.279 474.336 405.439 474.736 404.799 475.536C404.159 476.336 403.807 477.552 403.743 479.184H410.799V478.824ZM419.202 473.184C419.986 473.184 420.698 473.304 421.338 473.544C421.978 473.768 422.602 474.112 423.21 474.576L422.562 475.488C421.986 475.088 421.442 474.8 420.93 474.624C420.418 474.432 419.858 474.336 419.25 474.336C418.418 474.336 417.746 474.528 417.234 474.912C416.722 475.296 416.466 475.808 416.466 476.448C416.466 477.056 416.682 477.528 417.114 477.864C417.562 478.2 418.362 478.52 419.514 478.824C420.938 479.192 421.962 479.656 422.586 480.216C423.226 480.776 423.546 481.576 423.546 482.616C423.546 483.736 423.114 484.624 422.25 485.28C421.386 485.936 420.306 486.264 419.01 486.264C418.05 486.264 417.21 486.128 416.49 485.856C415.77 485.568 415.114 485.168 414.522 484.656L415.29 483.768C415.85 484.216 416.418 484.552 416.994 484.776C417.586 484.984 418.25 485.088 418.986 485.088C419.914 485.088 420.658 484.88 421.218 484.464C421.794 484.032 422.082 483.44 422.082 482.688C422.082 482.176 421.986 481.76 421.794 481.44C421.602 481.12 421.274 480.848 420.81 480.624C420.346 480.384 419.666 480.144 418.77 479.904C417.442 479.552 416.482 479.112 415.89 478.584C415.314 478.056 415.026 477.352 415.026 476.472C415.026 475.848 415.21 475.288 415.578 474.792C415.946 474.28 416.442 473.888 417.066 473.616C417.706 473.328 418.418 473.184 419.202 473.184ZM428.655 473.448V486H427.263V473.448H428.655ZM427.935 467.928C428.255 467.928 428.511 468.024 428.703 468.216C428.895 468.408 428.991 468.648 428.991 468.936C428.991 469.224 428.895 469.464 428.703 469.656C428.511 469.848 428.255 469.944 427.935 469.944C427.631 469.944 427.383 469.848 427.191 469.656C426.999 469.464 426.903 469.224 426.903 468.936C426.903 468.648 426.999 468.408 427.191 468.216C427.383 468.024 427.631 467.928 427.935 467.928ZM443.068 473.712C442.3 473.92 441.14 474.04 439.588 474.072C441.012 474.744 441.724 475.88 441.724 477.48C441.724 478.712 441.316 479.712 440.5 480.48C439.684 481.232 438.58 481.608 437.188 481.608C436.564 481.608 436.02 481.528 435.556 481.368C435.252 481.544 435.012 481.76 434.836 482.016C434.676 482.256 434.596 482.52 434.596 482.808C434.596 483.672 435.26 484.104 436.588 484.104H438.628C439.86 484.104 440.836 484.408 441.556 485.016C442.292 485.608 442.66 486.376 442.66 487.32C442.66 488.472 442.204 489.36 441.292 489.984C440.38 490.608 439.02 490.92 437.212 490.92C435.34 490.92 433.996 490.632 433.18 490.056C432.38 489.496 431.979 488.584 431.979 487.32H433.276C433.292 487.928 433.42 488.408 433.66 488.76C433.9 489.112 434.3 489.368 434.86 489.528C435.42 489.688 436.204 489.768 437.212 489.768C438.62 489.768 439.644 489.56 440.284 489.144C440.924 488.744 441.244 488.16 441.244 487.392C441.244 486.72 440.996 486.208 440.5 485.856C440.004 485.488 439.308 485.304 438.412 485.304H436.372C435.38 485.304 434.612 485.096 434.068 484.68C433.54 484.264 433.276 483.736 433.276 483.096C433.276 482.68 433.396 482.288 433.636 481.92C433.876 481.552 434.212 481.232 434.644 480.96C433.924 480.592 433.388 480.12 433.036 479.544C432.7 478.968 432.532 478.264 432.532 477.432C432.532 476.168 432.956 475.144 433.804 474.36C434.652 473.576 435.764 473.184 437.14 473.184C438.66 473.2 439.764 473.144 440.452 473.016C441.156 472.888 441.884 472.672 442.636 472.368L443.068 473.712ZM437.14 474.264C436.1 474.264 435.308 474.552 434.764 475.128C434.236 475.704 433.972 476.472 433.972 477.432C433.972 478.424 434.252 479.2 434.812 479.76C435.388 480.32 436.164 480.6 437.14 480.6C438.164 480.6 438.948 480.328 439.492 479.784C440.036 479.224 440.308 478.448 440.308 477.456C440.308 476.448 440.036 475.664 439.492 475.104C438.964 474.544 438.18 474.264 437.14 474.264ZM451.346 473.184C452.482 473.184 453.346 473.52 453.938 474.192C454.546 474.864 454.85 475.808 454.85 477.024V486H453.458V477.216C453.458 476.208 453.258 475.472 452.858 475.008C452.458 474.544 451.866 474.312 451.082 474.312C450.282 474.312 449.57 474.536 448.946 474.984C448.338 475.416 447.754 476.056 447.194 476.904V486H445.802V473.448H447.002L447.146 475.584C447.658 474.832 448.266 474.248 448.97 473.832C449.674 473.4 450.466 473.184 451.346 473.184Z" fill="white"/>
</g>
<line x1="112" y1="399.5" x2="645" y2="399.5" stroke="#696B69"/>
<line x1="544.5" y1="60" x2="544.5" y2="524" stroke="#FF00DD"/>
<path d="M445.877 125.556H311.474C307.539 125.556 304.35 122.366 304.35 118.432V96.1242C304.35 92.1895 307.539 89 311.474 89H445.876C449.811 89 453 92.1895 453 96.1242V118.432C453.001 122.366 449.811 125.556 445.877 125.556Z" fill="#232423"/>
<path d="M314.846 100.032H313.531V115.841H314.846V100.032Z" fill="#9EA19E"/>
<path d="M323.609 101.861H315.84V106.343H323.609V101.861Z" fill="#9EA19E"/>
<path d="M326.475 107.67H315.84V112.152H326.475V107.67Z" fill="#9EA19E"/>
<path d="M373.094 100.032H371.779V115.841H373.094V100.032Z" fill="#9EA19E"/>
<path d="M363.018 106.344H370.787V101.862H363.018V106.344Z" fill="#9EA19E"/>
<path d="M360.152 112.152H370.787V107.67H360.152V112.152Z" fill="#9EA19E"/>
<path d="M343.969 100.032H342.654V115.841H343.969V100.032Z" fill="#9EA19E"/>
<path d="M348.033 101.861H338.59V106.343H348.033V101.861Z" fill="#9EA19E"/>
<path d="M349.775 107.67H336.848V112.152H349.775V107.67Z" fill="#9EA19E"/>
<path d="M420.18 107.279H404.334V108.594H420.18V107.279Z" fill="#9EA19E"/>
<path d="M418.346 112.648V103.227H413.853V112.648H418.346Z" fill="#9EA19E"/>
<path d="M412.523 114.386V101.488H408.031V114.386H412.523Z" fill="#9EA19E"/>
<path d="M397.199 100.021H381.354V101.337H397.199V100.021Z" fill="#9EA19E"/>
<path d="M394.434 111.716V102.295H389.941V111.716H394.434Z" fill="#9EA19E"/>
<path d="M388.611 115.192V102.295H384.119V115.192H388.611Z" fill="#9EA19E"/>
<path d="M443.162 114.535H427.316V115.85H443.162V114.535Z" fill="#9EA19E"/>
<path d="M435.904 104.156V113.577H440.397V104.156H435.904Z" fill="#9EA19E"/>
<path d="M430.082 100.68V113.577H434.575V100.68H430.082Z" fill="#9EA19E"/>
<path d="M330.702 147.509L331.136 144.17C331.136 144.17 348.373 136.539 379.696 136.539C411.019 136.539 426.205 144.17 426.205 144.17C426.205 144.17 431.067 185.168 378.549 185.107C330.069 185.051 330.702 147.509 330.702 147.509Z" fill="#232423"/>
<path d="M378.665 185.648H378.546C361.942 185.628 349.236 181.253 340.779 172.641C330.048 161.717 330.158 147.64 330.16 147.5L330.6 144.102C330.623 143.917 330.743 143.754 330.916 143.678C331.089 143.603 348.617 136 379.694 136C410.785 136 426.292 143.613 426.444 143.691C426.608 143.772 426.717 143.929 426.737 144.108C426.756 144.264 428.456 159.794 417.849 171.729C409.644 180.964 396.46 185.648 378.665 185.648ZM331.628 144.548L331.234 147.579C331.237 147.654 331.143 161.303 341.56 171.896C349.807 180.286 362.253 184.548 378.549 184.568H378.665C396.14 184.568 409.05 180.008 417.042 171.012C426.537 160.328 425.867 146.689 425.694 144.53C423.533 143.54 408.29 137.078 379.694 137.078C350.983 137.079 333.968 143.594 331.628 144.548Z" fill="#232423"/>
<path d="M494.474 168.592C482.549 159.873 448.874 152.153 433.174 147.874C429.322 146.824 426.348 144.208 426.345 144.171C424.585 155.919 419.022 165.622 409.227 172.98C401.083 179.098 367.037 187.833 348.251 172.98C338.641 165.385 332.895 155.919 331.135 144.171C331.133 144.208 328.158 146.824 324.305 147.874C308.607 152.153 274.931 159.873 263.006 168.592C242.341 183.707 225.896 229.449 213.82 254.873C221.491 262.696 242.697 281.539 271.396 284.359L282.632 251.224C282.632 251.224 282.804 414.75 282.733 441.108H282.804C282.804 444.693 325.774 447.598 378.782 447.598C431.789 447.598 474.759 444.694 474.759 441.108C474.759 441.089 474.749 441.069 474.748 441.047C474.676 414.508 474.848 251.224 474.848 251.224L486.084 284.359C514.782 281.538 535.988 262.696 543.658 254.873C531.583 229.449 515.138 183.707 494.474 168.592Z" fill="#FF6A00"/>
<path d="M373.644 185.037C373.644 185.037 426.509 188.423 434.75 148.301C434.207 148.155 433.68 148.015 433.173 147.875C429.321 146.825 426.347 144.209 426.344 144.172C424.584 155.92 419.021 165.623 409.226 172.981C401.082 179.099 367.036 187.834 348.25 172.981C338.64 165.386 332.894 155.92 331.134 144.172C331.132 144.209 328.157 146.825 324.304 147.875C323.891 147.989 323.459 148.105 323.021 148.221C327.436 162.297 339.729 183.947 373.644 185.037Z" fill="#D2F234"/>
<path opacity="0.5" d="M421.368 233.921C421.378 233.232 420.7 231.696 420.555 231.329C419.328 228.21 416.875 226.167 414.3 224.342C412.77 223.257 411.265 222.134 409.371 221.943C407.127 221.72 404.87 222.531 402.908 223.622C398.442 226.11 393.814 228.609 390.147 232.354C389.171 233.343 388.288 234.412 387.497 235.569C387.279 235.886 386.979 236.644 386.545 236.69C386.038 236.736 385.52 235.746 385.232 235.407C384.976 235.102 384.707 234.834 384.389 234.805C384.378 234.805 384.374 234.805 384.364 234.805C384.321 234.804 384.274 234.804 384.231 234.809C384.212 234.813 384.19 234.82 384.171 234.828C384.13 234.837 384.098 234.846 384.062 234.863C384 234.886 383.941 234.921 383.879 234.97C383.155 235.515 383.604 237.015 383.729 237.724C384.275 240.885 385.924 248.972 390.507 247.675C393.175 246.919 394.8 244.029 396.906 242.343C399.067 240.62 401.305 238.998 403.642 237.553C408.42 234.615 413.588 231.6 419.241 233.443C419.646 233.574 420.875 234.442 421.239 234.23C421.269 234.211 421.301 234.173 421.322 234.13C421.343 234.078 421.362 234.008 421.368 233.921Z" fill="#0B0C0B"/>
<path opacity="0.5" d="M375.193 246.884C374.041 244.61 372.328 241.978 370.268 240.553C365.313 237.131 359.291 239.09 355.68 243.54C354.358 245.182 353.163 246.995 352.37 248.986C351.71 250.633 350.85 253.324 351.396 255.118C351.465 255.341 351.655 255.481 351.852 255.489C351.906 255.491 351.963 255.48 352.015 255.463C352.03 255.46 352.041 255.452 352.05 255.449C352.108 255.427 352.159 255.393 352.208 255.35C352.896 254.667 353.333 253.699 353.999 252.978C354.646 252.268 355.448 251.697 356.289 251.259C360.523 249.047 365.744 249.702 369.27 252.991C370.201 253.861 371.153 255.202 372.241 255.843C375.166 257.566 375.411 251.674 375.764 250.008C375.797 249.865 375.817 249.729 375.832 249.602C375.972 248.52 375.67 247.84 375.193 246.884Z" fill="#0B0C0B"/>
<path opacity="0.5" d="M382.053 249.936C380.195 248.986 379.148 245.932 378.976 243.92C378.904 243.044 379.095 242.101 379.158 241.224C379.169 241.05 379.2 240.872 379.237 240.703C379.262 240.594 379.287 240.486 379.32 240.378C379.346 240.301 379.362 240.225 379.388 240.145C379.464 239.868 379.543 239.592 379.585 239.304C379.688 239.049 379.808 238.803 379.939 238.572C380.023 238.425 379.839 238.278 379.721 238.39C377.51 240.61 377.617 244.611 378.659 247.426C379.091 248.602 379.612 249.974 380.591 250.762C380.903 251.017 381.251 251.215 381.563 251.217C381.605 251.217 381.646 251.214 381.687 251.209C381.719 251.201 381.745 251.194 381.767 251.188C381.819 251.17 381.87 251.149 381.911 251.12C381.93 251.108 381.937 251.096 381.953 251.086C382.001 251.045 382.053 250.998 382.095 250.932C382.104 250.927 382.104 250.914 382.114 250.908C382.161 250.836 382.208 250.751 382.243 250.645C382.27 250.583 382.276 250.527 382.27 250.471C382.308 250.261 382.244 250.034 382.053 249.936Z" fill="#0B0C0B"/>
<path d="M420.667 233.186C420.682 232.539 420.009 231.095 419.865 230.75C418.653 227.821 416.221 225.906 413.678 224.193C412.158 223.175 410.669 222.12 408.795 221.942C406.571 221.734 404.334 222.491 402.398 223.515C397.969 225.852 393.388 228.201 389.756 231.712C388.799 232.644 387.919 233.646 387.132 234.729C386.921 235.031 386.629 235.742 386.197 235.781C385.696 235.826 385.177 234.899 384.894 234.581C384.516 234.15 384.092 233.782 383.552 234.168C382.834 234.679 383.283 236.087 383.408 236.754C383.948 239.721 385.582 247.309 390.115 246.096C392.761 245.386 394.364 242.673 396.454 241.09C398.593 239.474 400.807 237.951 403.128 236.593C407.847 233.831 412.969 231.007 418.558 232.734C418.965 232.862 420.181 233.675 420.541 233.477C420.625 233.432 420.66 233.326 420.667 233.186Z" fill="#232423"/>
<path d="M374.953 245.352C373.818 243.22 372.121 240.747 370.077 239.407C365.173 236.197 359.211 238.038 355.642 242.218C354.326 243.758 353.145 245.457 352.357 247.326C351.709 248.872 350.855 251.4 351.396 253.08C351.505 253.425 351.923 253.552 352.197 253.3C352.878 252.661 353.314 251.751 353.966 251.073C354.612 250.406 355.409 249.871 356.237 249.46C360.438 247.384 365.603 248 369.089 251.086C370.015 251.901 370.957 253.161 372.029 253.76C374.922 255.378 375.172 249.849 375.522 248.282C375.802 247.031 375.485 246.356 374.953 245.352Z" fill="#232423"/>
<path d="M381.746 248.218C379.905 247.326 378.873 244.457 378.703 242.569C378.631 241.747 378.817 240.865 378.88 240.038C378.922 239.416 379.217 238.844 379.3 238.241C379.41 237.998 379.53 237.766 379.656 237.55C379.738 237.411 379.557 237.269 379.437 237.38C377.251 239.462 377.361 243.215 378.39 245.862C378.817 246.964 379.327 248.253 380.295 248.994C380.887 249.449 381.607 249.724 381.939 248.882C381.96 248.826 381.971 248.771 381.965 248.715C382.002 248.523 381.934 248.309 381.746 248.218Z" fill="#232423"/>
<path opacity="0.4" d="M381.746 248.217C379.904 247.326 378.873 244.456 378.702 242.569C378.631 241.747 378.817 240.865 378.879 240.038C378.899 239.69 379.005 239.358 379.102 239.026C378.301 240.617 377.942 242.257 378.42 244.351C378.868 246.308 380.086 247.326 381.038 248.958C381.122 249.099 381.16 249.254 381.153 249.412C381.478 249.455 381.761 249.33 381.938 248.881C381.959 248.825 381.97 248.77 381.965 248.714C382.002 248.523 381.934 248.309 381.746 248.217Z" fill="#232423"/>
<path d="M381.173 347.608C381.173 347.608 388.778 336.431 392.32 335.207C395.866 333.981 404.521 335.889 412.124 341.476C419.733 347.064 426.423 355.463 431.14 362.912C435.867 370.364 439.183 371.813 441.901 370.543C444.607 369.271 445.568 365.275 443.821 364.003C442.072 362.729 439.536 364.82 440.589 366.366C440.589 366.366 438.314 364.728 439.453 362.551C440.589 360.37 444.517 359.732 447.236 362.187C449.941 364.637 453.703 376.717 444.169 384.895C434.644 393.072 421.523 384.715 416.543 380.809C411.557 376.903 402.466 367.361 397.915 362.73C393.372 358.099 388.476 355.649 386.555 357.644C384.627 359.643 382.969 361.914 381.042 359.369C379.117 356.827 379.204 357.918 377.722 359.733C376.233 361.55 375.62 360.099 374.312 359.733C373.001 359.369 371.772 361.095 368.979 365.276C366.177 369.455 359.797 379.627 348.778 386.439C337.76 393.254 325.253 391.164 317.823 387.712C310.394 384.261 305.934 377.811 306.632 369.09C307.331 360.371 316.512 357.735 319.397 358.464C322.28 359.189 324.119 360.826 324.206 363.641C324.294 366.453 321.67 368.363 319.397 367.183C319.397 367.183 322.108 366.546 322.02 365.003C321.933 363.458 320.271 362.37 318.086 363.279C315.898 364.183 313.904 367.536 316.599 371.636C319.047 375.357 325.17 373.998 330.501 366.546C335.837 359.1 344.493 347.201 351.575 342.929C358.656 338.663 364.15 337.875 370.55 342.841C377.809 348.47 379.295 350.56 381.173 347.608Z" fill="#0B0C0B"/>
<path d="M381.173 344.77C381.173 344.77 388.778 334.012 392.32 332.828C395.866 331.651 404.521 333.487 412.124 338.868C419.733 344.244 426.423 352.329 431.14 359.502C435.867 366.673 439.183 368.07 441.901 366.846C444.607 365.623 445.568 361.774 443.821 360.553C442.072 359.326 439.536 361.339 440.589 362.824C440.589 362.824 438.314 361.252 439.453 359.153C440.589 357.052 444.517 356.44 447.236 358.802C449.941 361.161 453.703 372.792 444.169 380.661C434.644 388.531 421.523 380.488 416.543 376.727C411.557 372.968 402.466 363.787 397.915 359.326C393.372 354.868 388.476 352.509 386.555 354.43C384.627 356.352 382.969 358.539 381.042 356.093C379.117 353.642 379.204 354.692 377.722 356.44C376.233 358.194 375.62 356.79 374.312 356.44C373.001 356.093 371.772 357.752 368.979 361.774C366.177 365.796 359.797 375.59 348.778 382.149C337.76 388.705 325.253 386.692 317.823 383.374C310.394 380.048 305.934 373.844 306.632 365.449C307.331 357.052 316.512 354.518 319.397 355.218C322.28 355.918 324.119 357.489 324.206 360.203C324.294 362.911 321.67 364.749 319.397 363.612C319.397 363.612 322.108 362.999 322.02 361.513C321.933 360.027 320.271 358.976 318.086 359.852C315.898 360.726 313.904 363.952 316.599 367.896C319.047 371.481 325.17 370.169 330.501 362.999C335.837 355.831 344.493 344.374 351.575 340.264C358.656 336.155 364.15 335.4 370.55 340.177C377.809 345.599 379.295 347.607 381.173 344.77Z" fill="#D2F234"/>
<path opacity="0.3" d="M429.535 318.425C437.632 307.913 434.902 293.841 431.123 282.024C428.651 274.292 425.376 266.19 419.178 260.745C414.264 256.428 407.021 251.895 400.218 253.204C396.513 253.921 392.223 256.61 389.714 259.444C382.808 267.254 380.041 278.842 378.347 275.3C378.238 275.066 372.68 265.551 360.14 270.385C344.743 276.329 336.531 294.951 334.614 310.433C334.145 314.182 333.343 321.691 337.92 323.472C335.494 322.527 334.801 322.335 332.255 323.151C331.496 323.391 339.635 325.604 342.792 328.064C345.771 330.384 350.007 336.384 350.218 336.486C351.654 337.158 350.929 334.974 349.896 333.38C349.249 332.384 347.931 330.54 348.26 330.642C354.206 332.497 358.901 332.474 364.601 329.857C371.759 326.574 376.526 320.144 378.956 312.769C380.279 308.753 381.73 307.739 384.551 314.679C388.653 324.782 397.826 330.725 408.832 329.629C412.662 329.249 414.781 329.368 417.56 327.092C417.633 327.032 416.601 327.963 415.826 329.629C415.13 331.118 422.447 324.445 423.976 323.325C426.75 321.302 433.038 317.472 433.172 317.371C435.265 315.807 428.936 319.191 429.535 318.425Z" fill="#0B0C0B"/>
<path d="M429.387 281.054C428.903 279.548 428.377 278.056 427.821 276.561C424.151 266.778 418.35 256.845 407.502 253.899C404.921 253.196 401.652 252.94 399.018 253.538C389.057 255.805 384.181 264.75 382.072 273.939C379.902 283.397 378.909 293.415 381.104 302.957C383.062 311.448 386.944 321.362 395.48 325.251C397.701 326.262 400.408 326.942 402.853 327.098C411.529 327.661 421.939 325.048 427.31 317.644C430.631 313.066 432.493 307.616 432.666 301.965C432.88 294.73 431.563 287.83 429.387 281.054Z" fill="url(#paint1_radial_7217_2379)"/>
<path d="M418.003 308.322C409.88 311.864 400.559 312.992 392.965 307.375C385.844 302.101 381.38 294.437 380.447 285.619C380.385 285.069 380.348 284.517 380.328 283.955C379.603 290.302 379.671 296.728 381.103 302.956C383.061 311.447 386.943 321.361 395.479 325.249C397.7 326.261 400.407 326.94 402.852 327.096C411.529 327.66 421.938 325.047 427.31 317.643C430.63 313.064 432.492 307.615 432.665 301.964C432.749 299.112 432.587 296.314 432.238 293.557C429.423 299.911 424.426 305.522 418.003 308.322Z" fill="url(#paint2_radial_7217_2379)"/>
<path opacity="0.5" d="M429.387 281.054C428.903 279.548 428.377 278.056 427.821 276.561C424.151 266.778 418.35 256.845 407.502 253.899C404.921 253.196 401.652 252.94 399.018 253.538C389.057 255.805 384.181 264.75 382.072 273.939C379.902 283.397 378.909 293.415 381.104 302.957C383.062 311.448 386.944 321.362 395.48 325.251C397.701 326.262 400.408 326.942 402.853 327.098C411.529 327.661 421.939 325.048 427.31 317.644C430.631 313.066 432.493 307.616 432.666 301.965C432.88 294.73 431.563 287.83 429.387 281.054ZM424.434 312.121C421.629 314.907 418.031 316.23 414.3 316.391C411.439 319.328 406.816 320.772 402.408 319.674C397.313 318.4 391.942 315.901 388.386 312.319C382.323 306.215 378.946 296.462 383.4 288.824C384.617 286.743 386.502 284.372 388.532 282.857C390.297 281.537 392.196 280.393 394.221 279.455C394.778 278.576 395.438 277.712 396.218 276.86C397.151 275.849 398.316 274.96 399.623 274.206C399.77 274.067 399.903 273.918 400.055 273.784C402.477 271.624 405.391 270.346 408.866 270.346C411.406 270.346 413.961 271.134 415.991 272.517C425.579 276.021 431.084 286.068 431.262 295.071C431.382 301.052 428.967 307.625 424.434 312.121Z" fill="url(#paint3_radial_7217_2379)"/>
<path d="M378.719 280.83C377.221 275.002 374.613 270.441 368.404 268.943C365.754 268.306 363.044 268.845 360.539 269.807C355.427 271.775 350.63 275.192 347.387 279.626C341.999 286.998 338.304 296.553 336.524 305.472C335.447 310.884 334.865 317.391 338.478 322.015C340.61 324.756 343.592 326.978 346.923 328.014C351.681 329.489 357.269 329.897 362.061 328.385C375.925 324.014 380.579 307.587 380.488 294.608C380.458 289.965 379.875 285.325 378.719 280.83Z" fill="url(#paint4_radial_7217_2379)"/>
<path d="M379.413 283.889C379.113 288.52 378.459 293.354 376.909 297.645C374.577 304.114 370.434 310.331 364.005 313.341C360.352 315.052 356.34 315.826 352.445 315.34C348.313 315.446 344.873 314.224 341.339 311.444C339.331 309.862 337.641 307.524 336.612 305.184C336.605 305.173 336.598 305.16 336.592 305.146C336.572 305.254 336.546 305.364 336.524 305.471C335.447 310.883 334.865 317.39 338.478 322.014C340.61 324.755 343.592 326.978 346.923 328.014C351.681 329.488 357.269 329.896 362.061 328.384C375.925 324.013 380.579 307.586 380.488 294.607C380.465 291.009 380.105 287.418 379.413 283.889Z" fill="url(#paint5_radial_7217_2379)"/>
<path opacity="0.5" d="M378.719 280.83C377.221 275.002 374.613 270.441 368.404 268.943C365.754 268.306 363.044 268.845 360.539 269.807C355.427 271.775 350.63 275.192 347.387 279.626C341.999 286.998 338.304 296.553 336.524 305.472C335.447 310.884 334.865 317.391 338.478 322.015C340.61 324.756 343.592 326.978 346.923 328.014C351.681 329.489 357.269 329.897 362.061 328.385C375.925 324.014 380.579 307.587 380.488 294.608C380.458 289.965 379.875 285.325 378.719 280.83ZM371.143 317.297C365.246 323.896 356.157 326.678 347.652 323.061C339.011 319.388 337.283 308.588 338.88 300.745C340.813 291.226 348.154 284.25 357.408 280.82C360.85 279.548 364.597 280.529 367.465 282.619C373.89 285.18 378.26 291.086 378.884 298.094C379.516 305.096 375.778 312.107 371.143 317.297Z" fill="url(#paint6_radial_7217_2379)"/>
<path d="M397.664 278.178C402.297 275.908 407.189 273.963 412.201 272.722C416.832 271.572 421.417 271.719 426.056 272.269C422.34 264.015 416.755 256.413 407.502 253.899C404.921 253.196 401.651 252.94 399.017 253.538C389.056 255.805 384.18 264.75 382.071 273.939C380.704 279.899 379.807 286.078 379.879 292.221C384.476 286.175 390.837 281.517 397.664 278.178Z" fill="#0B0C0B"/>
<path opacity="0.3" d="M385.013 279.29C380.75 276.526 383.856 268.464 385.548 265.15C386.921 262.467 388.661 260.054 390.622 257.837C386.094 261.836 383.47 267.835 382.071 273.939C380.704 279.899 379.807 286.078 379.879 292.221C384.236 286.498 390.165 282.017 396.582 278.722C392.667 280.102 388.124 281.307 385.013 279.29Z" fill="#0B0C0B"/>
<path d="M350.509 283.746C355.152 282.384 360.613 282.149 365.311 283.377C371.933 285.114 377.179 289.36 380.487 295.003C380.487 294.872 380.487 294.736 380.487 294.608C380.458 289.964 379.875 285.324 378.718 280.829C377.22 275.001 374.612 270.44 368.403 268.942C365.753 268.305 363.042 268.844 360.538 269.806C355.426 271.774 350.629 275.191 347.386 279.626C345.064 282.803 343.058 286.388 341.383 290.155C344 287.394 346.816 284.833 350.509 283.746Z" fill="#0B0C0B"/>
<path opacity="0.3" d="M378.721 280.83C377.624 276.56 375.927 272.974 372.654 270.77C372.748 270.88 372.851 270.976 372.941 271.088C375.116 273.808 377.935 278.768 376.583 282.355C375.584 285.005 373.361 285.755 370.75 285.527C374.836 287.726 378.15 291.009 380.491 295.003C380.491 294.873 380.491 294.736 380.491 294.608C380.459 289.965 379.877 285.325 378.721 280.83Z" fill="#0B0C0B"/>
<path d="M394.943 307.152C396.092 316.365 402.26 322.848 408.709 321.608C415.162 320.37 419.452 311.885 418.306 302.662C417.157 293.442 410.993 286.97 404.547 288.215C398.092 289.447 393.797 297.93 394.943 307.152Z" fill="#0B0C0B"/>
<path d="M400.206 306.09C400.814 310.768 404.163 314.031 407.685 313.381C411.208 312.733 413.582 308.409 412.978 303.733C412.38 299.056 409.031 295.795 405.504 296.441C401.981 297.09 399.607 301.409 400.206 306.09Z" fill="#232423"/>
<path d="M401.783 305.795C402.236 309.32 404.761 311.784 407.415 311.297C410.069 310.799 411.849 307.548 411.403 304.022C410.95 300.501 408.432 298.042 405.77 298.528C403.119 299.017 401.339 302.273 401.783 305.795Z" fill="#696B69"/>
<path d="M404.983 294.037C404.968 294.011 404.963 293.991 404.941 293.967C404.692 293.291 404.213 292.876 403.641 292.704C403.365 292.609 403.067 292.588 402.772 292.62C402.402 292.642 402.023 292.731 401.653 292.9C401.064 293.163 400.492 293.611 400.002 294.16C399.628 294.528 399.283 294.924 399.045 295.291C397.853 297.061 397.109 300.528 399.494 301.679C401.939 302.869 403.932 299.514 404.589 297.689C404.847 296.974 405.088 296.137 405.135 295.319C405.181 294.846 405.156 294.401 404.983 294.037Z" fill="white"/>
<path d="M400.049 304.286C399.758 304.006 399.346 304.044 398.987 304.209C398.753 304.223 398.513 304.304 398.311 304.464C397.755 304.915 397.53 305.727 397.499 306.422C397.478 307.288 398.072 308.262 399.055 308.039C400.521 307.706 401.089 305.283 400.049 304.286Z" fill="white"/>
<path d="M349.061 310.004C348.404 319.265 353.201 326.819 359.768 326.851C366.339 326.886 372.19 319.392 372.852 310.122C373.509 300.854 368.715 293.311 362.15 293.284C355.579 293.243 349.723 300.734 349.061 310.004Z" fill="#0B0C0B"/>
<path d="M354.429 309.98C354.12 314.688 356.774 318.538 360.356 318.581C363.937 318.628 367.104 314.846 367.416 310.141C367.736 305.437 365.081 301.589 361.496 301.54C357.914 301.494 354.749 305.272 354.429 309.98Z" fill="#232423"/>
<path d="M356.032 309.997C355.794 313.543 357.795 316.449 360.493 316.485C363.193 316.511 365.569 313.665 365.814 310.12C366.051 306.578 364.057 303.678 361.351 303.639C358.656 303.606 356.279 306.455 356.032 309.997Z" fill="#696B69"/>
<path d="M361.452 299.08C361.441 299.052 361.441 299.031 361.424 299.003C361.31 298.291 360.92 297.792 360.393 297.512C360.14 297.366 359.853 297.287 359.557 297.262C359.19 297.211 358.8 297.226 358.404 297.319C357.775 297.463 357.128 297.791 356.541 298.236C356.102 298.524 355.688 298.846 355.383 299.16C353.871 300.666 352.469 303.923 354.586 305.514C356.755 307.155 359.36 304.249 360.357 302.586C360.749 301.935 361.148 301.161 361.352 300.367C361.488 299.912 361.55 299.47 361.452 299.08Z" fill="white"/>
<path d="M354.627 308.18C354.396 307.849 353.984 307.806 353.6 307.899C353.367 307.868 353.117 307.901 352.887 308.018C352.255 308.354 351.876 309.107 351.711 309.782C351.524 310.628 351.918 311.698 352.925 311.669C354.428 311.627 355.454 309.36 354.627 308.18Z" fill="white"/>
<path d="M426.48 310.971C421.139 314.357 414.713 315.746 408.522 316.605C402.878 317.389 397.11 317.468 391.604 315.765C389.011 314.963 386.565 313.881 384.213 312.61C386.58 317.973 390.11 322.8 395.481 325.25C397.703 326.261 400.409 326.941 402.855 327.097C411.531 327.661 421.941 325.047 427.312 317.644C430.233 313.623 432.022 308.924 432.527 304.011C431.1 306.701 429.355 309.153 426.48 310.971Z" fill="#0B0C0B"/>
<path d="M353.006 320.745C348.336 321.246 342.437 321.518 338.196 319.068C337.497 318.663 336.882 318.206 336.344 317.703C336.776 319.247 337.455 320.708 338.479 322.015C340.611 324.757 343.593 326.979 346.924 328.015C351.682 329.489 357.27 329.898 362.062 328.386C370.426 325.75 375.438 318.718 378.07 310.709C370.805 316.184 361.891 319.793 353.006 320.745Z" fill="#0B0C0B"/>
<path opacity="0.3" d="M403.046 324.07C398.34 322.765 394.104 320.514 392.278 315.959C392.05 315.897 391.825 315.834 391.602 315.764C389.009 314.962 386.564 313.88 384.211 312.609C386.578 317.972 390.108 322.8 395.479 325.25C397.701 326.261 400.407 326.941 402.853 327.097C411.124 327.633 420.955 325.273 426.519 318.637C420.083 323.924 411.245 326.345 403.046 324.07Z" fill="#0B0C0B"/>
<path opacity="0.3" d="M372.089 314.584C369.447 321.097 362.122 326.265 355.231 327.458C350.219 328.323 345.297 327.315 341.049 324.514C340.751 324.318 340.457 324.109 340.164 323.896C342.071 325.758 344.394 327.227 346.923 328.015C351.681 329.489 357.269 329.898 362.06 328.386C370.425 325.75 375.436 318.718 378.069 310.709C376.18 312.135 374.177 313.425 372.089 314.584Z" fill="#0B0C0B"/>
<path d="M389.963 282.732C389.963 282.732 390.423 282.381 391.27 281.81C392.114 281.251 393.327 280.451 394.835 279.577C396.347 278.712 398.131 277.725 400.097 276.794C401.091 276.333 402.118 275.863 403.177 275.429C404.23 274.982 405.317 274.567 406.415 274.177C407.512 273.792 408.628 273.452 409.731 273.141C410.834 272.839 411.931 272.57 413.003 272.352C415.143 271.919 417.184 271.716 418.926 271.652C419.365 271.648 419.785 271.641 420.186 271.635C420.582 271.652 420.957 271.671 421.311 271.687C422.023 271.712 422.639 271.806 423.138 271.848C423.642 271.915 424.037 271.995 424.302 272.038C424.574 272.083 424.713 272.104 424.713 272.104C424.713 272.104 424.142 272.051 423.127 271.949C422.627 271.935 422.007 271.869 421.305 271.879C420.957 271.885 420.582 271.885 420.186 271.889C419.789 271.909 419.373 271.928 418.942 271.949C418.078 272.009 417.146 272.096 416.168 272.245C415.184 272.383 414.153 272.579 413.097 272.8C412.04 273.025 410.958 273.3 409.859 273.612C408.773 273.928 407.673 274.282 406.586 274.668C405.497 275.048 404.412 275.444 403.36 275.879C402.303 276.303 401.277 276.758 400.288 277.202C399.309 277.665 398.357 278.102 397.468 278.547C396.577 278.983 395.744 279.425 394.98 279.834C393.45 280.661 392.191 281.372 391.322 281.896C390.453 282.419 389.963 282.732 389.963 282.732Z" fill="#0B0C0B"/>
<path d="M348.121 284.698C348.121 284.698 348.47 284.501 349.124 284.237C349.444 284.1 349.849 283.953 350.307 283.784C350.776 283.634 351.296 283.438 351.881 283.298C352.461 283.128 353.101 282.989 353.784 282.85C354.46 282.702 355.184 282.609 355.937 282.514C356.311 282.483 356.697 282.45 357.084 282.422C357.276 282.408 357.476 282.394 357.668 282.381C357.87 282.377 358.067 282.377 358.264 282.37C358.663 282.366 359.066 282.366 359.468 282.362C359.867 282.37 360.269 282.408 360.675 282.429C361.078 282.471 361.485 282.474 361.88 282.549C362.279 282.611 362.674 282.678 363.066 282.741C363.861 282.839 364.61 283.083 365.345 283.259C366.094 283.409 366.76 283.728 367.417 283.955C367.739 284.086 368.061 284.176 368.354 284.326C368.649 284.471 368.929 284.607 369.202 284.74C369.738 285.013 370.249 285.232 370.66 285.501C371.069 285.769 371.429 285.999 371.726 286.188C372.313 286.573 372.645 286.793 372.645 286.793C372.645 286.793 372.293 286.605 371.674 286.276C371.367 286.108 370.997 285.905 370.57 285.674C370.358 285.548 370.117 285.456 369.867 285.349C369.617 285.242 369.353 285.129 369.076 285.009C368.805 284.889 368.52 284.764 368.218 284.638C367.931 284.508 367.603 284.427 367.281 284.313C366.958 284.211 366.624 284.102 366.287 283.989C366.114 283.937 365.943 283.871 365.766 283.825C365.589 283.783 365.406 283.74 365.228 283.699C364.5 283.539 363.764 283.307 362.985 283.223C362.597 283.167 362.21 283.106 361.821 283.05C361.431 282.985 361.031 282.989 360.638 282.95C360.244 282.926 359.848 282.88 359.452 282.866C359.057 282.863 358.664 282.863 358.278 282.859C358.077 282.859 357.884 282.859 357.687 282.856C357.495 282.866 357.305 282.88 357.114 282.894C356.729 282.919 356.356 282.94 355.982 282.966C355.244 283.061 354.526 283.107 353.847 283.228C353.173 283.333 352.538 283.441 351.955 283.584C350.787 283.84 349.825 284.11 349.161 284.33C348.489 284.542 348.121 284.698 348.121 284.698Z" fill="#0B0C0B"/>
<path d="M341.299 320.371C341.299 320.371 341.74 320.44 342.512 320.524C342.901 320.556 343.37 320.617 343.904 320.64C344.448 320.678 345.056 320.7 345.722 320.721C346.384 320.752 347.106 320.738 347.869 320.738C348.625 320.703 349.427 320.701 350.254 320.638C350.671 320.61 351.093 320.585 351.516 320.557C351.941 320.516 352.37 320.47 352.805 320.424C353.672 320.351 354.544 320.192 355.418 320.067C356.298 319.952 357.157 319.755 358.015 319.603C358.869 319.43 359.696 319.211 360.504 319.019C361.311 318.817 362.074 318.572 362.813 318.373C363.551 318.183 364.22 317.918 364.851 317.706C365.475 317.477 366.064 317.318 366.564 317.105C367.067 316.905 367.505 316.731 367.871 316.588C368.593 316.306 369.009 316.146 369.009 316.146C369.009 316.146 368.608 316.339 367.912 316.682C367.558 316.849 367.131 317.051 366.636 317.287C366.158 317.536 365.572 317.735 364.951 317.988C364.33 318.222 363.662 318.516 362.928 318.736C362.2 318.968 361.434 319.252 360.623 319.459C359.81 319.659 358.978 319.897 358.118 320.085C357.257 320.247 356.386 320.46 355.501 320.586C354.612 320.702 353.732 320.848 352.852 320.91C352.415 320.95 351.985 320.991 351.551 321.029C351.118 321.051 350.696 321.071 350.28 321.093C349.444 321.152 348.632 321.118 347.861 321.12C347.099 321.088 346.374 321.075 345.706 321.019C345.033 320.973 344.425 320.91 343.891 320.833C343.352 320.773 342.879 320.682 342.501 320.626C341.73 320.489 341.299 320.371 341.299 320.371Z" fill="#CC7A0A"/>
<path d="M391.604 315.764C391.604 315.764 391.738 315.795 391.989 315.86C392.245 315.921 392.619 315.988 393.087 316.091C393.565 316.167 394.139 316.283 394.808 316.36C395.471 316.457 396.23 316.519 397.053 316.605C397.457 316.65 397.889 316.661 398.334 316.69C398.781 316.713 399.238 316.752 399.712 316.746C400.186 316.752 400.671 316.76 401.17 316.766C401.664 316.766 402.175 316.746 402.685 316.735C403.721 316.735 404.78 316.634 405.865 316.555C406.942 316.479 408.029 316.296 409.123 316.174C410.205 316 411.292 315.817 412.359 315.62C413.416 315.382 414.457 315.144 415.466 314.914C416.455 314.632 417.42 314.363 418.33 314.108C419.241 313.856 420.077 313.526 420.864 313.272C421.646 312.999 422.372 312.781 422.992 312.516C423.617 312.267 424.164 312.05 424.61 311.871C425.512 311.521 426.027 311.321 426.027 311.321C426.027 311.321 425.528 311.557 424.653 311.965C424.21 312.168 423.679 312.414 423.067 312.699C422.456 312.999 421.739 313.254 420.97 313.547C420.183 313.831 419.356 314.189 418.445 314.472C417.534 314.752 416.57 315.05 415.576 315.35C414.566 315.594 413.52 315.843 412.459 316.102C411.388 316.305 410.295 316.505 409.2 316.691C408.093 316.806 406.995 316.974 405.907 317.04C404.814 317.106 403.742 317.195 402.695 317.188C402.176 317.188 401.665 317.212 401.171 317.192C400.664 317.171 400.176 317.15 399.697 317.126C399.225 317.115 398.76 317.061 398.314 317.023C397.867 316.979 397.434 316.953 397.024 316.894C396.197 316.793 395.441 316.689 394.78 316.552C394.114 316.436 393.54 316.289 393.068 316.188C392.124 315.949 391.604 315.764 391.604 315.764Z" fill="#CC7A0A"/>
<path d="M378.071 310.71C378.071 310.71 377.961 311.33 377.644 312.387C377.477 312.916 377.265 313.549 376.988 314.266C376.712 314.987 376.38 315.792 375.946 316.64C375.537 317.498 375.02 318.394 374.438 319.314C373.841 320.231 373.175 321.176 372.389 322.083C371.603 322.986 370.754 323.897 369.78 324.702C368.821 325.532 367.761 326.256 366.659 326.918C366.085 327.215 365.533 327.552 364.942 327.789L364.062 328.179C363.767 328.284 363.464 328.387 363.166 328.5C362.576 328.732 361.968 328.879 361.363 329.03C360.77 329.208 360.161 329.271 359.572 329.39C358.386 329.572 357.225 329.656 356.131 329.645C355.58 329.667 355.053 329.634 354.539 329.596C354.026 329.548 353.531 329.544 353.059 329.457C352.122 329.327 351.257 329.209 350.511 329.012C349.757 328.838 349.105 328.701 348.579 328.53C347.525 328.21 346.926 328.018 346.926 328.018C346.926 328.018 347.551 328.12 348.624 328.33C349.158 328.453 349.826 328.525 350.577 328.626C351.325 328.749 352.186 328.781 353.116 328.858C353.577 328.911 354.063 328.879 354.562 328.893C354.811 328.896 355.066 328.899 355.329 328.899C355.582 328.904 355.846 328.875 356.112 328.86C357.17 328.819 358.28 328.679 359.415 328.479C360.55 328.263 361.699 327.962 362.83 327.545C363.114 327.441 363.396 327.335 363.679 327.23L364.509 326.851C365.071 326.621 365.595 326.292 366.136 326.012C367.187 325.389 368.212 324.715 369.134 323.925C370.071 323.164 370.922 322.331 371.701 321.476C372.48 320.621 373.172 319.739 373.796 318.883C374.4 318.004 374.963 317.168 375.421 316.358C376.369 314.747 377.035 313.335 377.451 312.322C377.659 311.815 377.825 311.416 377.931 311.14C378.024 310.857 378.071 310.71 378.071 310.71Z" fill="#0B0C0B"/>
<path d="M384.213 312.609C384.213 312.609 384.459 313.246 385.009 314.29C385.274 314.812 385.634 315.435 386.076 316.124C386.509 316.814 387.054 317.559 387.667 318.35C388.299 319.131 389.027 319.93 389.844 320.728C390.681 321.502 391.603 322.275 392.633 322.972C393.663 323.648 394.773 324.293 395.968 324.794C396.558 325.083 397.188 325.265 397.802 325.503C398.115 325.6 398.433 325.677 398.75 325.772C399.067 325.855 399.385 325.962 399.707 326.014C400.356 326.144 400.996 326.305 401.653 326.372L402.632 326.501C402.96 326.519 403.282 326.543 403.611 326.561C403.933 326.578 404.254 326.607 404.583 326.613C404.907 326.613 405.229 326.613 405.551 326.612C405.869 326.607 406.185 326.617 406.504 326.603C406.822 326.582 407.135 326.558 407.445 326.537C407.754 326.512 408.065 326.491 408.374 326.47C408.68 326.439 408.976 326.389 409.273 326.354C409.87 326.268 410.46 326.226 411.027 326.104C411.588 325.999 412.139 325.893 412.672 325.792C413.201 325.69 413.712 325.548 414.202 325.432C415.185 325.213 416.069 324.945 416.857 324.716C417.253 324.594 417.627 324.49 417.964 324.388C418.296 324.273 418.61 324.164 418.886 324.07C420.006 323.685 420.651 323.479 420.651 323.479C420.651 323.479 420.042 323.769 418.959 324.259C418.693 324.382 418.392 324.514 418.062 324.66C417.73 324.792 417.366 324.929 416.98 325.081C416.595 325.232 416.19 325.389 415.752 325.56C415.321 325.729 414.845 325.85 414.362 326.012C413.874 326.156 413.367 326.338 412.833 326.474C412.301 326.6 411.745 326.737 411.171 326.873C410.604 327.023 410.002 327.094 409.398 327.21C409.095 327.263 408.789 327.325 408.476 327.364C408.157 327.393 407.844 327.425 407.523 327.456C407.2 327.491 406.877 327.522 406.555 327.554C406.227 327.576 405.9 327.576 405.565 327.592C405.239 327.598 404.899 327.612 404.566 327.619C404.234 327.617 403.89 327.592 403.552 327.576C403.218 327.556 402.876 327.546 402.536 327.518C402.193 327.476 401.849 327.438 401.512 327.393C400.824 327.332 400.153 327.173 399.471 327.039C399.134 326.98 398.799 326.872 398.466 326.775C398.139 326.678 397.8 326.592 397.478 326.477C396.833 326.229 396.171 326.03 395.563 325.722C394.303 325.19 393.163 324.462 392.101 323.727C391.046 322.978 390.124 322.124 389.292 321.284C388.479 320.422 387.783 319.554 387.183 318.716C386.007 317.026 385.277 315.473 384.819 314.377C384.59 313.832 384.45 313.384 384.351 313.082C384.254 312.775 384.213 312.609 384.213 312.609Z" fill="#0B0C0B"/>
<path opacity="0.3" d="M432.292 317.062C429.019 317.353 425.844 319.444 423.262 321.33C420.493 323.356 417.75 325.545 415.673 328.296C415.59 328.405 415.757 328.508 415.85 328.435C417.037 327.473 418.072 326.345 419.281 325.418C420.742 324.293 422.2 323.153 423.689 322.071C426.38 320.118 429.356 318.722 432.369 317.37C432.521 317.307 432.449 317.049 432.292 317.062Z" fill="#0B0C0B"/>
<path opacity="0.3" d="M348.297 330.529C347.22 328.876 345.616 327.153 344.057 325.957C340.724 323.409 336.604 322.123 332.419 322.695C332.341 322.705 332.373 322.813 332.439 322.825C334.401 323.09 336.273 323.287 338.184 323.877C340.12 324.484 341.883 325.449 343.471 326.706C346.34 328.974 348.765 332.293 350.132 335.682C350.198 335.852 350.518 335.856 350.487 335.638C350.254 333.787 349.298 332.066 348.297 330.529Z" fill="#0B0C0B"/>
<path d="M379.991 287.501C379.991 287.501 379.711 286.358 379.279 284.643C379.17 284.214 379.045 283.757 378.921 283.271C378.785 282.784 378.645 282.277 378.493 281.749C378.187 280.701 377.852 279.588 377.451 278.503C377.258 277.956 377.056 277.418 376.838 276.896C376.608 276.374 376.396 275.857 376.151 275.377C375.911 274.897 375.666 274.44 375.417 274.012C375.162 273.592 374.906 273.2 374.652 272.854C374.527 272.675 374.396 272.521 374.271 272.367C374.15 272.21 374.032 272.067 373.908 271.941C373.673 271.674 373.45 271.465 373.267 271.289C373.081 271.106 372.913 270.992 372.809 270.9C372.706 270.81 372.646 270.764 372.646 270.764C372.646 270.764 372.714 270.795 372.84 270.852C372.965 270.915 373.168 270.977 373.388 271.122C373.617 271.251 373.893 271.412 374.178 271.646C374.48 271.859 374.797 272.14 375.111 272.462C375.433 272.787 375.754 273.158 376.068 273.579C376.381 273.995 376.687 274.447 376.968 274.944C377.251 275.435 377.526 275.948 377.765 276.491C378.004 277.029 378.229 277.585 378.441 278.147C378.634 278.716 378.816 279.288 378.978 279.854C379.149 280.414 379.265 280.981 379.39 281.527C379.628 282.617 379.779 283.649 379.872 284.537C380.058 286.309 379.991 287.501 379.991 287.501Z" fill="#0B0C0B"/>
<path d="M384.208 267.467C384.208 267.467 384.182 267.543 384.13 267.69C384.073 267.828 384.015 268.048 383.915 268.316C383.827 268.587 383.713 268.908 383.604 269.293C383.49 269.675 383.364 270.098 383.218 270.556C383.094 271.03 382.969 271.535 382.814 272.072C382.739 272.335 382.663 272.611 382.588 272.888C382.527 273.174 382.459 273.462 382.396 273.759C382.256 274.348 382.127 274.957 381.97 275.569C381.828 276.189 381.729 276.823 381.611 277.456C381.484 278.087 381.339 278.715 381.241 279.343C381.167 279.969 381.06 280.586 380.97 281.184C380.886 281.782 380.783 282.36 380.689 282.908C380.605 283.458 380.569 283.981 380.508 284.466C380.289 286.392 380.048 287.691 380.048 287.691C380.048 287.691 379.934 286.393 379.903 284.426C379.903 283.93 379.872 283.399 379.907 282.839C379.949 282.277 379.992 281.684 380.055 281.072C380.115 280.46 380.163 279.827 380.24 279.186C380.335 278.549 380.466 277.901 380.58 277.257C380.715 276.617 380.834 275.969 380.981 275.342C381.148 274.711 381.336 274.105 381.506 273.514C381.594 273.218 381.677 272.93 381.767 272.641C381.87 272.37 381.97 272.096 382.073 271.833C382.266 271.301 382.47 270.809 382.652 270.349C382.86 269.906 383.056 269.495 383.234 269.141C383.401 268.779 383.589 268.477 383.733 268.228C384.015 267.731 384.208 267.467 384.208 267.467Z" fill="#0B0C0B"/>
<path d="M147 267.986V147.014C147 141.484 151.484 137 157.014 137H215.143C220.674 137 225.157 141.484 225.157 147.014V267.986C225.157 273.516 220.674 278 215.143 278H157.014C151.484 278 147 273.516 147 267.986Z" fill="#00AAFF"/>
<path d="M214.388 259.368L206.649 251.647C207.851 250.204 208.507 248.405 208.507 246.504C208.507 244.35 207.666 242.325 206.14 240.802C202.989 237.659 197.864 237.659 194.713 240.802C193.186 242.325 192.346 244.35 192.346 246.504C192.346 248.658 193.186 250.684 194.713 252.207C196.288 253.779 198.357 254.565 200.426 254.565C202.259 254.565 204.091 253.945 205.58 252.712L213.323 260.436L214.388 259.368ZM195.778 251.139C194.538 249.901 193.854 248.255 193.854 246.504C193.854 244.753 194.538 243.108 195.778 241.87C197.06 240.591 198.743 239.952 200.426 239.952C202.11 239.952 203.793 240.591 205.074 241.87C206.315 243.108 206.999 244.754 206.999 246.504C206.999 248.255 206.315 249.901 205.074 251.139C202.512 253.696 198.341 253.696 195.778 251.139Z" fill="#0B0C0B"/>
<path d="M203.477 204.385C200.975 204.385 198.473 203.435 196.568 201.534C194.722 199.693 193.705 197.244 193.705 194.639C193.705 192.034 194.722 189.585 196.568 187.743C200.378 183.942 206.576 183.942 210.386 187.743C212.233 189.585 213.249 192.034 213.249 194.639C213.249 197.244 212.232 199.693 210.386 201.534C208.481 203.435 205.979 204.385 203.477 204.385ZM203.477 186.4C201.361 186.4 199.244 187.204 197.633 188.811C196.073 190.368 195.214 192.438 195.214 194.639C195.214 196.84 196.073 198.91 197.633 200.466C200.856 203.681 206.098 203.681 209.32 200.466C210.881 198.91 211.74 196.84 211.74 194.639C211.74 192.438 210.881 190.368 209.32 188.811C207.71 187.204 205.593 186.4 203.477 186.4Z" fill="#0B0C0B"/>
<path d="M210.148 214.366L195.736 228.745L196.802 229.813L211.214 215.434L210.148 214.366Z" fill="#0B0C0B"/>
<path d="M160.785 158.056L173.502 166.53L166.352 165.894C166.307 165.89 166.263 165.888 166.218 165.888C165.634 165.888 165.096 166.228 164.848 166.766L161.847 173.285L160.785 158.056ZM159.066 155.098L160.752 179.271L166.219 167.397L179.264 168.556L159.066 155.098Z" fill="#0B0C0B"/>
<path d="M193.379 155.098L195.064 179.271L200.531 167.397L213.576 168.557L193.379 155.098Z" fill="#0B0C0B"/>
<path d="M160.783 214.03V217.862H162.292V215.539H168.411V228.649H166.118V230.158H172.213V228.649H169.92V215.539H176.039V217.862H177.548V214.03H160.783Z" fill="#0B0C0B"/>
<path d="M172.177 190.886L157.766 205.266L158.831 206.333L173.243 191.954L172.177 190.886Z" fill="#0B0C0B"/>
<path d="M170.754 188.355C168.731 188.355 167.091 189.991 167.091 192.01C167.091 189.99 165.451 188.355 163.428 188.355C165.451 188.355 167.091 186.719 167.091 184.7C167.091 186.719 168.731 188.355 170.754 188.355Z" fill="#0B0C0B"/>
<path d="M177.952 186.239C176.426 186.239 175.189 187.473 175.189 188.996C175.189 187.473 173.952 186.239 172.426 186.239C173.952 186.239 175.189 185.005 175.189 183.482C175.189 185.005 176.426 186.239 177.952 186.239Z" fill="#0B0C0B"/>
<path d="M180.029 193.067C178.502 193.067 177.265 194.301 177.265 195.824C177.265 194.301 176.029 193.067 174.502 193.067C176.029 193.067 177.265 191.833 177.265 190.311C177.265 191.833 178.502 193.067 180.029 193.067Z" fill="#0B0C0B"/>
<path d="M178.793 239.956C178.135 239.298 177.067 239.297 176.407 239.954L174.51 241.844L173.807 241.142C173.149 240.484 172.081 240.484 171.422 241.141C170.874 241.686 170.788 242.51 171.148 243.151L159.209 255.046C158.616 255.636 158.289 256.422 158.289 257.258C158.288 258.094 158.614 258.88 159.206 259.472C159.817 260.082 160.62 260.387 161.423 260.387C162.225 260.387 163.027 260.083 163.637 259.475L175.579 247.578C176.222 247.939 177.048 247.854 177.595 247.309C178.254 246.652 178.255 245.586 177.597 244.928L176.894 244.226L178.792 242.336C179.451 241.68 179.452 240.614 178.793 239.956ZM162.572 258.406C161.938 259.039 160.906 259.038 160.272 258.405C159.965 258.098 159.797 257.692 159.797 257.259C159.798 256.827 159.967 256.42 160.274 256.115L172.166 244.268L174.462 246.562L162.572 258.406Z" fill="#0B0C0B"/>
<defs>
<linearGradient id="paint0_linear_7217_2379" x1="-46.2931" y1="244.977" x2="350.958" y2="730.874" gradientUnits="userSpaceOnUse">
<stop stop-color="#CDCDCD"/>
<stop offset="0.558995" stop-color="#636363"/>
<stop offset="1" stop-color="#313131"/>
</linearGradient>
<radialGradient id="paint1_radial_7217_2379" cx="0" cy="0" r="1" gradientUnits="userSpaceOnUse" gradientTransform="translate(406.281 290.188) scale(36.9331 36.9331)">
<stop stop-color="white"/>
<stop offset="0.2473" stop-color="#FCFCFC"/>
<stop offset="0.4578" stop-color="#F5F5F1"/>
<stop offset="0.6547" stop-color="#E7E7E0"/>
<stop offset="0.8422" stop-color="#D5D5C7"/>
<stop offset="1" stop-color="#C0C0AC"/>
</radialGradient>
<radialGradient id="paint2_radial_7217_2379" cx="0" cy="0" r="1" gradientUnits="userSpaceOnUse" gradientTransform="translate(406.282 290.187) scale(36.9325 36.9325)">
<stop stop-color="white"/>
<stop offset="0.2473" stop-color="#FCFCFC"/>
<stop offset="0.4578" stop-color="#F5F5F1"/>
<stop offset="0.6547" stop-color="#E7E7E0"/>
<stop offset="0.8422" stop-color="#D5D5C7"/>
<stop offset="1" stop-color="#C0C0AC"/>
</radialGradient>
<radialGradient id="paint3_radial_7217_2379" cx="0" cy="0" r="1" gradientUnits="userSpaceOnUse" gradientTransform="translate(406.281 290.188) scale(34.7289 31.0172)">
<stop stop-color="white"/>
<stop offset="0.2473" stop-color="#FCFCFC"/>
<stop offset="0.4578" stop-color="#F5F5F1"/>
<stop offset="0.6547" stop-color="#E7E7E0"/>
<stop offset="0.8422" stop-color="#D5D5C7"/>
<stop offset="1" stop-color="#C0C0AC"/>
</radialGradient>
<radialGradient id="paint4_radial_7217_2379" cx="0" cy="0" r="1" gradientUnits="userSpaceOnUse" gradientTransform="translate(358.096 299.003) scale(35.802 35.802)">
<stop stop-color="white"/>
<stop offset="0.2473" stop-color="#FCFCFC"/>
<stop offset="0.4578" stop-color="#F5F5F1"/>
<stop offset="0.6547" stop-color="#E7E7E0"/>
<stop offset="0.8422" stop-color="#D5D5C7"/>
<stop offset="1" stop-color="#C0C0AC"/>
</radialGradient>
<radialGradient id="paint5_radial_7217_2379" cx="0" cy="0" r="1" gradientUnits="userSpaceOnUse" gradientTransform="translate(358.097 299.002) scale(35.8021 35.8021)">
<stop stop-color="white"/>
<stop offset="0.2473" stop-color="#FCFCFC"/>
<stop offset="0.4578" stop-color="#F5F5F1"/>
<stop offset="0.6547" stop-color="#E7E7E0"/>
<stop offset="0.8422" stop-color="#D5D5C7"/>
<stop offset="1" stop-color="#C0C0AC"/>
</radialGradient>
<radialGradient id="paint6_radial_7217_2379" cx="0" cy="0" r="1" gradientUnits="userSpaceOnUse" gradientTransform="translate(358.096 299.003) scale(27.6099 26.1852)">
<stop stop-color="white"/>
<stop offset="0.2473" stop-color="#FCFCFC"/>
<stop offset="0.4578" stop-color="#F5F5F1"/>
<stop offset="0.6547" stop-color="#E7E7E0"/>
<stop offset="0.8422" stop-color="#D5D5C7"/>
<stop offset="1" stop-color="#C0C0AC"/>
</radialGradient>
<clipPath id="clip0_7217_2379">
<rect width="631" height="676" fill="white"/>
</clipPath>
<clipPath id="clip1_7217_2379">
<rect width="533" height="464" fill="white" transform="translate(112 60)"/>
</clipPath>
</defs>
</svg>
