<svg width="626" height="372" viewBox="0 0 626 372" fill="none" xmlns="http://www.w3.org/2000/svg">
<g clip-path="url(#clip0_7147_19285)">
<rect width="626" height="372" rx="24" fill="url(#paint0_linear_7147_19285)"/>
<g clip-path="url(#clip1_7147_19285)">
<mask id="mask0_7147_19285" style="mask-type:alpha" maskUnits="userSpaceOnUse" x="319" y="6" width="278" height="360">
<path d="M463.97 245.499C508.089 240.457 538.4 201.127 538.4 146.67C538.4 88.1799 503.711 47.1694 454.203 47.1694C404.695 47.1694 370.006 88.1799 370.006 146.67C370.006 208.186 402.675 243.818 488.218 275.416C550.187 298.611 597 316.091 597 365.169H549.85C549.85 348.361 520.887 338.949 461.612 315.755C360.913 276.425 319.488 222.641 319.488 146.67C319.488 64.6493 375.058 6.83118 454.203 6.83118C533.348 6.83118 588.918 64.6493 588.918 146.67C588.918 202.471 563.322 247.18 521.897 269.702L463.97 245.499Z" fill="url(#paint1_linear_7147_19285)"/>
</mask>
<g mask="url(#mask0_7147_19285)">
<path d="M334.058 372.106H271.965V341.233H334.058V372.106ZM364.932 372.106H334.059V341.233H364.932V372.106ZM427.024 372.106H365.278V341.233H427.024V372.106ZM613.305 372.106H427.372V341.233H613.305V372.106ZM644.524 372.106H613.651V341.233H644.524V372.106ZM272.312 371.759H302.838V341.58H272.312V371.759ZM303.531 371.759H333.711V341.58H303.531V371.759ZM334.405 371.759H364.585V341.58H334.405V371.759ZM365.625 371.759H395.805V341.58H365.625V371.759ZM396.498 371.759H426.678V341.58H396.498V371.759ZM427.719 371.759H457.898V341.58H427.719V371.759ZM458.592 371.759H488.771V341.58H458.592V371.759ZM489.465 371.759H519.991V341.58H489.465V371.759ZM520.685 371.759H551.211V341.58H520.685V371.759ZM551.559 371.759H582.085V341.58H551.559V371.759ZM582.778 371.759H612.958V341.58H582.778V371.759ZM613.998 371.759H644.178V341.58H613.998V371.759ZM334.058 340.886H271.965V278.794H334.058V340.886ZM364.932 340.886H334.059V278.794H364.932V340.886ZM427.024 340.886H365.278V278.794H427.024V340.886ZM613.305 340.886H427.372V278.794H613.305V340.886ZM644.524 340.886H613.651V278.794H644.524V340.886ZM272.312 340.54H302.838V310.36H272.312V340.54ZM303.531 340.54H333.711V310.36H303.531V340.54ZM334.405 340.54H364.585V310.36H334.405V340.54ZM365.625 340.54H395.805V310.36H365.625V340.54ZM396.498 340.54H426.678V310.36H396.498V340.54ZM427.719 340.54H457.898V310.36H427.719V340.54ZM458.592 340.54H488.771V310.36H458.592V340.54ZM489.465 340.54H519.991V310.36H489.465V340.54ZM520.685 340.54H551.211V310.36H520.685V340.54ZM551.559 340.54H582.085V310.36H551.559V340.54ZM582.778 340.54H612.958V310.36H582.778V340.54ZM613.998 340.54H644.178V310.36H613.998V340.54ZM272.312 309.667H302.838V279.14H272.312V309.667ZM303.531 309.667H333.711V279.14H303.531V309.667ZM334.405 309.667H364.585V279.14H334.405V309.667ZM365.625 309.667H395.805V279.14H365.625V309.667ZM396.498 309.667H426.678V279.14H396.498V309.667ZM427.719 309.667H457.898V279.14H427.719V309.667ZM458.592 309.667H488.771V279.14H458.592V309.667ZM489.465 309.667H519.991V279.14H489.465V309.667ZM520.685 309.667H551.211V279.14H520.685V309.667ZM551.559 309.667H582.085V279.14H551.559V309.667ZM582.778 309.667H612.958V279.14H582.778V309.667ZM613.998 309.667H644.178V279.14H613.998V309.667ZM334.058 278.793H271.965V185.827H334.058V278.793ZM364.932 278.793H334.059V185.827H364.932V278.793ZM427.024 278.793H365.278V185.827H427.024V278.793ZM613.305 278.793H427.372V185.827H613.305V278.793ZM644.524 278.793H613.651V185.827H644.524V278.793ZM272.312 278.446H302.838V248.266H272.312V278.446ZM303.531 278.446H333.711V248.266H303.531V278.446ZM334.405 278.446H364.585V248.266H334.405V278.446ZM365.625 278.446H395.805V248.266H365.625V278.446ZM396.498 278.446H426.678V248.266H396.498V278.446ZM427.719 278.446H457.898V248.266H427.719V278.446ZM458.592 278.446H488.771V248.266H458.592V278.446ZM489.465 278.446H519.991V248.266H489.465V278.446ZM520.685 278.446H551.211V248.266H520.685V278.446ZM551.559 278.446H582.085V248.266H551.559V278.446ZM582.778 278.446H612.958V248.266H582.778V278.446ZM613.998 278.446H644.178V248.266H613.998V278.446ZM272.312 247.573H302.838V217.393H272.312V247.573ZM303.531 247.573H333.711V217.393H303.531V247.573ZM334.405 247.573H364.585V217.393H334.405V247.573ZM365.625 247.573H395.805V217.393H365.625V247.573ZM396.498 247.573H426.678V217.393H396.498V247.573ZM427.719 247.573H457.898V217.393H427.719V247.573ZM458.592 247.573H488.771V217.393H458.592V247.573ZM489.465 247.573H519.991V217.393H489.465V247.573ZM520.685 247.573H551.211V217.393H520.685V247.573ZM551.559 247.573H582.085V217.393H551.559V247.573ZM582.778 247.573H612.958V217.393H582.778V247.573ZM613.998 247.573H644.178V217.393H613.998V247.573ZM272.312 216.7H302.838V186.173H272.312V216.7ZM303.531 216.7H333.711V186.173H303.531V216.7ZM334.405 216.7H364.585V186.173H334.405V216.7ZM365.625 216.7H395.805V186.173H365.625V216.7ZM396.498 216.7H426.678V186.173H396.498V216.7ZM427.719 216.7H457.898V186.173H427.719V216.7ZM458.592 216.7H488.771V186.173H458.592V216.7ZM489.465 216.7H519.991V186.173H489.465V216.7ZM520.685 216.7H551.211V186.173H520.685V216.7ZM551.559 216.7H582.085V186.173H551.559V216.7ZM582.778 216.7H612.958V186.173H582.778V216.7ZM613.998 216.7H644.178V186.173H613.998V216.7ZM334.058 185.826H271.965V92.86H334.058V185.826ZM364.932 185.826H334.059V92.86H364.932V185.826ZM427.024 185.826H365.278V92.86H427.024V185.826ZM613.305 185.826H427.372V92.86H613.305V185.826ZM644.524 185.826H613.651V92.86H644.524V185.826ZM272.312 185.479H302.838V154.953H272.312V185.479ZM303.531 185.479H333.711V154.953H303.531V185.479ZM334.405 185.479H364.585V154.953H334.405V185.479ZM365.625 185.479H395.805V154.953H365.625V185.479ZM396.498 185.479H426.678V154.953H396.498V185.479ZM427.719 185.479H457.898V154.953H427.719V185.479ZM458.592 185.479H488.771V154.953H458.592V185.479ZM489.465 185.479H519.991V154.953H489.465V185.479ZM520.685 185.479H551.211V154.953H520.685V185.479ZM551.559 185.479H582.085V154.953H551.559V185.479ZM582.778 185.479H612.958V154.953H582.778V185.479ZM613.998 185.479H644.178V154.953H613.998V185.479ZM272.312 154.606H302.838V124.08H272.312V154.606ZM303.531 154.606H333.711V124.08H303.531V154.606ZM334.405 154.606H364.585V124.08H334.405V154.606ZM365.625 154.606H395.805V124.08H365.625V154.606ZM396.498 154.606H426.678V124.08H396.498V154.606ZM427.719 154.606H457.898V124.08H427.719V154.606ZM458.592 154.606H488.771V124.08H458.592V154.606ZM489.465 154.606H519.991V124.08H489.465V154.606ZM520.685 154.606H551.211V124.08H520.685V154.606ZM551.559 154.606H582.085V124.08H551.559V154.606ZM582.778 154.606H612.958V124.08H582.778V154.606ZM613.998 154.606H644.178V124.08H613.998V154.606ZM272.312 123.386H302.838V93.2067H272.312V123.386ZM303.531 123.386H333.711V93.2067H303.531V123.386ZM334.405 123.386H364.585V93.2067H334.405V123.386ZM365.625 123.386H395.805V93.2067H365.625V123.386ZM396.498 123.386H426.678V93.2067H396.498V123.386ZM427.719 123.386H457.898V93.2067H427.719V123.386ZM458.592 123.386H488.771V93.2067H458.592V123.386ZM489.465 123.386H519.991V93.2067H489.465V123.386ZM520.685 123.386H551.211V93.2067H520.685V123.386ZM551.559 123.386H582.085V93.2067H551.559V123.386ZM582.778 123.386H612.958V93.2067H582.778V123.386ZM613.998 123.386H644.178V93.2067H613.998V123.386ZM334.058 92.5133H271.965V61.6403H334.058V92.5133ZM364.932 92.5133H334.059V61.6403H364.932V92.5133ZM427.024 92.5133H365.278V61.6403H427.024V92.5133ZM613.305 92.5133H427.372V61.6403H613.305V92.5133ZM644.524 92.5133H613.651V61.6403H644.524V92.5133ZM272.312 92.1666H302.838V61.9869H272.312V92.1666ZM303.531 92.1666H333.711V61.9869H303.531V92.1666ZM334.405 92.1666H364.585V61.9869H334.405V92.1666ZM365.625 92.1666H395.805V61.9869H365.625V92.1666ZM396.498 92.1666H426.678V61.9869H396.498V92.1666ZM427.719 92.1666H457.898V61.9869H427.719V92.1666ZM458.592 92.1666H488.771V61.9869H458.592V92.1666ZM489.465 92.1666H519.991V61.9869H489.465V92.1666ZM520.685 92.1666H551.211V61.9869H520.685V92.1666ZM551.559 92.1666H582.085V61.9869H551.559V92.1666ZM582.778 92.1666H612.958V61.9869H582.778V92.1666ZM613.998 92.1666H644.178V61.9869H613.998V92.1666ZM334.058 61.6393H271.965V-0.453491H334.058V61.6393ZM364.932 61.6393H334.059V-0.453491H364.932V61.6393ZM427.024 61.6393H365.278V-0.453491H427.024V61.6393ZM613.305 61.6393H427.372V-0.453491H613.305V61.6393ZM644.524 61.6393H613.651V-0.453491H644.524V61.6393ZM272.312 61.2926H302.838V31.1129H272.312V61.2926ZM303.531 61.2926H333.711V31.1129H303.531V61.2926ZM334.405 61.2926H364.585V31.1129H334.405V61.2926ZM365.625 61.2926H395.805V31.1129H365.625V61.2926ZM396.498 61.2926H426.678V31.1129H396.498V61.2926ZM427.719 61.2926H457.898V31.1129H427.719V61.2926ZM458.592 61.2926H488.771V31.1129H458.592V61.2926ZM489.465 61.2926H519.991V31.1129H489.465V61.2926ZM520.685 61.2926H551.211V31.1129H520.685V61.2926ZM551.559 61.2926H582.085V31.1129H551.559V61.2926ZM582.778 61.2926H612.958V31.1129H582.778V61.2926ZM613.998 61.2926H644.178V31.1129H613.998V61.2926ZM272.312 30.4196H302.838V-0.106812H272.312V30.4196ZM303.531 30.4196H333.711V-0.106812H303.531V30.4196ZM334.405 30.4196H364.585V-0.106812H334.405V30.4196ZM365.625 30.4196H395.805V-0.106812H365.625V30.4196ZM396.498 30.4196H426.678V-0.106812H396.498V30.4196ZM427.719 30.4196H457.898V-0.106812H427.719V30.4196ZM458.592 30.4196H488.771V-0.106812H458.592V30.4196ZM489.465 30.4196H519.991V-0.106812H489.465V30.4196ZM520.685 30.4196H551.211V-0.106812H520.685V30.4196ZM551.559 30.4196H582.085V-0.106812H551.559V30.4196ZM582.778 30.4196H612.958V-0.106812H582.778V30.4196ZM613.998 30.4196H644.178V-0.106812H613.998V30.4196Z" fill="white"/>
</g>
</g>
</g>
<defs>
<linearGradient id="paint0_linear_7147_19285" x1="313" y1="0" x2="313" y2="372" gradientUnits="userSpaceOnUse">
<stop stop-color="#121211"/>
<stop offset="0.315323" stop-color="#232423"/>
<stop offset="1" stop-color="#696B69"/>
</linearGradient>
<linearGradient id="paint1_linear_7147_19285" x1="301.179" y1="146.835" x2="458.298" y2="339.015" gradientUnits="userSpaceOnUse">
<stop stop-color="#CDCDCD"/>
<stop offset="0.558995" stop-color="#636363"/>
<stop offset="1" stop-color="#313131"/>
</linearGradient>
<clipPath id="clip0_7147_19285">
<rect width="626" height="372" rx="24" fill="white"/>
</clipPath>
<clipPath id="clip1_7147_19285">
<rect width="277.512" height="358.338" fill="white" transform="translate(319.488 6.83118)"/>
</clipPath>
</defs>
</svg>
