<svg width="64" height="64" viewBox="0 0 64 64" fill="none" xmlns="http://www.w3.org/2000/svg">
<g clip-path="url(#clip0_7159_21215)">
<path d="M32 64C49.6731 64 64 49.6731 64 32C64 14.3269 49.6731 0 32 0C14.3269 0 0 14.3269 0 32C0 49.6731 14.3269 64 32 64Z" fill="#1DBF73"/>
<path d="M39.8069 23.8175C41.6765 23.8175 43.192 22.3019 43.192 20.4324C43.192 18.5629 41.6765 17.0474 39.8069 17.0474C37.9374 17.0474 36.4219 18.5629 36.4219 20.4324C36.4219 22.3019 37.9374 23.8175 39.8069 23.8175Z" fill="white"/>
<path d="M43.3416 26.0372H27.8462V25.0218C27.8462 23.0276 29.8404 22.9898 30.8558 22.9898C32.0211 22.9898 32.549 23.1032 32.549 23.1032V17.6105C31.7253 17.5079 30.896 17.4578 30.0659 17.4606C26.8308 17.4606 20.8493 18.3626 20.8493 25.2095V26.0801H18.0273V31.1583H20.8493V41.8791H18.2163V46.9574H30.9289V41.8741H27.8437V31.1532H36.3032V41.8741H33.674V46.9523H45.9758V41.8741H43.3416V26.0372Z" fill="white"/>
</g>
<defs>
<clipPath id="clip0_7159_21215">
<rect width="64" height="64" fill="white"/>
</clipPath>
</defs>
</svg>
