<svg width="64" height="64" viewBox="0 0 64 64" fill="none" xmlns="http://www.w3.org/2000/svg">
<g clip-path="url(#clip0_7159_21223)">
<path d="M32 64C49.6731 64 64 49.6731 64 32C64 14.3269 49.6731 0 32 0C14.3269 0 0 14.3269 0 32C0 49.6731 14.3269 64 32 64Z" fill="#FF492C"/>
<path d="M48.0061 23.2229H41.8185C41.9851 22.252 42.5865 21.7086 43.8037 21.0927L44.9412 20.5131C46.9772 19.4697 48.064 18.2887 48.064 16.3615C48.064 15.1515 47.5931 14.1951 46.6584 13.5067C45.7238 12.8184 44.6224 12.4779 43.3328 12.4779C42.335 12.4662 41.3556 12.7457 40.5143 13.2821C39.6666 13.8038 39.0362 14.4776 38.645 15.3181L40.4346 17.115C41.1301 15.7094 42.1373 15.021 43.4632 15.021C44.5862 15.021 45.2745 15.6007 45.2745 16.4049C45.2745 17.0788 44.9412 17.6367 43.6516 18.2887L42.9198 18.6438C41.333 19.448 40.2317 20.3682 39.5941 21.4115C38.9565 22.4549 38.645 23.7663 38.645 25.3531V25.7878H48.0061V23.2229ZM47.1801 28.7439H36.935L31.8125 37.6123H42.0576L47.1801 46.488L52.3026 37.6123L47.1801 28.7439Z" fill="white"/>
<path d="M32.6963 43.5321C26.1754 43.5321 20.8645 38.2211 20.8645 31.7002C20.8645 25.1793 26.1754 19.8684 32.6963 19.8684L36.7465 11.3985C35.4128 11.1333 34.0562 10.9998 32.6963 11C21.263 11 11.9961 20.2669 11.9961 31.7002C11.9961 43.1336 21.263 52.4005 32.6963 52.4005C37.0778 52.4087 41.3474 51.0176 44.8832 48.43L40.4055 40.6629C38.2633 42.5133 35.5271 43.5317 32.6963 43.5321Z" fill="white"/>
</g>
<defs>
<clipPath id="clip0_7159_21223">
<rect width="64" height="64" fill="white"/>
</clipPath>
</defs>
</svg>
