<svg width="64" height="64" viewBox="0 0 64 64" fill="none" xmlns="http://www.w3.org/2000/svg">
<path d="M60.16 32.6665C60.16 30.5865 59.9733 28.5865 59.6267 26.6665H32V38.0265H47.7867C47.0933 41.6798 45.0133 44.7732 41.8933 46.8532V54.2398H51.4133C56.96 49.1198 60.16 41.5998 60.16 32.6665Z" fill="#4285F4"/>
<path d="M31.9992 61.3334C39.9192 61.3334 46.5592 58.7201 51.4125 54.2401L41.8925 46.8534C39.2792 48.6134 35.9458 49.6801 31.9992 49.6801C24.3725 49.6801 17.8925 44.5334 15.5725 37.6001H5.8125V45.1734C10.6392 54.7468 20.5325 61.3334 31.9992 61.3334Z" fill="#34A853"/>
<path d="M15.5746 37.5735C14.988 35.8135 14.6413 33.9468 14.6413 32.0002C14.6413 30.0535 14.988 28.1868 15.5746 26.4268V18.8535H5.81464C3.81464 22.8002 2.66797 27.2535 2.66797 32.0002C2.66797 36.7468 3.81464 41.2002 5.81464 45.1469L13.4146 39.2268L15.5746 37.5735Z" fill="#FBBC05"/>
<path d="M31.9992 14.347C36.3192 14.347 40.1592 15.8403 43.2258 18.7203L51.6258 10.3203C46.5325 5.57366 39.9192 2.66699 31.9992 2.66699C20.5325 2.66699 10.6392 9.25366 5.8125 18.8537L15.5725 26.427C17.8925 19.4937 24.3725 14.347 31.9992 14.347Z" fill="#EA4335"/>
</svg>
