<svg width="66" height="66" viewBox="0 0 66 66" fill="none" xmlns="http://www.w3.org/2000/svg">
<path d="M8.25 47.438V57.7505H18.5625L48.9775 27.308L38.665 16.9955L8.25 47.438ZM56.9525 19.2505C58.025 18.178 58.025 16.5005 56.9525 15.373L50.5175 9.04803C49.5 7.97553 47.7125 7.97553 46.64 9.04803L41.58 14.0805L51.8925 24.393L56.9525 19.2505Z" fill="#D2F234"/>
<path opacity="0.6" d="M50.4914 62.1779L62.1789 50.4904L57.3114 45.6504L53.4064 49.5004L50.4914 46.7504L54.5064 42.8454L50.6014 38.9404L43.8089 45.7604L41.0589 43.0104L36.1914 47.8779L50.4914 62.1779Z" fill="#D2F234"/>
<path opacity="0.6" d="M3.82227 15.5103L18.1773 29.7828L26.0148 22.1378L23.2648 19.3878L27.1698 15.5103L23.2648 11.6053L16.4998 18.4253L13.5573 15.5103L20.3498 8.69025L15.5098 3.82275L3.82227 15.5103Z" fill="#D2F234"/>
</svg>
