<svg width="66" height="66" viewBox="0 0 66 66" fill="none" xmlns="http://www.w3.org/2000/svg">
<path fill-rule="evenodd" clip-rule="evenodd" d="M16.9125 0H38.9784L57.6801 19.4933V57.4078C57.6801 62.1574 53.8375 66 49.1043 66H16.9125C12.1629 66 8.32031 62.1574 8.32031 57.4078V8.59217C8.32023 3.84257 12.1628 0 16.9125 0Z" fill="#00AAFF"/>
<path opacity="0.302" fill-rule="evenodd" clip-rule="evenodd" d="M38.9609 0V19.3448H57.6791L38.9609 0Z" fill="white"/>
<path d="M21.0047 48.0067C21.0047 48.9234 20.7859 49.6129 20.3482 50.0754C19.9188 50.5461 19.2994 50.9136 18.4901 51.1778L18.0566 50.001C18.4199 49.8607 18.6925 49.6996 18.8741 49.5179C19.0641 49.3445 19.1921 49.1381 19.2581 48.8986C19.3242 48.6508 19.3572 48.3329 19.3572 47.9448V40.6983H21.0047V48.0067ZM25.4829 40.6983C26.5813 40.6983 27.4318 40.9254 28.0347 41.3796C28.6458 41.8338 28.9513 42.5151 28.9513 43.4235C28.9513 44.3732 28.6458 45.0875 28.0347 45.5665C27.4236 46.0372 26.6102 46.2725 25.5944 46.2725H24.5911V49.2578H22.956V40.6983H25.4829ZM25.4706 45.0462C26.0569 45.0462 26.4987 44.9265 26.796 44.687C27.0933 44.4392 27.2419 44.0181 27.2419 43.4235C27.2419 42.4077 26.6515 41.8999 25.4706 41.8999H24.5911V45.0462H25.4706ZM33.7305 40.5125C34.2921 40.5125 34.7876 40.5992 35.217 40.7727C35.6547 40.9378 36.0676 41.1856 36.4557 41.5159L35.5762 42.4325C35.2707 42.193 34.9816 42.0196 34.7091 41.9123C34.4448 41.8049 34.1352 41.7512 33.7801 41.7512C33.1194 41.7512 32.5785 42.0155 32.1574 42.544C31.7362 43.0725 31.5256 43.8818 31.5256 44.9719C31.5256 46.1115 31.6908 46.9332 32.0211 47.4369C32.3597 47.9407 32.8717 48.1925 33.5571 48.1925C34.0774 48.1925 34.5316 48.081 34.9197 47.8581V45.6284H33.6314L33.458 44.4145H36.53V48.6013C35.6051 49.1628 34.6224 49.4436 33.5819 49.4436C32.3597 49.4436 31.4224 49.0637 30.77 48.304C30.1259 47.5443 29.8038 46.4336 29.8038 44.9719C29.8038 44.0387 29.9772 43.2377 30.3241 42.5688C30.6792 41.8916 31.154 41.3796 31.7486 41.0328C32.3432 40.6859 33.0038 40.5125 33.7305 40.5125Z" fill="white"/>
</svg>
