<svg width="38" height="38" viewBox="0 0 38 38" fill="none" xmlns="http://www.w3.org/2000/svg">
<path d="M4.03297 26.0286C3.59857 26.4629 3.5982 27.1683 4.03297 27.603L8.80279 32.3728C9.23741 32.8075 9.94234 32.8076 10.3772 32.3728L12.2428 30.5073L5.89861 24.1632L4.03297 26.0286Z" fill="#3FBFFF"/>
<path d="M18.7244 2.1797C18.468 1.92335 18.1029 1.80794 17.7457 1.87021C17.3886 1.93255 17.0842 2.16486 16.9298 2.4929L7.47295 22.5887L13.8171 28.9329L33.9129 19.476C34.241 19.3216 34.4733 19.0172 34.5356 18.66C34.598 18.3029 34.4825 17.9378 34.2261 17.6815L18.7244 2.1797Z" fill="#3FBFFF"/>
<path opacity="0.6" d="M23.3075 26.9272L15.4902 30.606L20.8342 35.9499C21.2688 36.3846 21.9738 36.3848 22.4086 35.9499L26.5822 31.7764C27.0169 31.3416 27.0169 30.6368 26.5822 30.202L23.3075 26.9272Z" fill="#00AAFF"/>
</svg>
