<svg width="66" height="66" viewBox="0 0 66 66" fill="none" xmlns="http://www.w3.org/2000/svg">
<path d="M7.00556 45.2078C6.25107 45.9621 6.25043 47.1873 7.00556 47.9423L15.29 56.2267C16.0449 56.9817 17.2692 56.9819 18.0245 56.2267L21.2647 52.9866L10.2459 41.9678L7.00556 45.2078Z" fill="#3FBFFF"/>
<path d="M32.5222 3.78605C32.077 3.3408 31.4427 3.14035 30.8224 3.24851C30.2021 3.35679 29.6735 3.76026 29.4054 4.33003L12.9803 39.2332L23.999 50.2521L58.9023 33.827C59.4721 33.5589 59.8756 33.0301 59.9839 32.4098C60.0921 31.7895 59.8916 31.1554 59.4463 30.7102L32.5222 3.78605Z" fill="#3FBFFF"/>
<path opacity="0.6" d="M40.4836 46.7686L26.9062 53.1579L36.1879 62.4396C36.9428 63.1946 38.1672 63.1948 38.9224 62.4396L46.1712 55.1908C46.9263 54.4356 46.9263 53.2114 46.1712 52.4563L40.4836 46.7686Z" fill="#00AAFF"/>
</svg>
