<svg width="66" height="66" viewBox="0 0 66 66" fill="none" xmlns="http://www.w3.org/2000/svg">
<path opacity="0.6" d="M17.6395 12.0732L11.2676 19.3171H41.9449L48.292 12.0732H17.6395Z" fill="#FF00DD"/>
<path opacity="0.6" d="M49.9023 14.4883V47.8585L54.7316 53.9273V21.085C54.7316 20.7577 54.6194 20.4392 54.4115 20.177L49.9023 14.4883Z" fill="#FF00DD"/>
<path opacity="0.6" d="M44.2676 59.5611H55.5359L49.9017 53.1221L44.2676 59.5611Z" fill="#FF00DD"/>
<path opacity="0.6" d="M49.9015 14.4883L45.0723 20.5808V53.9273L49.9015 47.8585V14.4883Z" fill="#FF00DD"/>
<rect x="10.4629" y="22.5371" width="31.3902" height="37.0244" fill="#FF00DD"/>
<path opacity="0.6" d="M48.2924 8.96888C48.2924 8.01636 47.5841 7.24414 46.7104 7.24414H19.289C18.4153 7.24414 17.707 8.01636 17.707 8.96888V12.0734H48.2924V8.96888Z" fill="#FF00DD"/>
</svg>
