<svg width="38" height="38" viewBox="0 0 38 38" fill="none" xmlns="http://www.w3.org/2000/svg">
<path opacity="0.6" d="M10.155 6.95105L6.48633 11.1218H24.149L27.8034 6.95105H10.155Z" fill="#FF00DD"/>
<path opacity="0.6" d="M28.7305 8.34131V27.5545L31.511 31.0486V12.1394C31.511 11.951 31.4463 11.7676 31.3266 11.6167L28.7305 8.34131Z" fill="#FF00DD"/>
<path opacity="0.6" d="M25.4863 34.2925H31.9741L28.7302 30.5852L25.4863 34.2925Z" fill="#FF00DD"/>
<path opacity="0.6" d="M28.7317 8.34131L25.9512 11.8491V31.0486L28.7317 27.5545V8.34131Z" fill="#FF00DD"/>
<rect x="6.02344" y="12.9753" width="18.0732" height="21.3171" fill="#FF00DD"/>
<path opacity="0.6" d="M27.8031 5.16356C27.8031 4.61515 27.3953 4.17053 26.8923 4.17053H11.1042C10.6012 4.17053 10.1934 4.61515 10.1934 5.16356V6.95102H27.8031V5.16356Z" fill="#FF00DD"/>
</svg>
