<svg width="432" height="400" viewBox="0 0 432 400" fill="none" xmlns="http://www.w3.org/2000/svg">
<g clip-path="url(#clip0_7159_20176)">
<path d="M75 91H560V445H75V91Z" fill="white"/>
<rect x="123" y="147" width="101" height="101" rx="11" fill="#FF6A00" stroke="#151615" stroke-width="2"/>
<rect x="122" y="253" width="103" height="103" rx="12" fill="#52D6DA"/>
<rect x="122" y="360" width="103" height="103" rx="12" fill="#EEF3EE"/>
<rect x="230" y="146" width="103" height="103" rx="12" fill="#ECD540"/>
<rect opacity="0.5" x="230" y="253" width="103" height="103" rx="12" fill="#FF6A00"/>
<g opacity="0.2" clip-path="url(#clip1_7159_20176)">
<path d="M279.409 337.506C278.953 336.928 278.678 336.023 278.581 334.787C278.499 334.072 278.09 333.67 277.351 333.577C274.808 333.388 272.653 332.925 270.887 332.186C269.121 331.449 267.778 330.506 266.86 329.353C265.942 328.201 265.461 326.92 265.415 325.506C265.383 324.482 265.578 323.497 266.003 322.553C266.428 321.611 267.071 320.839 267.934 320.241C268.795 319.642 269.845 319.323 271.083 319.283C272.166 319.248 273.061 319.355 273.766 319.603C274.471 319.852 275.085 320.287 275.608 320.909C276.132 321.532 276.664 322.416 277.204 323.56C277.787 324.819 278.478 325.712 279.28 326.238C280.081 326.764 281.149 327.006 282.483 326.964C283.973 326.915 285.078 326.479 285.796 325.653C286.515 324.826 286.855 323.794 286.815 322.556C286.783 321.569 286.432 320.708 285.76 319.974C285.088 319.24 284.269 318.613 283.304 318.093C282.338 317.572 280.912 316.886 279.026 316.037C276.453 314.919 274.347 313.871 272.709 312.899C271.07 311.925 269.648 310.619 268.444 308.983C267.239 307.346 266.599 305.338 266.523 302.958C266.429 300.038 267.268 297.668 269.04 295.849C270.812 294.031 273.158 292.793 276.081 292.137C276.793 291.999 277.138 291.581 277.115 290.883C277.082 289.82 277.283 289.005 277.72 288.439C278.157 287.873 278.878 287.575 279.884 287.542C281.509 287.49 282.48 288.505 282.8 290.586C282.851 290.972 282.971 291.263 283.162 291.46C283.352 291.657 283.631 291.779 284.001 291.825C286.063 292.089 287.788 292.619 289.179 293.417C290.57 294.216 291.603 295.15 292.275 296.223C292.949 297.295 293.303 298.373 293.338 299.457C293.375 300.617 293.15 301.617 292.664 302.455C292.177 303.294 291.515 303.936 290.678 304.379C289.839 304.822 288.908 305.059 287.883 305.091C286.296 305.143 285.1 304.809 284.293 304.088C283.485 303.369 282.855 302.272 282.4 300.795C282.132 299.68 281.71 298.885 281.133 298.41C280.556 297.934 279.677 297.716 278.497 297.753C277.259 297.792 276.259 298.15 275.496 298.822C274.734 299.496 274.37 300.375 274.405 301.457C274.442 302.618 274.841 303.632 275.605 304.497C276.369 305.364 277.307 306.104 278.422 306.718C279.535 307.331 281.075 308.071 283.039 308.937C285.611 310.035 287.716 311.072 289.354 312.045C290.993 313.02 292.405 314.315 293.589 315.933C294.774 317.55 295.405 319.56 295.481 321.958C295.575 324.898 294.748 327.335 292.999 329.27C291.251 331.205 288.692 332.496 285.325 333.146C284.593 333.287 284.24 333.734 284.264 334.488C284.308 335.862 284.136 336.835 283.748 337.41C283.359 337.983 282.614 338.288 281.511 338.324C280.564 338.354 279.863 338.081 279.409 337.506Z" fill="#232423"/>
<path d="M272.225 279L279.225 286L300.225 264" stroke="#232423" stroke-width="3"/>
</g>
<rect x="230" y="360" width="103" height="103" rx="12" fill="#EEF3EE"/>
<rect x="338" y="146" width="103" height="103" rx="12" fill="#FF00DD"/>
<rect x="338" y="253" width="103" height="103" rx="12" fill="#DDE3DD"/>
<rect x="338" y="360" width="103" height="103" rx="12" fill="#DDE3DD"/>
<g opacity="0.2" clip-path="url(#clip2_7159_20176)">
<path d="M279.409 232.506C278.953 231.928 278.678 231.023 278.581 229.787C278.499 229.072 278.09 228.67 277.351 228.577C274.808 228.388 272.653 227.925 270.887 227.186C269.121 226.449 267.778 225.506 266.86 224.353C265.942 223.201 265.461 221.92 265.415 220.506C265.383 219.482 265.578 218.497 266.003 217.553C266.428 216.611 267.071 215.839 267.934 215.241C268.795 214.642 269.845 214.323 271.083 214.283C272.166 214.248 273.061 214.355 273.766 214.603C274.471 214.852 275.085 215.287 275.608 215.909C276.132 216.532 276.664 217.416 277.204 218.56C277.787 219.819 278.478 220.712 279.28 221.238C280.081 221.764 281.149 222.006 282.483 221.964C283.973 221.915 285.078 221.479 285.796 220.653C286.515 219.826 286.855 218.794 286.815 217.556C286.783 216.569 286.432 215.708 285.76 214.974C285.088 214.24 284.269 213.613 283.304 213.093C282.338 212.572 280.912 211.886 279.026 211.037C276.453 209.919 274.347 208.871 272.709 207.899C271.07 206.925 269.648 205.619 268.444 203.983C267.239 202.346 266.599 200.338 266.523 197.958C266.429 195.038 267.268 192.668 269.04 190.849C270.812 189.031 273.158 187.793 276.081 187.137C276.793 186.999 277.138 186.581 277.115 185.883C277.082 184.82 277.283 184.005 277.72 183.439C278.157 182.873 278.878 182.575 279.884 182.542C281.509 182.49 282.48 183.505 282.8 185.586C282.851 185.972 282.971 186.263 283.162 186.46C283.352 186.657 283.631 186.779 284.001 186.825C286.063 187.089 287.788 187.619 289.179 188.417C290.57 189.216 291.603 190.15 292.275 191.223C292.949 192.295 293.303 193.373 293.338 194.457C293.375 195.617 293.15 196.617 292.664 197.455C292.177 198.294 291.515 198.936 290.678 199.379C289.839 199.822 288.908 200.059 287.883 200.091C286.296 200.143 285.1 199.809 284.293 199.088C283.485 198.369 282.855 197.272 282.4 195.795C282.132 194.68 281.71 193.885 281.133 193.41C280.556 192.934 279.677 192.716 278.497 192.753C277.259 192.792 276.259 193.15 275.496 193.822C274.734 194.496 274.37 195.375 274.405 196.457C274.442 197.618 274.841 198.632 275.605 199.497C276.369 200.364 277.307 201.104 278.422 201.718C279.535 202.331 281.075 203.071 283.039 203.937C285.611 205.035 287.716 206.072 289.354 207.045C290.993 208.02 292.405 209.315 293.589 210.933C294.774 212.55 295.405 214.56 295.481 216.958C295.575 219.898 294.748 222.335 292.999 224.27C291.251 226.205 288.692 227.496 285.325 228.146C284.593 228.287 284.24 228.734 284.264 229.488C284.308 230.862 284.136 231.835 283.748 232.41C283.359 232.983 282.614 233.288 281.511 233.324C280.564 233.354 279.863 233.081 279.409 232.506Z" fill="#0B0C0B"/>
<path d="M272.225 174L279.225 181L300.225 159" stroke="#0B0C0B" stroke-width="3"/>
</g>
<path fill-rule="evenodd" clip-rule="evenodd" d="M214.473 235.135C214.146 235 213.787 234.965 213.44 235.035C213.093 235.104 212.774 235.275 212.524 235.525C212.274 235.775 212.104 236.094 212.035 236.441C211.965 236.788 212 237.148 212.135 237.475L224.677 267.933C224.811 268.259 225.039 268.539 225.331 268.736C225.624 268.934 225.968 269.04 226.321 269.043C226.674 269.045 227.02 268.943 227.315 268.75C227.61 268.557 227.842 268.281 227.981 267.956L232.791 256.732C232.973 256.309 233.309 255.972 233.732 255.791L244.957 250.98C245.281 250.841 245.557 250.61 245.751 250.315C245.944 250.019 246.046 249.674 246.043 249.321C246.041 248.968 245.934 248.623 245.737 248.331C245.539 248.038 245.26 247.811 244.934 247.676L214.473 235.135Z" fill="#00AAFF"/>
<g clip-path="url(#clip3_7159_20176)">
<path d="M172.9 183.04C173.595 183.018 174.099 183.222 174.471 183.61C174.81 183.964 175.079 184.514 175.242 185.307L175.305 185.662C175.366 186.106 175.513 186.509 175.804 186.808C176.096 187.112 176.496 187.264 176.937 187.32L176.937 187.321C178.952 187.578 180.61 188.094 181.93 188.85C183.269 189.619 184.233 190.502 184.852 191.488L184.852 191.489C185.407 192.373 185.721 193.243 185.813 194.105L185.839 194.474C185.873 195.558 185.662 196.462 185.232 197.204L185.231 197.204C184.79 197.964 184.196 198.539 183.445 198.937C182.774 199.291 182.035 199.504 181.221 199.571L180.867 199.592C179.444 199.637 178.434 199.356 177.757 198.825L177.625 198.715C176.999 198.157 176.467 197.318 176.05 196.162L175.878 195.648C175.597 194.496 175.14 193.591 174.45 193.024L174.449 193.024C173.826 192.51 172.966 192.276 171.934 192.251L171.482 192.253C170.153 192.296 169.033 192.683 168.165 193.447L168.165 193.448C167.338 194.178 166.92 195.126 166.904 196.247L166.905 196.474C166.946 197.749 167.389 198.874 168.23 199.827L168.23 199.828C169.036 200.742 170.02 201.518 171.18 202.156C172.312 202.779 173.867 203.526 175.837 204.394L175.842 204.397C178.402 205.49 180.487 206.518 182.099 207.475L182.1 207.474C183.677 208.413 185.039 209.662 186.186 211.228C187.3 212.749 187.908 214.656 187.982 216.974C188.072 219.802 187.279 222.108 185.628 223.934L185.628 223.935C184.076 225.653 181.828 226.861 178.838 227.529L178.231 227.655C177.783 227.741 177.39 227.934 177.119 228.277C176.848 228.62 176.75 229.048 176.764 229.504C176.802 230.69 176.67 231.477 176.438 231.947L176.334 232.13C176.078 232.507 175.534 232.79 174.495 232.824C173.656 232.851 173.128 232.611 172.8 232.195C172.436 231.733 172.174 230.945 172.079 229.747L172.078 229.739L172.078 229.73L172.053 229.567C171.985 229.191 171.83 228.855 171.562 228.592C171.259 228.294 170.858 228.137 170.413 228.081L170.4 228.08L170.388 228.079C167.882 227.892 165.783 227.437 164.08 226.725L164.079 226.725C162.368 226.011 161.103 225.111 160.252 224.042C159.397 222.971 158.957 221.791 158.916 220.49C158.885 219.542 159.065 218.634 159.459 217.759C159.797 217.008 160.287 216.376 160.932 215.864L161.219 215.652C161.987 215.117 162.94 214.82 164.099 214.782C165.145 214.749 165.973 214.853 166.599 215.073L166.599 215.074C167.213 215.291 167.755 215.671 168.226 216.232C168.71 216.808 169.221 217.647 169.751 218.769L169.751 218.77C170.356 220.078 171.099 221.06 172.006 221.656C172.806 222.182 173.81 222.44 174.985 222.466L175.499 222.464C176.977 222.416 178.175 222.003 179.011 221.157L179.174 220.981C179.986 220.046 180.358 218.886 180.315 217.54L180.315 217.539C180.279 216.432 179.881 215.458 179.128 214.636C178.504 213.954 177.764 213.363 176.912 212.862L176.541 212.653C175.559 212.123 174.12 211.432 172.231 210.581L172.225 210.578L171.286 210.164C169.149 209.207 167.376 208.307 165.964 207.469C164.387 206.532 163.014 205.273 161.847 203.686C160.712 202.145 160.096 200.238 160.023 197.942C159.933 195.135 160.736 192.904 162.398 191.197C164.091 189.461 166.345 188.263 169.19 187.624L169.189 187.623C169.615 187.538 169.994 187.359 170.26 187.038C170.529 186.711 170.629 186.301 170.616 185.867C170.584 184.866 170.777 184.183 171.115 183.745C171.428 183.34 171.98 183.072 172.901 183.041L172.9 183.04Z" fill="white" stroke="white"/>
<path d="M165.225 174L172.225 181L193.225 159" stroke="white" stroke-width="3"/>
</g>
<g opacity="0.2" clip-path="url(#clip4_7159_20176)">
<path d="M172.409 340.506C171.953 339.928 171.678 339.023 171.581 337.787C171.499 337.072 171.09 336.67 170.351 336.577C167.808 336.388 165.653 335.925 163.887 335.186C162.121 334.449 160.778 333.506 159.86 332.353C158.942 331.201 158.461 329.92 158.415 328.506C158.383 327.482 158.578 326.497 159.003 325.553C159.428 324.611 160.071 323.839 160.934 323.241C161.795 322.642 162.845 322.323 164.083 322.283C165.166 322.248 166.061 322.355 166.766 322.603C167.471 322.852 168.085 323.287 168.608 323.909C169.132 324.532 169.664 325.416 170.204 326.56C170.787 327.819 171.478 328.712 172.28 329.238C173.081 329.764 174.149 330.006 175.483 329.964C176.973 329.915 178.078 329.479 178.796 328.653C179.515 327.826 179.855 326.794 179.815 325.556C179.783 324.569 179.432 323.708 178.76 322.974C178.088 322.24 177.269 321.613 176.304 321.093C175.338 320.572 173.912 319.886 172.026 319.037C169.453 317.919 167.347 316.871 165.709 315.899C164.07 314.925 162.648 313.619 161.444 311.983C160.239 310.346 159.599 308.338 159.523 305.958C159.429 303.038 160.268 300.668 162.04 298.849C163.812 297.031 166.158 295.793 169.081 295.137C169.793 294.999 170.138 294.581 170.115 293.883C170.082 292.82 170.283 292.005 170.72 291.439C171.157 290.873 171.878 290.575 172.884 290.542C174.509 290.49 175.48 291.505 175.8 293.586C175.851 293.972 175.971 294.263 176.162 294.46C176.352 294.657 176.631 294.779 177.001 294.825C179.063 295.089 180.788 295.619 182.179 296.417C183.57 297.216 184.603 298.15 185.275 299.223C185.949 300.295 186.303 301.373 186.338 302.457C186.375 303.617 186.15 304.617 185.664 305.455C185.177 306.294 184.515 306.936 183.678 307.379C182.839 307.822 181.908 308.059 180.883 308.091C179.296 308.143 178.1 307.809 177.293 307.088C176.485 306.369 175.855 305.272 175.4 303.795C175.132 302.68 174.71 301.885 174.133 301.41C173.556 300.934 172.677 300.716 171.497 300.753C170.259 300.792 169.259 301.15 168.496 301.822C167.734 302.496 167.37 303.375 167.405 304.457C167.442 305.618 167.841 306.632 168.605 307.497C169.369 308.364 170.307 309.104 171.422 309.718C172.535 310.331 174.075 311.071 176.039 311.937C178.611 313.035 180.716 314.072 182.354 315.045C183.993 316.02 185.405 317.315 186.589 318.933C187.774 320.55 188.405 322.56 188.481 324.958C188.575 327.898 187.748 330.335 185.999 332.27C184.251 334.205 181.692 335.496 178.325 336.146C177.593 336.287 177.24 336.734 177.264 337.488C177.308 338.862 177.136 339.835 176.748 340.41C176.359 340.983 175.614 341.288 174.511 341.324C173.564 341.354 172.863 341.081 172.409 340.506Z" fill="#232423"/>
<path d="M165.225 282L172.225 289L193.225 267" stroke="#232423" stroke-width="3"/>
</g>
<path d="M130.678 128.461L129.711 125.247H124.862L123.895 128.461H122.111L126.218 115.659H128.448L132.536 128.461H130.678ZM125.289 123.816H129.284L127.296 117.127L125.289 123.816ZM141.701 128.461H140.233L140.103 126.938C139.731 127.545 139.304 127.991 138.821 128.276C138.338 128.548 137.749 128.684 137.055 128.684C136.201 128.684 135.532 128.424 135.049 127.904C134.566 127.384 134.324 126.647 134.324 125.693V118.669H136.033V125.507C136.033 126.176 136.151 126.653 136.387 126.938C136.622 127.21 137.006 127.347 137.539 127.347C138.492 127.347 139.31 126.783 139.991 125.656V118.669H141.701V128.461ZM153.129 119.115C152.757 119.239 152.349 119.319 151.903 119.357C151.457 119.394 150.912 119.412 150.267 119.412C151.419 119.933 151.995 120.756 151.995 121.884C151.995 122.862 151.661 123.661 150.992 124.281C150.323 124.9 149.413 125.21 148.261 125.21C147.815 125.21 147.4 125.148 147.016 125.024C146.867 125.123 146.749 125.259 146.663 125.433C146.576 125.594 146.533 125.761 146.533 125.934C146.533 126.467 146.96 126.733 147.815 126.733H149.376C150.032 126.733 150.614 126.851 151.122 127.086C151.63 127.322 152.02 127.644 152.293 128.053C152.578 128.461 152.72 128.926 152.72 129.446C152.72 130.4 152.33 131.131 151.55 131.639C150.769 132.159 149.629 132.419 148.131 132.419C147.078 132.419 146.241 132.308 145.622 132.085C145.015 131.874 144.582 131.552 144.321 131.119C144.061 130.685 143.931 130.128 143.931 129.446H145.473C145.473 129.843 145.548 130.152 145.696 130.375C145.845 130.611 146.111 130.784 146.495 130.896C146.879 131.019 147.424 131.081 148.131 131.081C149.159 131.081 149.89 130.951 150.323 130.691C150.769 130.443 150.992 130.066 150.992 129.558C150.992 129.099 150.819 128.753 150.472 128.517C150.125 128.282 149.642 128.164 149.022 128.164H147.48C146.65 128.164 146.018 127.991 145.585 127.644C145.164 127.285 144.953 126.839 144.953 126.306C144.953 125.984 145.046 125.674 145.232 125.377C145.418 125.08 145.684 124.813 146.031 124.578C145.461 124.281 145.04 123.915 144.767 123.482C144.507 123.036 144.377 122.497 144.377 121.865C144.377 121.208 144.538 120.62 144.86 120.1C145.195 119.58 145.647 119.177 146.217 118.892C146.799 118.595 147.443 118.446 148.149 118.446C148.917 118.458 149.561 118.434 150.082 118.372C150.602 118.297 151.029 118.204 151.364 118.093C151.711 117.969 152.132 117.796 152.627 117.573L153.129 119.115ZM148.149 119.672C147.505 119.672 147.003 119.877 146.644 120.286C146.297 120.682 146.124 121.208 146.124 121.865C146.124 122.534 146.303 123.073 146.663 123.482C147.022 123.878 147.53 124.076 148.186 124.076C148.855 124.076 149.363 123.884 149.71 123.5C150.069 123.104 150.249 122.553 150.249 121.846C150.249 120.397 149.549 119.672 148.149 119.672ZM161.988 128.461H160.52L160.39 126.938C160.018 127.545 159.591 127.991 159.108 128.276C158.625 128.548 158.036 128.684 157.343 128.684C156.488 128.684 155.819 128.424 155.336 127.904C154.853 127.384 154.611 126.647 154.611 125.693V118.669H156.321V125.507C156.321 126.176 156.438 126.653 156.674 126.938C156.909 127.21 157.293 127.347 157.826 127.347C158.78 127.347 159.597 126.783 160.278 125.656V118.669H161.988V128.461ZM168.176 118.446C168.845 118.446 169.446 118.539 169.979 118.725C170.511 118.911 171.019 119.189 171.502 119.561L170.778 120.639C170.332 120.354 169.904 120.143 169.495 120.007C169.099 119.871 168.678 119.802 168.232 119.802C167.674 119.802 167.235 119.92 166.913 120.156C166.591 120.379 166.429 120.688 166.429 121.085C166.429 121.481 166.578 121.791 166.875 122.014C167.185 122.237 167.736 122.453 168.529 122.664C169.619 122.937 170.431 123.308 170.963 123.779C171.508 124.25 171.781 124.894 171.781 125.711C171.781 126.678 171.403 127.415 170.647 127.923C169.904 128.43 168.994 128.684 167.916 128.684C166.429 128.684 165.197 128.257 164.218 127.402L165.129 126.362C165.959 126.993 166.875 127.309 167.879 127.309C168.523 127.309 169.031 127.179 169.403 126.919C169.787 126.647 169.979 126.281 169.979 125.823C169.979 125.488 169.91 125.222 169.774 125.024C169.638 124.813 169.403 124.634 169.068 124.485C168.734 124.324 168.244 124.157 167.6 123.983C166.56 123.711 165.804 123.345 165.333 122.887C164.875 122.429 164.646 121.846 164.646 121.14C164.646 120.632 164.794 120.174 165.092 119.765C165.401 119.344 165.822 119.022 166.355 118.799C166.9 118.564 167.507 118.446 168.176 118.446ZM179.135 128.015C178.491 128.461 177.76 128.684 176.943 128.684C176.113 128.684 175.462 128.449 174.992 127.978C174.533 127.495 174.304 126.801 174.304 125.897V119.988H172.595V118.669H174.304V116.458L176.014 116.253V118.669H178.336L178.151 119.988H176.014V125.823C176.014 126.331 176.1 126.702 176.274 126.938C176.46 127.161 176.763 127.272 177.184 127.272C177.568 127.272 178.002 127.142 178.485 126.882L179.135 128.015Z" fill="#0B0C0B"/>
<path d="M75 77.7013C75 67.3729 83.3729 59 93.7013 59H541.753C552.082 59 560.455 67.3729 560.455 77.7013V93.2857H75V77.7013Z" fill="#00AAFF"/>
<rect x="146.688" y="68.3506" width="373.247" height="15.5844" rx="7.79221" fill="#0B0C0B"/>
<path d="M157.932 74.2673C158.307 74.2673 158.597 74.379 158.805 74.6024C159.018 74.8257 159.125 75.1322 159.125 75.5218V78.4673H158.408V75.6231C158.408 75.3322 158.351 75.127 158.236 75.0075C158.127 74.8881 157.966 74.8283 157.753 74.8283C157.54 74.8283 157.351 74.8907 157.184 75.0153C157.018 75.14 156.862 75.3166 156.717 75.5452V78.4673H156V72.7166L156.717 72.6387V74.9296C157.039 74.4881 157.444 74.2673 157.932 74.2673ZM162.638 78.2803C162.368 78.4673 162.062 78.5608 161.719 78.5608C161.371 78.5608 161.098 78.4621 160.901 78.2647C160.709 78.0621 160.613 77.7712 160.613 77.392V74.914H159.896V74.3608H160.613V73.4335L161.329 73.3478V74.3608H162.303L162.226 74.914H161.329V77.3608C161.329 77.5738 161.366 77.7296 161.438 77.8283C161.516 77.9218 161.644 77.9686 161.82 77.9686C161.981 77.9686 162.163 77.914 162.366 77.8049L162.638 78.2803ZM165.454 78.2803C165.184 78.4673 164.877 78.5608 164.535 78.5608C164.187 78.5608 163.914 78.4621 163.716 78.2647C163.524 78.0621 163.428 77.7712 163.428 77.392V74.914H162.711V74.3608H163.428V73.4335L164.145 73.3478V74.3608H165.119L165.041 74.914H164.145V77.3608C164.145 77.5738 164.181 77.7296 164.254 77.8283C164.332 77.9218 164.459 77.9686 164.636 77.9686C164.797 77.9686 164.979 77.914 165.181 77.8049L165.454 78.2803ZM168.083 74.2673C168.607 74.2673 168.992 74.4543 169.236 74.8283C169.48 75.2024 169.602 75.7296 169.602 76.4101C169.602 77.0543 169.462 77.5738 169.181 77.9686C168.901 78.3634 168.503 78.5608 167.989 78.5608C167.532 78.5608 167.173 78.4049 166.914 78.0933V80.0413L166.197 80.127V74.3608H166.812L166.867 74.914C167.018 74.7062 167.199 74.5478 167.412 74.4387C167.625 74.3244 167.849 74.2673 168.083 74.2673ZM167.818 77.9764C168.493 77.9764 168.831 77.4543 168.831 76.4101C168.831 75.3608 168.522 74.8361 167.903 74.8361C167.701 74.8361 167.516 74.8959 167.35 75.0153C167.184 75.1348 167.038 75.2881 166.914 75.4751V77.4777C167.018 77.6387 167.148 77.7634 167.303 77.8517C167.459 77.9348 167.631 77.9764 167.818 77.9764ZM171.938 74.2673C172.218 74.2673 172.47 74.3062 172.694 74.3842C172.917 74.4621 173.13 74.579 173.333 74.7348L173.029 75.1868C172.842 75.0673 172.662 74.979 172.491 74.9218C172.325 74.8647 172.148 74.8361 171.961 74.8361C171.727 74.8361 171.543 74.8855 171.408 74.9842C171.273 75.0777 171.205 75.2075 171.205 75.3738C171.205 75.54 171.268 75.6699 171.392 75.7634C171.522 75.8569 171.753 75.9478 172.086 76.0361C172.543 76.1504 172.883 76.3062 173.107 76.5036C173.335 76.7011 173.449 76.9712 173.449 77.314C173.449 77.7192 173.291 78.0283 172.974 78.2413C172.662 78.4543 172.281 78.5608 171.829 78.5608C171.205 78.5608 170.688 78.3816 170.278 78.0231L170.66 77.5868C171.008 77.8517 171.392 77.9842 171.813 77.9842C172.083 77.9842 172.296 77.9296 172.452 77.8205C172.613 77.7062 172.694 77.553 172.694 77.3608C172.694 77.2205 172.665 77.1088 172.608 77.0257C172.551 76.9374 172.452 76.8621 172.312 76.7998C172.172 76.7322 171.966 76.6621 171.696 76.5894C171.26 76.4751 170.943 76.3218 170.746 76.1296C170.553 75.9374 170.457 75.6933 170.457 75.3972C170.457 75.1842 170.52 74.992 170.644 74.8205C170.774 74.6439 170.951 74.5088 171.174 74.4153C171.403 74.3166 171.657 74.2673 171.938 74.2673ZM174.648 77.4777C174.804 77.4777 174.934 77.5296 175.037 77.6335C175.141 77.7374 175.193 77.8647 175.193 78.0153C175.193 78.166 175.141 78.2959 175.037 78.4049C174.934 78.5088 174.804 78.5608 174.648 78.5608C174.497 78.5608 174.37 78.5088 174.266 78.4049C174.162 78.2959 174.11 78.166 174.11 78.0153C174.11 77.8647 174.162 77.7374 174.266 77.6335C174.37 77.5296 174.497 77.4777 174.648 77.4777ZM174.648 74.6101C174.804 74.6101 174.934 74.6621 175.037 74.766C175.141 74.8699 175.193 74.9972 175.193 75.1478C175.193 75.2985 175.141 75.4283 175.037 75.5374C174.934 75.6413 174.804 75.6933 174.648 75.6933C174.497 75.6933 174.37 75.6413 174.266 75.5374C174.162 75.4283 174.11 75.2985 174.11 75.1478C174.11 74.9972 174.162 74.8699 174.266 74.766C174.37 74.6621 174.497 74.6101 174.648 74.6101ZM178.219 72.179L178.826 72.3192L177.026 79.2777L176.411 79.1296L178.219 72.179ZM181.331 72.179L181.939 72.3192L180.139 79.2777L179.523 79.1296L181.331 72.179ZM188.032 74.3608L187.097 78.4673H186.123L185.406 75.0075L184.666 78.4673H183.715L182.757 74.3608H183.474L184.214 77.9686L185.024 74.3608H185.827L186.598 77.9686L187.346 74.3608H188.032ZM193.618 74.3608L192.683 78.4673H191.708L190.992 75.0075L190.251 78.4673H189.301L188.342 74.3608H189.059L189.799 77.9686L190.61 74.3608H191.412L192.184 77.9686L192.932 74.3608H193.618ZM199.203 74.3608L198.268 78.4673H197.294L196.577 75.0075L195.837 78.4673H194.886L193.928 74.3608H194.645L195.385 77.9686L196.195 74.3608H196.998L197.769 77.9686L198.517 74.3608H199.203ZM200.132 77.4777C200.288 77.4777 200.418 77.5296 200.522 77.6335C200.626 77.7374 200.678 77.8647 200.678 78.0153C200.678 78.166 200.626 78.2959 200.522 78.4049C200.418 78.5088 200.288 78.5608 200.132 78.5608C199.982 78.5608 199.854 78.5088 199.751 78.4049C199.647 78.2959 199.595 78.166 199.595 78.0153C199.595 77.8647 199.647 77.7374 199.751 77.6335C199.854 77.5296 199.982 77.4777 200.132 77.4777ZM204.92 74.3608V80.127L204.204 80.0413V77.9218C204.068 78.1244 203.9 78.2829 203.697 78.3972C203.5 78.5062 203.279 78.5608 203.035 78.5608C202.546 78.5608 202.165 78.3686 201.889 77.9842C201.619 77.5998 201.484 77.0829 201.484 76.4335C201.484 76.0127 201.549 75.6387 201.679 75.3114C201.809 74.9842 201.996 74.7296 202.24 74.5478C202.484 74.3608 202.77 74.2673 203.097 74.2673C203.533 74.2673 203.918 74.4517 204.25 74.8205L204.305 74.3608H204.92ZM203.191 77.992C203.409 77.992 203.596 77.9426 203.752 77.8439C203.907 77.74 204.058 77.5868 204.204 77.3842V75.3738C204.068 75.1972 203.923 75.0647 203.767 74.9764C203.617 74.8829 203.445 74.8361 203.253 74.8361C202.936 74.8361 202.689 74.9686 202.513 75.2335C202.341 75.4985 202.255 75.8933 202.255 76.4179C202.255 76.9478 202.336 77.3426 202.497 77.6024C202.658 77.8621 202.889 77.992 203.191 77.992ZM209.453 78.4673H208.837L208.783 77.8283C208.627 78.0829 208.448 78.2699 208.245 78.3894C208.042 78.5036 207.796 78.5608 207.505 78.5608C207.146 78.5608 206.866 78.4517 206.663 78.2335C206.461 78.0153 206.359 77.7062 206.359 77.3062V74.3608H207.076V77.2283C207.076 77.5088 207.126 77.7088 207.224 77.8283C207.323 77.9426 207.484 77.9998 207.707 77.9998C208.107 77.9998 208.45 77.7634 208.736 77.2907V74.3608H209.453V78.4673ZM214.035 76.2933C214.035 76.4127 214.03 76.5348 214.019 76.6595H211.401C211.432 77.1114 211.547 77.4439 211.744 77.6569C211.941 77.8699 212.196 77.9764 212.508 77.9764C212.705 77.9764 212.887 77.9478 213.053 77.8907C213.219 77.8335 213.393 77.7426 213.575 77.6179L213.887 78.0465C213.45 78.3894 212.973 78.5608 212.453 78.5608C211.882 78.5608 211.435 78.3738 211.113 77.9998C210.796 77.6257 210.637 77.1114 210.637 76.4569C210.637 76.0309 210.705 75.6543 210.84 75.327C210.98 74.9946 211.178 74.7348 211.432 74.5478C211.692 74.3608 211.996 74.2673 212.344 74.2673C212.889 74.2673 213.308 74.4465 213.599 74.8049C213.889 75.1634 214.035 75.6595 214.035 76.2933ZM213.326 76.0829C213.326 75.6777 213.245 75.3686 213.084 75.1556C212.923 74.9426 212.682 74.8361 212.36 74.8361C211.773 74.8361 211.453 75.2673 211.401 76.1296H213.326V76.0829ZM216.676 74.2673C216.92 74.2673 217.143 74.3036 217.346 74.3764C217.549 74.4439 217.743 74.5556 217.93 74.7114L217.588 75.1634C217.442 75.0595 217.299 74.9842 217.159 74.9374C217.024 74.8855 216.873 74.8595 216.707 74.8595C216.375 74.8595 216.115 74.992 215.928 75.2569C215.746 75.5218 215.655 75.914 215.655 76.4335C215.655 76.953 215.746 77.3374 215.928 77.5868C216.11 77.8309 216.369 77.953 216.707 77.953C216.868 77.953 217.016 77.9296 217.151 77.8829C217.286 77.8309 217.437 77.7504 217.603 77.6413L217.93 78.1088C217.556 78.4101 217.138 78.5608 216.676 78.5608C216.12 78.5608 215.681 78.3738 215.359 77.9998C215.042 77.6257 214.884 77.1088 214.884 76.4491C214.884 76.0127 214.956 75.6309 215.102 75.3036C215.247 74.9764 215.452 74.7218 215.717 74.54C215.988 74.3582 216.307 74.2673 216.676 74.2673ZM221.879 78.4673H221.264L221.209 77.8283C221.053 78.0829 220.874 78.2699 220.671 78.3894C220.469 78.5036 220.222 78.5608 219.931 78.5608C219.573 78.5608 219.292 78.4517 219.09 78.2335C218.887 78.0153 218.786 77.7062 218.786 77.3062V74.3608H219.503V77.2283C219.503 77.5088 219.552 77.7088 219.651 77.8283C219.749 77.9426 219.91 77.9998 220.134 77.9998C220.534 77.9998 220.877 77.7634 221.162 77.2907V74.3608H221.879V78.4673ZM225.433 78.2803C225.163 78.4673 224.856 78.5608 224.513 78.5608C224.165 78.5608 223.892 78.4621 223.695 78.2647C223.503 78.0621 223.407 77.7712 223.407 77.392V74.914H222.69V74.3608H223.407V73.4335L224.124 73.3478V74.3608H225.098L225.02 74.914H224.124V77.3608C224.124 77.5738 224.16 77.7296 224.233 77.8283C224.311 77.9218 224.438 77.9686 224.615 77.9686C224.776 77.9686 224.957 77.914 225.16 77.8049L225.433 78.2803ZM226.393 77.4777C226.549 77.4777 226.679 77.5296 226.783 77.6335C226.887 77.7374 226.938 77.8647 226.938 78.0153C226.938 78.166 226.887 78.2959 226.783 78.4049C226.679 78.5088 226.549 78.5608 226.393 78.5608C226.242 78.5608 226.115 78.5088 226.011 78.4049C225.907 78.2959 225.855 78.166 225.855 78.0153C225.855 77.8647 225.907 77.7374 226.011 77.6335C226.115 77.5296 226.242 77.4777 226.393 77.4777ZM229.498 74.2673C229.742 74.2673 229.965 74.3036 230.168 74.3764C230.371 74.4439 230.565 74.5556 230.752 74.7114L230.41 75.1634C230.264 75.0595 230.121 74.9842 229.981 74.9374C229.846 74.8855 229.695 74.8595 229.529 74.8595C229.197 74.8595 228.937 74.992 228.75 75.2569C228.568 75.5218 228.477 75.914 228.477 76.4335C228.477 76.953 228.568 77.3374 228.75 77.5868C228.932 77.8309 229.191 77.953 229.529 77.953C229.69 77.953 229.838 77.9296 229.973 77.8829C230.108 77.8309 230.259 77.7504 230.425 77.6413L230.752 78.1088C230.378 78.4101 229.96 78.5608 229.498 78.5608C228.942 78.5608 228.503 78.3738 228.181 77.9998C227.864 77.6257 227.706 77.1088 227.706 76.4491C227.706 76.0127 227.778 75.6309 227.924 75.3036C228.069 74.9764 228.275 74.7218 228.54 74.54C228.81 74.3582 229.129 74.2673 229.498 74.2673ZM233.114 74.2673C233.69 74.2673 234.137 74.4595 234.454 74.8439C234.776 75.2283 234.937 75.7504 234.937 76.4101C234.937 76.8361 234.864 77.2127 234.719 77.54C234.573 77.8621 234.363 78.114 234.088 78.2959C233.812 78.4725 233.485 78.5608 233.106 78.5608C232.529 78.5608 232.08 78.3686 231.758 77.9842C231.436 77.5998 231.275 77.0777 231.275 76.4179C231.275 75.992 231.347 75.6179 231.493 75.2959C231.638 74.9686 231.849 74.7166 232.124 74.54C232.399 74.3582 232.729 74.2673 233.114 74.2673ZM233.114 74.8439C232.402 74.8439 232.046 75.3686 232.046 76.4179C232.046 77.4621 232.399 77.9842 233.106 77.9842C233.812 77.9842 234.166 77.4595 234.166 76.4101C234.166 75.366 233.815 74.8439 233.114 74.8439ZM240.243 74.2673C240.581 74.2673 240.851 74.3816 241.054 74.6101C241.256 74.8335 241.358 75.1374 241.358 75.5218V78.4673H240.641V75.6231C240.641 75.0933 240.449 74.8283 240.064 74.8283C239.862 74.8283 239.69 74.8881 239.55 75.0075C239.41 75.1218 239.259 75.3036 239.098 75.553V78.4673H238.381V75.6231C238.381 75.0933 238.189 74.8283 237.804 74.8283C237.597 74.8283 237.423 74.8881 237.282 75.0075C237.142 75.127 236.994 75.3088 236.838 75.553V78.4673H236.121V74.3608H236.737L236.799 74.9608C237.106 74.4985 237.5 74.2673 237.984 74.2673C238.238 74.2673 238.454 74.3322 238.63 74.4621C238.812 74.592 238.942 74.7738 239.02 75.0075C239.181 74.7686 239.358 74.5868 239.55 74.4621C239.747 74.3322 239.978 74.2673 240.243 74.2673Z" fill="white"/>
<circle cx="92.9213" cy="75.3636" r="6.23377" fill="white"/>
<circle cx="106.949" cy="75.3636" r="6.23377" fill="white"/>
<circle cx="122.234" cy="75.3636" r="6.23377" fill="white"/>
</g>
<defs>
<clipPath id="clip0_7159_20176">
<rect width="432" height="400" fill="white"/>
</clipPath>
<clipPath id="clip1_7159_20176">
<rect width="70" height="70" fill="white" transform="translate(246 267)"/>
</clipPath>
<clipPath id="clip2_7159_20176">
<rect width="70" height="70" fill="white" transform="translate(246 162)"/>
</clipPath>
<clipPath id="clip3_7159_20176">
<rect width="70" height="70" fill="white" transform="translate(139 162)"/>
</clipPath>
<clipPath id="clip4_7159_20176">
<rect width="70" height="70" fill="white" transform="translate(139 270)"/>
</clipPath>
</defs>
</svg>
