<svg width="38" height="38" viewBox="0 0 38 38" fill="none" xmlns="http://www.w3.org/2000/svg">
<path d="M34.0826 17.1045L32.5795 13.842C31.9576 12.4956 30.61 11.6152 29.1069 11.6152H8.89353C7.39048 11.6152 6.04292 12.4956 5.42097 13.842L3.91792 17.1045C3.45146 18.1402 3.24414 19.1759 3.24414 20.3152V27.8759C3.24414 28.9116 4.07341 29.6884 5.05816 29.6884H8.06426V21.9206H29.9362V29.6884H32.9423C33.9789 29.6884 34.7563 28.8598 34.7563 27.8759V20.3152C34.7563 19.2277 34.549 18.1402 34.0826 17.1045ZM28.8478 17.9331C28.2258 17.9331 27.7076 17.4152 27.7076 16.7938C27.7076 16.1724 28.2258 15.6545 28.8478 15.6545C29.4697 15.6545 29.988 16.1724 29.988 16.7938C29.988 17.4152 29.4697 17.9331 28.8478 17.9331Z" fill="#52D6DA"/>
<path opacity="0.6" d="M25.7955 32.5242C25.7955 32.9435 25.4254 33.3103 25.0023 33.3103H12.9452C12.5221 33.3103 12.152 32.9435 12.152 32.5242V23.8249H10.1953V32.5242C10.1953 33.9916 11.4116 35.2493 12.9452 35.2493H25.0552C26.5359 35.2493 27.8051 34.044 27.8051 32.5242V23.8249H25.8484V32.5242H25.7955ZM25.0023 2.8103H12.9452C11.4645 2.8103 10.1953 4.01563 10.1953 5.53539V9.83264H12.152V5.48299C12.152 5.06374 12.5221 4.6969 12.9452 4.6969H25.0552C25.4783 4.6969 25.8484 5.06374 25.8484 5.48299V9.78024H27.8051V5.48299C27.7522 4.01563 26.5359 2.8103 25.0023 2.8103Z" fill="#52D6DA"/>
</svg>
