<svg width="66" height="66" viewBox="0 0 66 66" fill="none" xmlns="http://www.w3.org/2000/svg">
<path d="M59.1962 29.7078L56.5857 24.0414C55.5054 21.7029 53.1649 20.1738 50.5544 20.1738H15.4469C12.8363 20.1738 10.4958 21.7029 9.41557 24.0414L6.80502 29.7078C5.99484 31.5067 5.63477 33.3056 5.63477 35.2843V48.4161C5.63477 50.2149 7.07507 51.5641 8.78544 51.5641H14.0066V38.0726H51.9947V51.5641H57.2158C59.0162 51.5641 60.3665 50.125 60.3665 48.4161V35.2843C60.3665 33.3955 60.0064 31.5067 59.1962 29.7078ZM50.1043 31.1469C49.024 31.1469 48.1239 30.2475 48.1239 29.1682C48.1239 28.0888 49.024 27.1894 50.1043 27.1894C51.1845 27.1894 52.0847 28.0888 52.0847 29.1682C52.0847 30.2475 51.1845 31.1469 50.1043 31.1469Z" fill="#52D6DA"/>
<path opacity="0.6" d="M44.8022 56.4893C44.8022 57.2174 44.1592 57.8546 43.4245 57.8546H22.4831C21.7483 57.8546 21.1054 57.2174 21.1054 56.4893V41.3799H17.707V56.4893C17.707 59.0378 19.8195 61.2223 22.4831 61.2223H43.5163C46.088 61.2223 48.2924 59.1289 48.2924 56.4893V41.3799H44.894V56.4893H44.8022ZM43.4245 4.88086H22.4831C19.9114 4.88086 17.707 6.97432 17.707 9.61391V17.0776H21.1054V9.52289C21.1054 8.79473 21.7483 8.15758 22.4831 8.15758H43.5163C44.2511 8.15758 44.894 8.79473 44.894 9.52289V16.9865H48.2924V9.52289C48.2006 6.97432 46.088 4.88086 43.4245 4.88086Z" fill="#52D6DA"/>
</svg>
