<svg width="129" height="32" viewBox="0 0 129 32" fill="none" xmlns="http://www.w3.org/2000/svg">
<g clip-path="url(#clip0_7160_2160)">
<path d="M12.0256 0C19.0902 0.000149732 24.0502 5.16381 24.0502 12.4883C24.05 17.4712 21.7653 21.4634 18.0677 23.4746L12.897 21.3135C16.8351 20.8632 19.5404 17.3511 19.5406 12.4883C19.5406 7.26514 16.4447 3.60271 12.0256 3.60254C7.60628 3.60254 4.50959 7.26502 4.50959 12.4883C4.50976 17.9814 7.42561 21.1637 15.0613 23.9854C20.5929 26.0566 24.7719 27.6173 24.7719 32H20.5636C20.5636 30.4991 17.9778 29.6582 12.6867 27.5869C3.69808 24.0748 0.000172934 19.2723 0 12.4883C0 5.1637 4.96073 0 12.0256 0ZM77.6527 0C80.8694 0 83.6655 1.08037 85.7399 2.94141L82.9437 5.94336C81.621 4.47264 79.787 3.60254 77.6527 3.60254C73.2335 3.60264 70.1367 7.26509 70.1367 12.4883C70.1369 17.7112 73.2337 21.3729 77.6527 21.373C80.0277 21.373 82.0124 20.3226 83.3653 18.5215L86.6113 21.1631C84.4768 23.5645 81.3504 24.9756 77.6527 24.9756C70.5881 24.9755 65.6283 19.8125 65.6281 12.4883C65.6281 5.16376 70.588 8.86504e-05 77.6527 0ZM29.4576 14.5596C29.4577 18.7919 31.442 20.8926 35.4703 20.8926C39.4985 20.8925 41.483 18.7918 41.4831 14.5596V0H45.6915V14.0791C45.6914 20.923 42.024 24.495 35.5006 24.4951C28.9169 24.4951 25.2493 20.9232 25.2492 14.0791V0H29.4576V14.5596ZM91.5629 14.5596C91.563 18.7918 93.5476 20.8925 97.5757 20.8926C101.604 20.8926 103.588 18.7919 103.588 14.5596V0H107.798V14.0791C107.798 20.9232 104.13 24.4951 97.606 24.4951C91.0223 24.4951 87.3547 20.9232 87.3545 14.0791V0H91.5629V14.5596ZM64.5807 12.3975H55.6212C52.9158 12.3976 51.4128 13.8991 51.4128 16.6006V20.4131H65.1822V24.0146H47.2045V17.2012C47.2045 11.798 50.2101 8.79607 55.6212 8.7959H64.5807V12.3975ZM129 3.60254H125.092C122.266 3.60254 120.883 4.9836 120.883 8.3457V24.0146H116.674V8.3457C116.674 6.36467 117.125 4.80324 117.966 3.60254H108.557V0H129V3.60254ZM65.1822 3.60254H47.2045V0H65.1822V3.60254Z" fill="white"/>
</g>
<defs>
<clipPath id="clip0_7160_2160">
<rect width="129" height="32" fill="white"/>
</clipPath>
</defs>
</svg>
