<svg width="1920" height="405" viewBox="0 0 1920 405" fill="none" xmlns="http://www.w3.org/2000/svg">
<path d="M79.5492 0C196.779 0.00248461 279.082 85.687 279.082 207.227C279.08 289.912 241.169 356.159 179.811 389.532L94.0091 353.671C159.358 346.199 204.248 287.919 204.251 207.227C204.251 120.556 152.879 59.7825 79.5492 59.7796C6.21675 59.7796 -45.169 120.554 -45.169 207.227C-45.1663 298.379 3.21876 351.185 129.923 398.007C221.714 432.377 291.059 458.274 291.059 531H221.227C221.227 506.094 178.319 492.141 90.5199 457.77C-58.635 399.491 -119.997 319.799 -120 207.227C-120 85.6852 -37.683 0 79.5492 0ZM1168.55 0C1221.93 0 1268.32 17.9274 1302.75 48.809L1256.35 98.6226C1234.4 74.2179 1203.97 59.7796 1168.55 59.7796C1095.22 59.7813 1043.83 120.555 1043.83 207.227C1043.83 293.896 1095.22 354.657 1168.55 354.659C1207.96 354.659 1240.89 337.228 1263.34 307.341L1317.21 351.175C1281.79 391.023 1229.91 414.439 1168.55 414.439C1051.32 414.437 969.02 328.764 969.017 207.227C969.017 85.6862 1051.32 0.00147104 1168.55 0ZM368.811 241.598C368.814 311.828 401.741 346.686 468.586 346.686C535.429 346.685 568.358 311.827 568.36 241.598V0H638.193V233.625C638.191 347.192 577.336 406.463 469.089 406.466C359.84 406.466 298.98 347.194 298.979 233.625V0H368.811V241.598ZM1399.37 241.598C1399.37 311.826 1432.31 346.684 1499.15 346.686C1565.99 346.686 1598.92 311.828 1598.92 241.598V0H1668.77V233.625C1668.77 347.194 1607.9 406.466 1499.65 406.466C1390.4 406.465 1329.54 347.194 1329.54 233.625V0H1399.37V241.598ZM951.636 205.72H802.964C758.071 205.723 733.131 230.637 733.131 275.466V338.73H961.616V398.493H663.299V285.432C663.299 195.772 713.174 145.96 802.964 145.957H951.636V205.72ZM2020.59 59.7796H1955.74C1908.85 59.7796 1885.89 82.6966 1885.89 138.487V398.493H1816.06V138.487C1816.06 105.614 1823.54 79.7038 1837.5 59.7796H1681.36V0H2020.59V59.7796ZM961.616 59.7796H663.299V0H961.616V59.7796Z" fill="#3E403E"/>
</svg>
