<svg width="14" height="16" viewBox="0 0 14 16" fill="none" xmlns="http://www.w3.org/2000/svg">
<path d="M14 2.42215L7 0L0 2.42215V8C0 10.8561 1.7738 12.8526 3.4272 14.092C4.42546 14.8328 5.52036 15.4369 6.6822 15.8879C6.76153 15.9174 6.84133 15.9456 6.9216 15.9723L7 16L7.0798 15.9723C7.23286 15.9198 7.38457 15.8635 7.5348 15.8035C8.61682 15.3627 9.63769 14.7876 10.5728 14.092C12.2269 12.8526 14 10.8561 14 8V2.42215ZM6.3007 10.3633L3.332 7.42699L4.3218 6.44775L6.3014 8.40554L10.2613 4.49066L11.2518 5.4692L6.3007 10.3633Z" fill="#D5FF02"/>
</svg>
