<svg width="36" height="36" viewBox="0 0 36 36" fill="none" xmlns="http://www.w3.org/2000/svg">
<g clip-path="url(#clip0_541_10138)">
<path d="M10.2891 9.23828L23.6031 26.6458H25.6431L12.4806 9.23828H10.2891Z" fill="#FF6A00"/>
<path d="M18 0C8.0595 0 0 8.0595 0 18C0 27.9405 8.0595 36 18 36C27.9405 36 36 27.9405 36 18C36 8.0595 27.9405 0 18 0ZM22.5945 28.848L16.7895 21.2655L10.1565 28.848H6.4695L15.069 19.017L6 7.152H13.593L18.834 14.0835L24.8985 7.152H28.581L20.5395 16.341L30 28.8465L22.5945 28.848Z" fill="#FF6A00"/>
</g>
<defs>
<clipPath id="clip0_541_10138">
<rect width="36" height="36" fill="white"/>
</clipPath>
</defs>
</svg>
