<svg width="38" height="38" viewBox="0 0 38 38" fill="none" xmlns="http://www.w3.org/2000/svg">
<g clip-path="url(#clip0_7146_10260)">
<path opacity="0.6" d="M30.8001 0C29.1971 0.00203656 27.6604 0.641795 26.5275 1.77879C25.3947 2.91578 24.7582 4.45705 24.7578 6.06416C25.0891 14.1043 36.5202 14.0953 36.8487 6.06412C36.848 4.45602 36.2105 2.914 35.0763 1.77691C33.9421 0.639825 32.404 0.00070424 30.8001 0ZM32.0124 4.88698V7.33048C32.0284 7.83718 31.8439 8.32967 31.499 8.70044C31.1542 9.07121 30.677 9.29014 30.1717 9.30945H29.6259C29.2013 9.2827 28.8028 9.09475 28.5116 8.78384C28.2204 8.47293 28.0582 8.06243 28.0582 7.63591C28.0582 7.20938 28.2204 6.79889 28.5116 6.48798C28.8028 6.17707 29.2013 5.98911 29.6259 5.96237C29.7974 5.96171 29.9625 6.02757 30.0867 6.14616C30.2109 6.26476 30.2846 6.4269 30.2923 6.59869C30.2955 6.68095 30.282 6.763 30.2528 6.83995C30.2237 6.9169 30.1793 6.98716 30.1224 7.04655C30.0656 7.10594 29.9974 7.15324 29.9219 7.18562C29.8464 7.218 29.7652 7.2348 29.683 7.23502C29.4832 7.20901 29.3301 7.39056 29.3276 7.63591C29.3276 7.85227 29.4609 8.03679 29.6259 8.03679H30.1717C30.3401 8.01731 30.4942 7.93246 30.601 7.80044C30.7078 7.66842 30.7588 7.49972 30.743 7.33048V3.44887C30.746 3.32567 30.7842 3.20592 30.8533 3.10394C30.9223 3.00196 31.0191 2.92205 31.1322 2.87374C31.2453 2.82544 31.3699 2.81079 31.4911 2.83154C31.6123 2.85229 31.7249 2.90756 31.8156 2.99076C32.4134 3.56977 33.0495 4.10761 33.7197 4.60062C33.8135 4.60756 33.9046 4.6358 33.9859 4.6832C34.0673 4.7306 34.1369 4.79593 34.1893 4.87424C34.2366 4.94314 34.2697 5.0207 34.287 5.10248C34.3043 5.18426 34.3053 5.26865 34.2899 5.35082C34.2746 5.43299 34.2432 5.51132 34.1977 5.58132C34.1521 5.65131 34.0932 5.7116 34.0243 5.75874C33.7133 5.97511 33.4721 6.14055 32.0124 4.88698Z" fill="#FF6A00"/>
<path opacity="0.6" d="M6.61844 12.0909C8.22143 12.0906 9.75876 11.4523 10.8928 10.3164C12.0269 9.18046 12.665 7.63966 12.6671 6.03235C12.3455 -2.00859 0.898168 -2.013 0.576172 6.0324C0.577851 7.63871 1.21498 9.17874 2.34777 10.3146C3.48055 11.4504 5.01645 12.0892 6.61844 12.0909ZM4.51129 5.65049H5.49506V4.58133C5.49569 3.95871 5.74264 3.36178 6.18172 2.92152C6.62079 2.48126 7.21612 2.23365 7.83707 2.23301C8.49263 2.21781 9.71362 2.60113 9.27149 3.45495C9.1832 3.59757 9.04243 3.69958 8.87967 3.73888C8.71692 3.77818 8.54527 3.7516 8.40191 3.66491C8.23237 3.55949 8.03654 3.50433 7.83706 3.50581C7.69615 3.50564 7.55659 3.53334 7.42637 3.58733C7.29616 3.64132 7.17784 3.72053 7.0782 3.82044C6.97857 3.92034 6.89956 4.03898 6.84572 4.16954C6.79188 4.30011 6.76425 4.44004 6.76443 4.58133V5.65049H7.96397C8.13056 5.65313 8.28944 5.72134 8.40632 5.8404C8.5232 5.95946 8.58871 6.11983 8.58871 6.28689C8.58871 6.45395 8.5232 6.61432 8.40632 6.73338C8.28944 6.85244 8.13056 6.92065 7.96397 6.92329H6.76444V9.19523C6.7647 9.27898 6.74848 9.36195 6.7167 9.43939C6.68493 9.51684 6.63822 9.58723 6.57925 9.64654C6.52029 9.70585 6.45023 9.7529 6.3731 9.78501C6.29596 9.81712 6.21327 9.83365 6.12975 9.83365C6.04623 9.83365 5.96353 9.81712 5.8864 9.78501C5.80926 9.7529 5.7392 9.70585 5.68024 9.64654C5.62128 9.58723 5.57457 9.51684 5.54279 9.43939C5.51101 9.36195 5.49479 9.27898 5.49506 9.19523V6.92329H4.51129C4.34469 6.92065 4.18581 6.85244 4.06893 6.73338C3.95205 6.61432 3.88655 6.45395 3.88655 6.28689C3.88655 6.11983 3.95205 5.95946 4.06893 5.8404C4.18581 5.72134 4.34469 5.65313 4.51129 5.65049Z" fill="#FF6A00"/>
<g opacity="0.6">
<path d="M18.5447 12.0909C20.1516 12.0884 21.692 11.4485 22.8277 10.3116C23.9634 9.17474 24.6017 7.63374 24.6025 6.02677C24.2728 -2.01327 12.8113 -2.00459 12.4805 6.02681C12.4827 7.63443 13.1224 9.17555 14.2591 10.3123C15.3959 11.449 16.937 12.0887 18.5447 12.0909ZM15.1771 4.27715C15.1767 3.84902 15.3462 3.43822 15.6483 3.13489C15.9505 2.83157 16.3606 2.66049 16.7887 2.65919H20.2943C20.7231 2.66024 21.134 2.83104 21.4372 3.13424C21.7404 3.43744 21.9112 3.84836 21.9122 4.27715V7.78267C21.911 8.21081 21.7399 8.62095 21.4366 8.9231C21.1332 9.22525 20.7224 9.39473 20.2943 9.39435H16.7887C16.5771 9.39441 16.3675 9.35277 16.1719 9.2718C15.9763 9.19083 15.7986 9.07212 15.649 8.92245C15.4993 8.77277 15.3806 8.59508 15.2996 8.39951C15.2187 8.20394 15.177 7.99434 15.1771 7.78267V4.27715Z" fill="#FF6A00"/>
<path d="M16.7891 8.14029H20.2947C20.3421 8.14095 20.3892 8.13221 20.4332 8.11456C20.4772 8.09691 20.5173 8.07071 20.5511 8.03746C20.5849 8.00422 20.6118 7.9646 20.6303 7.92089C20.6487 7.87719 20.6582 7.83026 20.6584 7.78283V4.27731C20.6583 4.18087 20.62 4.08839 20.5518 4.0202C20.4836 3.952 20.3911 3.91365 20.2947 3.91357H16.7891C16.7417 3.91374 16.6948 3.9233 16.651 3.94172C16.6073 3.96013 16.5677 3.98703 16.5345 4.02086C16.5012 4.05469 16.475 4.09477 16.4574 4.13879C16.4397 4.18281 16.431 4.22989 16.4317 4.27731V7.78283C16.4311 7.82992 16.44 7.87665 16.4578 7.92026C16.4755 7.96387 16.5018 8.00349 16.5351 8.0368C16.5684 8.0701 16.6081 8.09641 16.6517 8.11418C16.6953 8.13195 16.742 8.14083 16.7891 8.14029ZM18.545 4.30866C18.9977 4.31452 19.4299 4.49847 19.7479 4.82067C20.066 5.14286 20.2443 5.57737 20.2443 6.0301C20.2443 6.48283 20.0659 6.91733 19.7479 7.23952C19.4298 7.5617 18.9977 7.74563 18.545 7.75149C18.0923 7.74562 17.6601 7.56167 17.3421 7.23948C17.024 6.91728 16.8457 6.48277 16.8457 6.03004C16.8457 5.57732 17.0241 5.14281 17.3421 4.82063C17.6602 4.49844 18.0923 4.31451 18.545 4.30866Z" fill="#FF6A00"/>
<path d="M18.545 6.49688C18.6668 6.49369 18.7825 6.44307 18.8675 6.3558C18.9525 6.26853 19.0001 6.15151 19.0001 6.02968C19.0001 5.90784 18.9525 5.79083 18.8675 5.70356C18.7825 5.6163 18.6668 5.56568 18.545 5.5625C18.4232 5.56569 18.3074 5.61631 18.2224 5.70358C18.1374 5.79086 18.0898 5.90787 18.0898 6.02971C18.0898 6.15154 18.1374 6.26856 18.2224 6.35582C18.3075 6.44309 18.4232 6.4937 18.545 6.49688Z" fill="#FF6A00"/>
</g>
<path d="M14.0905 30.6268L23.6161 30.6268C23.9588 30.6266 24.2955 30.5373 24.5933 30.3676C24.891 30.1979 25.1395 29.9537 25.3143 29.659L28.5261 24.1699C28.7495 23.7931 28.8395 23.3519 28.7816 22.9176C28.7236 22.4833 28.5211 22.0812 28.2067 21.776C24.7595 18.3828 21.9887 14.3651 20.0419 9.93708C19.9382 9.70996 19.7715 9.51743 19.5615 9.38243C19.3515 9.24743 19.1071 9.17565 18.8574 9.17565C18.6078 9.17565 18.3634 9.24743 18.1534 9.38243C17.9434 9.51743 17.7766 9.70996 17.673 9.93708C15.7245 14.364 12.9523 18.3802 9.50401 21.7719C9.18957 22.077 8.98706 22.4791 8.92912 22.9134C8.87118 23.3477 8.96119 23.7889 9.18464 24.1658L12.3922 29.659C12.567 29.9537 12.8155 30.1979 13.1133 30.3676C13.411 30.5373 13.7478 30.6266 14.0905 30.6268ZM15.5582 23.4659C15.5582 22.8142 15.7514 22.1771 16.1135 21.6352C16.4756 21.0933 16.9902 20.671 17.5923 20.4216C18.1944 20.1721 18.857 20.1069 19.4962 20.234C20.1354 20.3612 20.7225 20.675 21.1834 21.1358C21.6442 21.5967 21.958 22.1838 22.0852 22.823C22.2123 23.4622 22.1471 24.1248 21.8976 24.7269C21.6482 25.329 21.2259 25.8436 20.684 26.2057C20.1421 26.5678 19.505 26.761 18.8533 26.761C17.9797 26.76 17.1422 26.4125 16.5245 25.7947C15.9067 25.177 15.5592 24.3395 15.5582 23.4659Z" fill="#FF6A00"/>
<path d="M13.1091 39.7273L24.5994 39.7273C25.7192 39.7273 26.627 38.8261 26.627 37.7144L26.627 33.6565C26.627 32.5448 25.7192 31.6437 24.5994 31.6437L13.1091 31.6437C11.9893 31.6437 11.0815 32.5448 11.0815 33.6565L11.0815 37.7144C11.0815 38.8261 11.9893 39.7273 13.1091 39.7273Z" fill="#FF6A00"/>
</g>
<defs>
<clipPath id="clip0_7146_10260">
<rect width="38" height="38" fill="white"/>
</clipPath>
</defs>
</svg>
