<svg width="66" height="66" viewBox="0 0 66 66" fill="none" xmlns="http://www.w3.org/2000/svg">
<g clip-path="url(#clip0_7159_24248)">
<path opacity="0.6" d="M53.4944 0C50.7103 0.00353718 48.0414 1.1147 46.0738 3.08947C44.1061 5.06425 43.0006 7.7412 43 10.5325C43.5754 24.497 63.4295 24.4813 64 10.5324C63.9987 7.7394 62.8915 5.06115 60.9216 3.08621C58.9517 1.11127 56.2803 0.00122315 53.4944 0ZM55.6 8.48791V12.7319C55.6279 13.6119 55.3074 14.4673 54.7084 15.1113C54.1095 15.7553 53.2807 16.1355 52.4031 16.169H51.4551C50.7176 16.1226 50.0256 15.7961 49.5197 15.2561C49.0139 14.7161 48.7323 14.0032 48.7323 13.2624C48.7323 12.5216 49.0139 11.8086 49.5197 11.2686C50.0256 10.7286 50.7176 10.4021 51.4551 10.3557C51.753 10.3546 52.0398 10.4689 52.2555 10.6749C52.4712 10.8809 52.5992 11.1625 52.6126 11.4609C52.618 11.6038 52.5947 11.7463 52.544 11.8799C52.4933 12.0136 52.4163 12.1356 52.3175 12.2388C52.2188 12.3419 52.1003 12.424 51.9692 12.4803C51.838 12.5365 51.697 12.5657 51.5543 12.5661C51.2072 12.5209 50.9413 12.8362 50.937 13.2624C50.937 13.6382 51.1685 13.9586 51.4551 13.9586H52.4031C52.6956 13.9248 52.9633 13.7774 53.1487 13.5481C53.3342 13.3188 53.4227 13.0258 53.3953 12.7319V5.99015C53.4005 5.77616 53.467 5.56818 53.5869 5.39106C53.7067 5.21393 53.8749 5.07513 54.0714 4.99124C54.2678 4.90735 54.4842 4.8819 54.6946 4.91794C54.9051 4.95398 55.1008 5.04998 55.2583 5.19448C56.2966 6.20012 57.4014 7.13427 58.5653 7.99055C58.7283 8.00261 58.8865 8.05165 59.0278 8.13398C59.1691 8.2163 59.2899 8.32977 59.3811 8.46578C59.4631 8.58545 59.5207 8.72016 59.5507 8.8622C59.5807 9.00425 59.5824 9.15082 59.5558 9.29353C59.5292 9.43625 59.4747 9.57229 59.3955 9.69386C59.3164 9.81544 59.2141 9.92015 59.0945 10.002C58.5543 10.3778 58.1354 10.6652 55.6 8.48791Z" fill="#FF6A00"/>
<path opacity="0.6" d="M11.4945 21C14.2786 20.9994 16.9487 19.8909 18.9184 17.918C20.8882 15.945 21.9965 13.2689 22 10.4772C21.4414 -3.4886 1.55926 -3.49625 1 10.4773C1.00292 13.2672 2.10952 15.942 4.07698 17.9148C6.04444 19.8875 8.71206 20.9971 11.4945 21ZM7.83467 9.814H9.54332V7.95705C9.54442 6.87566 9.97334 5.83888 10.7359 5.07422C11.4985 4.30956 12.5325 3.87949 13.611 3.87839C14.7496 3.85198 16.8703 4.51776 16.1024 6.00071C15.9491 6.24842 15.7046 6.42559 15.4219 6.49384C15.1392 6.5621 14.8411 6.51594 14.5921 6.36538C14.2976 6.18228 13.9575 6.08647 13.611 6.08905C13.3663 6.08874 13.1239 6.13685 12.8977 6.23062C12.6716 6.32439 12.4661 6.46197 12.293 6.63549C12.12 6.80902 11.9827 7.01506 11.8892 7.24184C11.7957 7.46861 11.7477 7.71166 11.748 7.95705V9.814H13.8314C14.1208 9.81859 14.3967 9.93706 14.5997 10.1439C14.8027 10.3506 14.9165 10.6292 14.9165 10.9193C14.9165 11.2095 14.8027 11.488 14.5997 11.6948C14.3967 11.9016 14.1208 12.0201 13.8314 12.0247H11.748V15.9707C11.7485 16.1161 11.7203 16.2602 11.6651 16.3947C11.6099 16.5292 11.5288 16.6515 11.4264 16.7545C11.324 16.8575 11.2023 16.9393 11.0683 16.995C10.9344 17.0508 10.7907 17.0795 10.6457 17.0795C10.5006 17.0795 10.357 17.0508 10.223 16.995C10.0891 16.9393 9.96737 16.8575 9.86496 16.7545C9.76255 16.6515 9.68143 16.5292 9.62623 16.3947C9.57104 16.2602 9.54287 16.1161 9.54332 15.9707V12.0247H7.83467C7.54533 12.0201 7.26938 11.9016 7.06638 11.6948C6.86337 11.488 6.7496 11.2095 6.7496 10.9193C6.7496 10.6292 6.86337 10.3506 7.06638 10.1439C7.26938 9.93706 7.54533 9.81859 7.83467 9.814Z" fill="#FF6A00"/>
<g opacity="0.6">
<path d="M32.2083 21C34.9994 20.9957 37.6747 19.8842 39.6472 17.9097C41.6198 15.9351 42.7284 13.2586 42.7299 10.4675C42.1573 -3.49673 22.2504 -3.48166 21.6758 10.4676C21.6797 13.2598 22.7907 15.9365 24.7651 17.9108C26.7394 19.8852 29.4162 20.9961 32.2083 21ZM26.3594 7.42873C26.3587 6.68514 26.6531 5.97164 27.1778 5.44481C27.7026 4.91798 28.4149 4.62085 29.1585 4.6186H35.2471C35.9919 4.62042 36.7056 4.91707 37.2322 5.44368C37.7588 5.97029 38.0555 6.684 38.0573 7.42873V13.5173C38.055 14.2609 37.7579 14.9732 37.2311 15.498C36.7043 16.0228 35.9908 16.3172 35.2471 16.3165H29.1585C28.7909 16.3166 28.4269 16.2443 28.0872 16.1037C27.7475 15.963 27.4389 15.7568 27.179 15.4969C26.919 15.2369 26.7128 14.9283 26.5722 14.5886C26.4316 14.249 26.3593 13.8849 26.3594 13.5173V7.42873Z" fill="#FF6A00"/>
<path d="M29.158 14.1385H35.2466C35.3289 14.1397 35.4107 14.1245 35.4872 14.0938C35.5636 14.0632 35.6332 14.0176 35.692 13.9599C35.7507 13.9022 35.7975 13.8334 35.8294 13.7574C35.8614 13.6815 35.878 13.6 35.8783 13.5177V7.42912C35.8782 7.26161 35.8116 7.101 35.6931 6.98255C35.5747 6.8641 35.4141 6.7975 35.2466 6.79736H29.158C29.0756 6.79764 28.9941 6.81426 28.9182 6.84624C28.8423 6.87823 28.7735 6.92495 28.7157 6.9837C28.658 7.04245 28.6125 7.11207 28.5818 7.18853C28.5512 7.26498 28.536 7.34676 28.5372 7.42912V13.5177C28.5362 13.5994 28.5516 13.6806 28.5825 13.7563C28.6134 13.8321 28.659 13.9009 28.7169 13.9587C28.7747 14.0166 28.8435 14.0623 28.9193 14.0931C28.995 14.124 29.0762 14.1394 29.158 14.1385ZM32.2077 7.48356C32.994 7.49375 33.7446 7.81324 34.297 8.37284C34.8494 8.93245 35.1591 9.68712 35.1591 10.4734C35.1591 11.2597 34.8493 12.0144 34.2969 12.574C33.7445 13.1336 32.9939 13.453 32.2076 13.4632C31.4214 13.453 30.6708 13.1335 30.1184 12.5739C29.566 12.0143 29.2563 11.2597 29.2563 10.4733C29.2563 9.68702 29.5661 8.93236 30.1185 8.37277C30.6709 7.81319 31.4215 7.49372 32.2077 7.48356Z" fill="#FF6A00"/>
<path d="M32.2085 11.284C32.42 11.2785 32.621 11.1905 32.7687 11.039C32.9163 10.8874 32.999 10.6842 32.999 10.4725C32.9989 10.2609 32.9163 10.0577 32.7686 9.90614C32.621 9.75457 32.42 9.66666 32.2084 9.66113C31.9969 9.66667 31.7959 9.7546 31.6482 9.90617C31.5006 10.0577 31.418 10.261 31.418 10.4726C31.418 10.6842 31.5006 10.8874 31.6483 11.039C31.7959 11.1906 31.997 11.2785 32.2085 11.284Z" fill="#FF6A00"/>
</g>
<path d="M24.4727 53.1936L41.0172 53.1936C41.6124 53.1934 42.1973 53.0382 42.7144 52.7435C43.2315 52.4488 43.6631 52.0246 43.9667 51.5127L49.545 41.9791C49.9331 41.3245 50.0895 40.5583 49.9888 39.804C49.8882 39.0497 49.5365 38.3512 48.9903 37.8213C43.0031 31.9277 38.1907 24.9497 34.8094 17.2589C34.6294 16.8644 34.3397 16.53 33.975 16.2955C33.6102 16.0611 33.1858 15.9364 32.7522 15.9364C32.3186 15.9364 31.8941 16.0611 31.5294 16.2955C31.1646 16.53 30.875 16.8644 30.695 17.2589C27.3107 24.9477 22.4959 31.9232 16.5068 37.8141C15.9606 38.344 15.6089 39.0424 15.5083 39.7968C15.4076 40.5511 15.564 41.3173 15.9521 41.9719L21.5232 51.5127C21.8268 52.0246 22.2583 52.4488 22.7755 52.7435C23.2926 53.0382 23.8775 53.1934 24.4727 53.1936ZM27.0219 40.7564C27.0219 39.6244 27.3575 38.5179 27.9864 37.5767C28.6152 36.6355 29.5091 35.9019 30.5548 35.4688C31.6006 35.0356 32.7514 34.9222 33.8616 35.143C34.9718 35.3639 35.9915 35.909 36.7919 36.7094C37.5923 37.5098 38.1374 38.5295 38.3583 39.6397C38.5791 40.7499 38.4657 41.9007 38.0325 42.9465C37.5994 43.9922 36.8658 44.8861 35.9246 45.5149C34.9834 46.1438 33.8769 46.4794 32.7449 46.4794C31.2277 46.4776 29.773 45.874 28.7002 44.8011C27.6273 43.7282 27.0237 42.2736 27.0219 40.7564Z" fill="#FF6A00"/>
<path d="M22.7696 68.9995L42.7265 68.9995C44.6714 68.9995 46.248 67.4343 46.248 65.5035L46.248 58.4555C46.248 56.5247 44.6714 54.9595 42.7265 54.9595L22.7696 54.9595C20.8247 54.9595 19.248 56.5247 19.248 58.4555L19.248 65.5035C19.248 67.4343 20.8247 68.9995 22.7696 68.9995Z" fill="#FF6A00"/>
</g>
<defs>
<clipPath id="clip0_7159_24248">
<rect width="66" height="66" fill="white"/>
</clipPath>
</defs>
</svg>
