<svg width="397" height="393" viewBox="0 0 397 393" fill="none" xmlns="http://www.w3.org/2000/svg">
<g clip-path="url(#clip0_7159_23842)">
<path d="M0 24C0 10.7452 10.7452 0 24 0H373C386.255 0 397 10.7452 397 24V393H0V24Z" fill="white"/>
<rect x="37.5" y="91.5" width="322" height="39" rx="19.5" fill="#EEF3EE"/>
<rect x="37.5" y="91.5" width="322" height="39" rx="19.5" stroke="#FF6A00" stroke-width="3"/>
<path d="M63.934 105.854C65.1287 105.854 66.0527 106.106 66.706 106.61C67.3593 107.105 67.686 107.847 67.686 108.836C67.686 109.891 67.3453 110.675 66.664 111.188C65.9827 111.701 65.0773 111.958 63.948 111.958H62.73V115.5H61.4V105.854H63.934ZM63.892 110.908C64.6667 110.908 65.2547 110.759 65.656 110.46C66.0667 110.161 66.272 109.625 66.272 108.85C66.272 108.159 66.0667 107.66 65.656 107.352C65.2547 107.044 64.676 106.89 63.92 106.89H62.73V110.908H63.892ZM72.3973 107.954C72.6587 107.954 72.9013 107.982 73.1253 108.038L72.8873 109.298C72.6633 109.242 72.4487 109.214 72.2433 109.214C71.786 109.214 71.4173 109.382 71.1373 109.718C70.8573 110.054 70.638 110.577 70.4793 111.286V115.5H69.1913V108.122H70.2973L70.4233 109.62C70.6193 109.069 70.8853 108.654 71.2213 108.374C71.5573 108.094 71.9493 107.954 72.3973 107.954ZM76.9399 107.954C77.9759 107.954 78.7786 108.299 79.3479 108.99C79.9266 109.681 80.2159 110.619 80.2159 111.804C80.2159 112.569 80.0852 113.246 79.8239 113.834C79.5626 114.413 79.1846 114.865 78.6899 115.192C78.1952 115.509 77.6072 115.668 76.9259 115.668C75.8899 115.668 75.0826 115.323 74.5039 114.632C73.9252 113.941 73.6359 113.003 73.6359 111.818C73.6359 111.053 73.7666 110.381 74.0279 109.802C74.2892 109.214 74.6672 108.761 75.1619 108.444C75.6566 108.117 76.2492 107.954 76.9399 107.954ZM76.9399 108.99C75.6612 108.99 75.0219 109.933 75.0219 111.818C75.0219 113.694 75.6566 114.632 76.9259 114.632C78.1952 114.632 78.8299 113.689 78.8299 111.804C78.8299 109.928 78.1999 108.99 76.9399 108.99ZM83.6037 115.052C83.6037 115.733 83.5197 116.279 83.3517 116.69C83.1837 117.101 82.9363 117.432 82.6097 117.684C82.2923 117.945 81.8443 118.207 81.2657 118.468L80.8877 117.53C81.2517 117.362 81.5317 117.194 81.7277 117.026C81.9237 116.867 82.0683 116.639 82.1617 116.34C82.2643 116.051 82.3157 115.649 82.3157 115.136V108.122H83.6037V115.052ZM82.9597 104.58C83.2303 104.58 83.4497 104.664 83.6177 104.832C83.7857 105 83.8697 105.21 83.8697 105.462C83.8697 105.714 83.7857 105.924 83.6177 106.092C83.4497 106.251 83.2303 106.33 82.9597 106.33C82.6983 106.33 82.4837 106.251 82.3157 106.092C82.1477 105.924 82.0637 105.714 82.0637 105.462C82.0637 105.21 82.1477 105 82.3157 104.832C82.4837 104.664 82.6983 104.58 82.9597 104.58ZM91.8395 111.594C91.8395 111.809 91.8302 112.028 91.8115 112.252H87.1075C87.1635 113.064 87.3688 113.661 87.7235 114.044C88.0782 114.427 88.5355 114.618 89.0955 114.618C89.4502 114.618 89.7768 114.567 90.0755 114.464C90.3742 114.361 90.6868 114.198 91.0135 113.974L91.5735 114.744C90.7895 115.36 89.9308 115.668 88.9975 115.668C87.9708 115.668 87.1682 115.332 86.5895 114.66C86.0202 113.988 85.7355 113.064 85.7355 111.888C85.7355 111.123 85.8568 110.446 86.0995 109.858C86.3515 109.261 86.7062 108.794 87.1635 108.458C87.6302 108.122 88.1762 107.954 88.8015 107.954C89.7815 107.954 90.5328 108.276 91.0555 108.92C91.5782 109.564 91.8395 110.455 91.8395 111.594ZM90.5655 111.216C90.5655 110.488 90.4208 109.933 90.1315 109.55C89.8422 109.167 89.4082 108.976 88.8295 108.976C87.7748 108.976 87.2008 109.751 87.1075 111.3H90.5655V111.216ZM96.5844 107.954C97.0231 107.954 97.4244 108.019 97.7884 108.15C98.1524 108.271 98.5024 108.472 98.8384 108.752L98.2224 109.564C97.9611 109.377 97.7044 109.242 97.4524 109.158C97.2097 109.065 96.9391 109.018 96.6404 109.018C96.0431 109.018 95.5764 109.256 95.2404 109.732C94.9137 110.208 94.7504 110.913 94.7504 111.846C94.7504 112.779 94.9137 113.47 95.2404 113.918C95.5671 114.357 96.0337 114.576 96.6404 114.576C96.9297 114.576 97.1957 114.534 97.4384 114.45C97.6811 114.357 97.9517 114.212 98.2504 114.016L98.8384 114.856C98.1664 115.397 97.4151 115.668 96.5844 115.668C95.5857 115.668 94.7971 115.332 94.2184 114.66C93.6491 113.988 93.3644 113.059 93.3644 111.874C93.3644 111.09 93.4951 110.404 93.7564 109.816C94.0177 109.228 94.3864 108.771 94.8624 108.444C95.3477 108.117 95.9217 107.954 96.5844 107.954ZM104.306 115.164C103.821 115.5 103.27 115.668 102.654 115.668C102.029 115.668 101.539 115.491 101.184 115.136C100.839 114.772 100.666 114.249 100.666 113.568V109.116H99.378V108.122H100.666V106.456L101.954 106.302V108.122H103.704L103.564 109.116H101.954V113.512C101.954 113.895 102.019 114.175 102.15 114.352C102.29 114.52 102.519 114.604 102.836 114.604C103.125 114.604 103.452 114.506 103.816 114.31L104.306 115.164ZM116.178 115.5H114.4L110.48 107.31C110.536 107.954 110.578 108.551 110.606 109.102C110.643 109.643 110.662 110.301 110.662 111.076V115.5H109.416V105.854H111.152L115.114 114.058C115.086 113.815 115.048 113.391 115.002 112.784C114.955 112.177 114.932 111.622 114.932 111.118V105.854H116.178V115.5ZM123.872 113.778C123.872 114.077 123.924 114.301 124.026 114.45C124.129 114.59 124.283 114.697 124.488 114.772L124.194 115.668C123.812 115.621 123.504 115.514 123.27 115.346C123.037 115.178 122.864 114.917 122.752 114.562C122.258 115.299 121.525 115.668 120.554 115.668C119.826 115.668 119.252 115.463 118.832 115.052C118.412 114.641 118.202 114.105 118.202 113.442C118.202 112.658 118.482 112.056 119.042 111.636C119.612 111.216 120.414 111.006 121.45 111.006H122.584V110.46C122.584 109.937 122.458 109.564 122.206 109.34C121.954 109.116 121.567 109.004 121.044 109.004C120.503 109.004 119.84 109.135 119.056 109.396L118.734 108.458C119.649 108.122 120.498 107.954 121.282 107.954C122.15 107.954 122.799 108.169 123.228 108.598C123.658 109.018 123.872 109.62 123.872 110.404V113.778ZM120.848 114.702C121.586 114.702 122.164 114.319 122.584 113.554V111.86H121.618C120.256 111.86 119.574 112.364 119.574 113.372C119.574 113.811 119.682 114.142 119.896 114.366C120.111 114.59 120.428 114.702 120.848 114.702ZM133.924 107.954C134.53 107.954 135.016 108.159 135.38 108.57C135.744 108.971 135.926 109.517 135.926 110.208V115.5H134.638V110.39C134.638 109.438 134.292 108.962 133.602 108.962C133.238 108.962 132.93 109.069 132.678 109.284C132.426 109.489 132.155 109.816 131.866 110.264V115.5H130.578V110.39C130.578 109.438 130.232 108.962 129.542 108.962C129.168 108.962 128.856 109.069 128.604 109.284C128.352 109.499 128.086 109.825 127.806 110.264V115.5H126.518V108.122H127.624L127.736 109.2C128.286 108.369 128.996 107.954 129.864 107.954C130.321 107.954 130.708 108.071 131.026 108.304C131.352 108.537 131.586 108.864 131.726 109.284C132.015 108.855 132.332 108.528 132.678 108.304C133.032 108.071 133.448 107.954 133.924 107.954ZM144.093 111.594C144.093 111.809 144.084 112.028 144.065 112.252H139.361C139.417 113.064 139.623 113.661 139.977 114.044C140.332 114.427 140.789 114.618 141.349 114.618C141.704 114.618 142.031 114.567 142.329 114.464C142.628 114.361 142.941 114.198 143.267 113.974L143.827 114.744C143.043 115.36 142.185 115.668 141.251 115.668C140.225 115.668 139.422 115.332 138.843 114.66C138.274 113.988 137.989 113.064 137.989 111.888C137.989 111.123 138.111 110.446 138.353 109.858C138.605 109.261 138.96 108.794 139.417 108.458C139.884 108.122 140.43 107.954 141.055 107.954C142.035 107.954 142.787 108.276 143.309 108.92C143.832 109.564 144.093 110.455 144.093 111.594ZM142.819 111.216C142.819 110.488 142.675 109.933 142.385 109.55C142.096 109.167 141.662 108.976 141.083 108.976C140.029 108.976 139.455 109.751 139.361 111.3H142.819V111.216Z" fill="#0B0C0B"/>
<path d="M153.916 105.316V116.224H152.92V105.316H153.916Z" fill="white"/>
<rect x="36" y="138" width="325" height="42" rx="21" fill="#EEF3EE"/>
<path opacity="0.7" d="M63.416 153.854C64.872 153.854 66.0387 154.195 66.916 154.876C67.8027 155.548 68.246 156.799 68.246 158.628C68.246 160.411 67.8027 161.671 66.916 162.408C66.0387 163.136 64.97 163.5 63.71 163.5H61.4V153.854H63.416ZM62.73 154.918V162.45H63.808C64.704 162.45 65.432 162.175 65.992 161.624C66.552 161.073 66.832 160.075 66.832 158.628C66.832 157.611 66.6873 156.831 66.398 156.29C66.1087 155.739 65.74 155.375 65.292 155.198C64.844 155.011 64.3167 154.918 63.71 154.918H62.73ZM75.9118 159.594C75.9118 159.809 75.9024 160.028 75.8838 160.252H71.1798C71.2358 161.064 71.4411 161.661 71.7958 162.044C72.1504 162.427 72.6078 162.618 73.1678 162.618C73.5224 162.618 73.8491 162.567 74.1478 162.464C74.4464 162.361 74.7591 162.198 75.0858 161.974L75.6458 162.744C74.8618 163.36 74.0031 163.668 73.0698 163.668C72.0431 163.668 71.2404 163.332 70.6618 162.66C70.0924 161.988 69.8078 161.064 69.8078 159.888C69.8078 159.123 69.9291 158.446 70.1718 157.858C70.4238 157.261 70.7784 156.794 71.2358 156.458C71.7024 156.122 72.2484 155.954 72.8738 155.954C73.8538 155.954 74.6051 156.276 75.1278 156.92C75.6504 157.564 75.9118 158.455 75.9118 159.594ZM74.6378 159.216C74.6378 158.488 74.4931 157.933 74.2038 157.55C73.9144 157.167 73.4804 156.976 72.9018 156.976C71.8471 156.976 71.2731 157.751 71.1798 159.3H74.6378V159.216ZM79.9707 155.954C80.4747 155.954 80.9273 156.024 81.3287 156.164C81.73 156.304 82.1127 156.514 82.4767 156.794L81.9307 157.606C81.5947 157.391 81.2727 157.233 80.9647 157.13C80.666 157.027 80.3487 156.976 80.0127 156.976C79.5927 156.976 79.2613 157.065 79.0187 157.242C78.776 157.41 78.6547 157.643 78.6547 157.942C78.6547 158.241 78.7667 158.474 78.9907 158.642C79.224 158.81 79.6393 158.973 80.2367 159.132C81.058 159.337 81.6693 159.617 82.0707 159.972C82.4813 160.327 82.6867 160.812 82.6867 161.428C82.6867 162.156 82.402 162.711 81.8327 163.094C81.2727 163.477 80.5867 163.668 79.7747 163.668C78.6547 163.668 77.726 163.346 76.9887 162.702L77.6747 161.918C78.3 162.394 78.9907 162.632 79.7467 162.632C80.232 162.632 80.6147 162.534 80.8947 162.338C81.184 162.133 81.3287 161.857 81.3287 161.512C81.3287 161.26 81.2773 161.059 81.1747 160.91C81.072 160.751 80.8947 160.616 80.6427 160.504C80.3907 160.383 80.022 160.257 79.5367 160.126C78.7527 159.921 78.1833 159.645 77.8287 159.3C77.4833 158.955 77.3107 158.516 77.3107 157.984C77.3107 157.601 77.4227 157.256 77.6467 156.948C77.88 156.631 78.1973 156.388 78.5987 156.22C79.0093 156.043 79.4667 155.954 79.9707 155.954ZM85.7918 156.122V163.5H84.5038V156.122H85.7918ZM85.1338 152.58C85.4045 152.58 85.6238 152.664 85.7918 152.832C85.9598 153 86.0438 153.21 86.0438 153.462C86.0438 153.714 85.9598 153.924 85.7918 154.092C85.6238 154.251 85.4045 154.33 85.1338 154.33C84.8725 154.33 84.6578 154.251 84.4898 154.092C84.3218 153.924 84.2378 153.714 84.2378 153.462C84.2378 153.21 84.3218 153 84.4898 152.832C84.6578 152.664 84.8725 152.58 85.1338 152.58ZM94.405 156.458C94.125 156.551 93.817 156.612 93.481 156.64C93.145 156.668 92.7343 156.682 92.249 156.682C93.117 157.074 93.551 157.695 93.551 158.544C93.551 159.281 93.299 159.883 92.795 160.35C92.291 160.817 91.605 161.05 90.737 161.05C90.401 161.05 90.0883 161.003 89.799 160.91C89.687 160.985 89.5983 161.087 89.533 161.218C89.4677 161.339 89.435 161.465 89.435 161.596C89.435 161.997 89.757 162.198 90.401 162.198H91.577C92.0717 162.198 92.5103 162.287 92.893 162.464C93.2757 162.641 93.5697 162.884 93.775 163.192C93.9897 163.5 94.097 163.85 94.097 164.242C94.097 164.961 93.803 165.511 93.215 165.894C92.627 166.286 91.7683 166.482 90.639 166.482C89.8457 166.482 89.2157 166.398 88.749 166.23C88.2917 166.071 87.965 165.829 87.769 165.502C87.573 165.175 87.475 164.755 87.475 164.242H88.637C88.637 164.541 88.693 164.774 88.805 164.942C88.917 165.119 89.1177 165.25 89.407 165.334C89.6963 165.427 90.107 165.474 90.639 165.474C91.4137 165.474 91.9643 165.376 92.291 165.18C92.627 164.993 92.795 164.709 92.795 164.326C92.795 163.981 92.6643 163.719 92.403 163.542C92.1417 163.365 91.7777 163.276 91.311 163.276H90.149C89.5237 163.276 89.0477 163.145 88.721 162.884C88.4037 162.613 88.245 162.277 88.245 161.876C88.245 161.633 88.315 161.4 88.455 161.176C88.595 160.952 88.7957 160.751 89.057 160.574C88.6277 160.35 88.3103 160.075 88.105 159.748C87.909 159.412 87.811 159.006 87.811 158.53C87.811 158.035 87.9323 157.592 88.175 157.2C88.427 156.808 88.7677 156.505 89.197 156.29C89.6357 156.066 90.121 155.954 90.653 155.954C91.2317 155.963 91.717 155.945 92.109 155.898C92.501 155.842 92.823 155.772 93.075 155.688C93.3363 155.595 93.6537 155.464 94.027 155.296L94.405 156.458ZM90.653 156.878C90.1677 156.878 89.7897 157.032 89.519 157.34C89.2577 157.639 89.127 158.035 89.127 158.53C89.127 159.034 89.2623 159.44 89.533 159.748C89.8037 160.047 90.1863 160.196 90.681 160.196C91.185 160.196 91.5677 160.051 91.829 159.762C92.0997 159.463 92.235 159.048 92.235 158.516C92.235 157.424 91.7077 156.878 90.653 156.878ZM99.2004 155.954C99.8724 155.954 100.395 156.155 100.768 156.556C101.151 156.957 101.342 157.508 101.342 158.208V163.5H100.054V158.39C100.054 157.867 99.9564 157.499 99.7604 157.284C99.5644 157.069 99.2751 156.962 98.8924 156.962C98.5004 156.962 98.1551 157.074 97.8564 157.298C97.5578 157.522 97.2778 157.844 97.0164 158.264V163.5H95.7284V156.122H96.8344L96.9464 157.214C97.2078 156.822 97.5298 156.514 97.9124 156.29C98.3044 156.066 98.7338 155.954 99.2004 155.954ZM113.405 153.854L113.265 154.988H110.591V163.5H109.261V154.988H106.517V153.854H113.405ZM117.263 163.542C116.973 164.401 116.567 165.077 116.045 165.572C115.531 166.076 114.794 166.379 113.833 166.482L113.693 165.474C114.178 165.39 114.565 165.269 114.855 165.11C115.144 164.951 115.373 164.746 115.541 164.494C115.718 164.251 115.881 163.92 116.031 163.5H115.597L113.119 156.122H114.491L116.465 162.562L118.397 156.122H119.727L117.263 163.542ZM124.587 155.954C125.53 155.954 126.22 156.29 126.659 156.962C127.098 157.634 127.317 158.581 127.317 159.804C127.317 160.961 127.065 161.895 126.561 162.604C126.057 163.313 125.343 163.668 124.419 163.668C123.598 163.668 122.954 163.388 122.487 162.828V166.328L121.199 166.482V156.122H122.305L122.403 157.116C122.674 156.743 123 156.458 123.383 156.262C123.766 156.057 124.167 155.954 124.587 155.954ZM124.111 162.618C125.324 162.618 125.931 161.68 125.931 159.804C125.931 157.919 125.376 156.976 124.265 156.976C123.901 156.976 123.57 157.083 123.271 157.298C122.972 157.513 122.711 157.788 122.487 158.124V161.722C122.674 162.011 122.907 162.235 123.187 162.394C123.467 162.543 123.775 162.618 124.111 162.618ZM135.084 159.594C135.084 159.809 135.074 160.028 135.056 160.252H130.352C130.408 161.064 130.613 161.661 130.968 162.044C131.322 162.427 131.78 162.618 132.34 162.618C132.694 162.618 133.021 162.567 133.32 162.464C133.618 162.361 133.931 162.198 134.258 161.974L134.818 162.744C134.034 163.36 133.175 163.668 132.242 163.668C131.215 163.668 130.412 163.332 129.834 162.66C129.264 161.988 128.98 161.064 128.98 159.888C128.98 159.123 129.101 158.446 129.344 157.858C129.596 157.261 129.95 156.794 130.408 156.458C130.874 156.122 131.42 155.954 132.046 155.954C133.026 155.954 133.777 156.276 134.3 156.92C134.822 157.564 135.084 158.455 135.084 159.594ZM133.81 159.216C133.81 158.488 133.665 157.933 133.376 157.55C133.086 157.167 132.652 156.976 132.074 156.976C131.019 156.976 130.445 157.751 130.352 159.3H133.81V159.216Z" fill="#0B0C0B"/>
<rect x="36" y="186" width="325" height="113" rx="16" fill="#EEF3EE"/>
<path opacity="0.7" d="M63.416 201.354C64.872 201.354 66.0387 201.695 66.916 202.376C67.8027 203.048 68.246 204.299 68.246 206.128C68.246 207.911 67.8027 209.171 66.916 209.908C66.0387 210.636 64.97 211 63.71 211H61.4V201.354H63.416ZM62.73 202.418V209.95H63.808C64.704 209.95 65.432 209.675 65.992 209.124C66.552 208.573 66.832 207.575 66.832 206.128C66.832 205.111 66.6873 204.331 66.398 203.79C66.1087 203.239 65.74 202.875 65.292 202.698C64.844 202.511 64.3167 202.418 63.71 202.418H62.73ZM75.9118 207.094C75.9118 207.309 75.9024 207.528 75.8838 207.752H71.1798C71.2358 208.564 71.4411 209.161 71.7958 209.544C72.1504 209.927 72.6078 210.118 73.1678 210.118C73.5224 210.118 73.8491 210.067 74.1478 209.964C74.4464 209.861 74.7591 209.698 75.0858 209.474L75.6458 210.244C74.8618 210.86 74.0031 211.168 73.0698 211.168C72.0431 211.168 71.2404 210.832 70.6618 210.16C70.0924 209.488 69.8078 208.564 69.8078 207.388C69.8078 206.623 69.9291 205.946 70.1718 205.358C70.4238 204.761 70.7784 204.294 71.2358 203.958C71.7024 203.622 72.2484 203.454 72.8738 203.454C73.8538 203.454 74.6051 203.776 75.1278 204.42C75.6504 205.064 75.9118 205.955 75.9118 207.094ZM74.6378 206.716C74.6378 205.988 74.4931 205.433 74.2038 205.05C73.9144 204.667 73.4804 204.476 72.9018 204.476C71.8471 204.476 71.2731 205.251 71.1798 206.8H74.6378V206.716ZM79.9707 203.454C80.4747 203.454 80.9273 203.524 81.3287 203.664C81.73 203.804 82.1127 204.014 82.4767 204.294L81.9307 205.106C81.5947 204.891 81.2727 204.733 80.9647 204.63C80.666 204.527 80.3487 204.476 80.0127 204.476C79.5927 204.476 79.2613 204.565 79.0187 204.742C78.776 204.91 78.6547 205.143 78.6547 205.442C78.6547 205.741 78.7667 205.974 78.9907 206.142C79.224 206.31 79.6393 206.473 80.2367 206.632C81.058 206.837 81.6693 207.117 82.0707 207.472C82.4813 207.827 82.6867 208.312 82.6867 208.928C82.6867 209.656 82.402 210.211 81.8327 210.594C81.2727 210.977 80.5867 211.168 79.7747 211.168C78.6547 211.168 77.726 210.846 76.9887 210.202L77.6747 209.418C78.3 209.894 78.9907 210.132 79.7467 210.132C80.232 210.132 80.6147 210.034 80.8947 209.838C81.184 209.633 81.3287 209.357 81.3287 209.012C81.3287 208.76 81.2773 208.559 81.1747 208.41C81.072 208.251 80.8947 208.116 80.6427 208.004C80.3907 207.883 80.022 207.757 79.5367 207.626C78.7527 207.421 78.1833 207.145 77.8287 206.8C77.4833 206.455 77.3107 206.016 77.3107 205.484C77.3107 205.101 77.4227 204.756 77.6467 204.448C77.88 204.131 78.1973 203.888 78.5987 203.72C79.0093 203.543 79.4667 203.454 79.9707 203.454ZM87.1918 203.454C87.6305 203.454 88.0318 203.519 88.3958 203.65C88.7598 203.771 89.1098 203.972 89.4458 204.252L88.8298 205.064C88.5685 204.877 88.3118 204.742 88.0598 204.658C87.8172 204.565 87.5465 204.518 87.2478 204.518C86.6505 204.518 86.1838 204.756 85.8478 205.232C85.5212 205.708 85.3578 206.413 85.3578 207.346C85.3578 208.279 85.5212 208.97 85.8478 209.418C86.1745 209.857 86.6412 210.076 87.2478 210.076C87.5372 210.076 87.8032 210.034 88.0458 209.95C88.2885 209.857 88.5592 209.712 88.8578 209.516L89.4458 210.356C88.7738 210.897 88.0225 211.168 87.1918 211.168C86.1932 211.168 85.4045 210.832 84.8258 210.16C84.2565 209.488 83.9718 208.559 83.9718 207.374C83.9718 206.59 84.1025 205.904 84.3638 205.316C84.6252 204.728 84.9938 204.271 85.4698 203.944C85.9552 203.617 86.5292 203.454 87.1918 203.454ZM94.3954 203.454C94.6567 203.454 94.8994 203.482 95.1234 203.538L94.8854 204.798C94.6614 204.742 94.4467 204.714 94.2414 204.714C93.784 204.714 93.4154 204.882 93.1354 205.218C92.8554 205.554 92.636 206.077 92.4774 206.786V211H91.1894V203.622H92.2954L92.4214 205.12C92.6174 204.569 92.8834 204.154 93.2194 203.874C93.5554 203.594 93.9474 203.454 94.3954 203.454ZM97.8778 203.622V211H96.5898V203.622H97.8778ZM97.2198 200.08C97.4904 200.08 97.7098 200.164 97.8778 200.332C98.0458 200.5 98.1298 200.71 98.1298 200.962C98.1298 201.214 98.0458 201.424 97.8778 201.592C97.7098 201.751 97.4904 201.83 97.2198 201.83C96.9584 201.83 96.7438 201.751 96.5758 201.592C96.4078 201.424 96.3238 201.214 96.3238 200.962C96.3238 200.71 96.4078 200.5 96.5758 200.332C96.7438 200.164 96.9584 200.08 97.2198 200.08ZM103.929 203.454C104.872 203.454 105.562 203.79 106.001 204.462C106.44 205.134 106.659 206.081 106.659 207.304C106.659 208.461 106.407 209.395 105.903 210.104C105.399 210.813 104.685 211.168 103.761 211.168C102.94 211.168 102.296 210.888 101.829 210.328V213.828L100.541 213.982V203.622H101.647L101.745 204.616C102.016 204.243 102.342 203.958 102.725 203.762C103.108 203.557 103.509 203.454 103.929 203.454ZM103.453 210.118C104.666 210.118 105.273 209.18 105.273 207.304C105.273 205.419 104.718 204.476 103.607 204.476C103.243 204.476 102.912 204.583 102.613 204.798C102.314 205.013 102.053 205.288 101.829 205.624V209.222C102.016 209.511 102.249 209.735 102.529 209.894C102.809 210.043 103.117 210.118 103.453 210.118ZM112.577 210.664C112.092 211 111.541 211.168 110.925 211.168C110.3 211.168 109.81 210.991 109.455 210.636C109.11 210.272 108.937 209.749 108.937 209.068V204.616H107.649V203.622H108.937V201.956L110.225 201.802V203.622H111.975L111.835 204.616H110.225V209.012C110.225 209.395 110.291 209.675 110.421 209.852C110.561 210.02 110.79 210.104 111.107 210.104C111.397 210.104 111.723 210.006 112.087 209.81L112.577 210.664ZM115.2 203.622V211H113.912V203.622H115.2ZM114.542 200.08C114.813 200.08 115.032 200.164 115.2 200.332C115.368 200.5 115.452 200.71 115.452 200.962C115.452 201.214 115.368 201.424 115.2 201.592C115.032 201.751 114.813 201.83 114.542 201.83C114.281 201.83 114.066 201.751 113.898 201.592C113.73 201.424 113.646 201.214 113.646 200.962C113.646 200.71 113.73 200.5 113.898 200.332C114.066 200.164 114.281 200.08 114.542 200.08ZM120.635 203.454C121.671 203.454 122.474 203.799 123.043 204.49C123.622 205.181 123.911 206.119 123.911 207.304C123.911 208.069 123.781 208.746 123.519 209.334C123.258 209.913 122.88 210.365 122.385 210.692C121.891 211.009 121.303 211.168 120.621 211.168C119.585 211.168 118.778 210.823 118.199 210.132C117.621 209.441 117.331 208.503 117.331 207.318C117.331 206.553 117.462 205.881 117.723 205.302C117.985 204.714 118.363 204.261 118.857 203.944C119.352 203.617 119.945 203.454 120.635 203.454ZM120.635 204.49C119.357 204.49 118.717 205.433 118.717 207.318C118.717 209.194 119.352 210.132 120.621 210.132C121.891 210.132 122.525 209.189 122.525 207.304C122.525 205.428 121.895 204.49 120.635 204.49ZM129.511 203.454C130.183 203.454 130.706 203.655 131.079 204.056C131.462 204.457 131.653 205.008 131.653 205.708V211H130.365V205.89C130.365 205.367 130.267 204.999 130.071 204.784C129.875 204.569 129.586 204.462 129.203 204.462C128.811 204.462 128.466 204.574 128.167 204.798C127.868 205.022 127.588 205.344 127.327 205.764V211H126.039V203.622H127.145L127.257 204.714C127.518 204.322 127.84 204.014 128.223 203.79C128.615 203.566 129.044 203.454 129.511 203.454Z" fill="#0B0C0B"/>
<rect x="104" y="315" width="189" height="42" rx="21" fill="#00AAFF"/>
<path d="M140.704 330.092C141.547 330.092 142.288 330.215 142.928 330.46C143.579 330.705 144.16 331.073 144.672 331.564L143.344 333.132C142.576 332.524 141.771 332.22 140.928 332.22C140.491 332.22 140.155 332.305 139.92 332.476C139.696 332.636 139.584 332.865 139.584 333.164C139.584 333.377 139.643 333.553 139.76 333.692C139.877 333.831 140.075 333.964 140.352 334.092C140.629 334.22 141.067 334.38 141.664 334.572C142.805 334.935 143.637 335.393 144.16 335.948C144.693 336.492 144.96 337.249 144.96 338.22C144.96 338.924 144.779 339.548 144.416 340.092C144.053 340.625 143.525 341.041 142.832 341.34C142.149 341.639 141.344 341.788 140.416 341.788C138.645 341.788 137.2 341.249 136.08 340.172L137.536 338.556C138.421 339.281 139.344 339.644 140.304 339.644C140.805 339.644 141.195 339.537 141.472 339.324C141.749 339.1 141.888 338.807 141.888 338.444C141.888 338.188 141.835 337.98 141.728 337.82C141.621 337.649 141.429 337.5 141.152 337.372C140.885 337.233 140.491 337.084 139.968 336.924C138.709 336.529 137.824 336.055 137.312 335.5C136.8 334.945 136.544 334.247 136.544 333.404C136.544 332.743 136.72 332.161 137.072 331.66C137.435 331.159 137.931 330.775 138.56 330.508C139.2 330.231 139.915 330.092 140.704 330.092ZM154.945 337.772C154.945 338.54 154.775 339.228 154.433 339.836C154.103 340.444 153.601 340.924 152.929 341.276C152.257 341.617 151.436 341.788 150.465 341.788C148.993 341.788 147.879 341.431 147.121 340.716C146.364 339.991 145.985 339.009 145.985 337.772V330.38H148.945V337.676C148.945 338.348 149.063 338.844 149.297 339.164C149.543 339.473 149.932 339.628 150.465 339.628C150.999 339.628 151.383 339.468 151.617 339.148C151.852 338.828 151.969 338.337 151.969 337.676V330.38H154.945V337.772ZM162.729 335.612C163.475 335.761 164.078 336.033 164.537 336.428C164.995 336.823 165.225 337.425 165.225 338.236C165.225 339.441 164.787 340.289 163.913 340.78C163.038 341.26 161.817 341.5 160.249 341.5H156.505V330.38H159.817C161.417 330.38 162.638 330.604 163.481 331.052C164.334 331.489 164.761 332.22 164.761 333.244C164.761 333.895 164.563 334.417 164.169 334.812C163.785 335.196 163.305 335.463 162.729 335.612ZM159.465 332.444V334.764H160.233C160.755 334.764 161.139 334.668 161.385 334.476C161.63 334.284 161.753 333.975 161.753 333.548C161.753 333.153 161.619 332.871 161.353 332.7C161.097 332.529 160.675 332.444 160.089 332.444H159.465ZM160.265 339.388C160.894 339.388 161.369 339.297 161.689 339.116C162.009 338.924 162.169 338.572 162.169 338.06C162.169 337.569 162.019 337.217 161.721 337.004C161.422 336.78 160.99 336.668 160.425 336.668H159.465V339.388H160.265ZM177.787 341.5H174.875L174.731 337.356L174.715 336.668C174.694 336.028 174.683 335.543 174.683 335.212C174.683 334.412 174.715 333.612 174.779 332.812L173.259 340.348H170.459L168.843 332.812C168.939 334.06 168.987 335.159 168.987 336.108C168.987 336.652 168.982 337.068 168.971 337.356L168.843 341.5H165.931L166.747 330.38H170.427L171.915 337.756L173.259 330.38H176.955L177.787 341.5ZM181.996 330.38V341.5H179.036V330.38H181.996ZM191.643 330.38L191.339 332.636H188.715V341.5H185.755V332.636H182.971V330.38H191.643ZM199.89 337.404H199.074V341.5H196.114V330.38H199.97C201.538 330.38 202.706 330.663 203.474 331.228C204.253 331.793 204.642 332.663 204.642 333.836C204.642 334.54 204.477 335.127 204.146 335.596C203.826 336.065 203.309 336.487 202.594 336.86L205.362 341.5H202.066L199.89 337.404ZM199.074 335.388H200.066C201.09 335.388 201.602 334.871 201.602 333.836C201.602 333.356 201.458 333.004 201.17 332.78C200.893 332.556 200.471 332.444 199.906 332.444H199.074V335.388ZM213.092 330.38L212.788 332.476H208.996V334.844H212.308V336.876H208.996V339.404H213.044V341.5H206.036V330.38H213.092ZM221.312 340.764C222.048 340.764 222.677 340.844 223.2 341.004C223.723 341.164 224.219 341.42 224.688 341.772L222.928 344.06C222.341 343.345 221.717 342.78 221.056 342.364C220.395 341.948 219.595 341.74 218.656 341.74C217.643 341.74 216.768 341.516 216.032 341.068C215.307 340.609 214.747 339.943 214.352 339.068C213.957 338.193 213.76 337.148 213.76 335.932C213.76 334.727 213.957 333.687 214.352 332.812C214.757 331.937 215.339 331.265 216.096 330.796C216.864 330.327 217.781 330.092 218.848 330.092C220.459 330.092 221.712 330.604 222.608 331.628C223.504 332.652 223.952 334.087 223.952 335.932C223.952 337.159 223.701 338.161 223.2 338.94C222.709 339.719 222.08 340.327 221.312 340.764ZM216.832 335.932C216.832 337.255 216.997 338.209 217.328 338.796C217.659 339.372 218.165 339.66 218.848 339.66C219.552 339.66 220.064 339.372 220.384 338.796C220.704 338.22 220.864 337.265 220.864 335.932C220.864 334.609 220.704 333.66 220.384 333.084C220.064 332.508 219.552 332.22 218.848 332.22C218.155 332.22 217.643 332.508 217.312 333.084C216.992 333.66 216.832 334.609 216.832 335.932ZM234.039 337.772C234.039 338.54 233.868 339.228 233.527 339.836C233.196 340.444 232.695 340.924 232.023 341.276C231.351 341.617 230.53 341.788 229.559 341.788C228.087 341.788 226.972 341.431 226.215 340.716C225.458 339.991 225.079 339.009 225.079 337.772V330.38H228.039V337.676C228.039 338.348 228.156 338.844 228.391 339.164C228.636 339.473 229.026 339.628 229.559 339.628C230.092 339.628 230.476 339.468 230.711 339.148C230.946 338.828 231.063 338.337 231.063 337.676V330.38H234.039V337.772ZM242.654 330.38L242.35 332.476H238.558V334.844H241.87V336.876H238.558V339.404H242.606V341.5H235.598V330.38H242.654ZM247.657 330.092C248.5 330.092 249.241 330.215 249.881 330.46C250.532 330.705 251.113 331.073 251.625 331.564L250.297 333.132C249.529 332.524 248.724 332.22 247.881 332.22C247.444 332.22 247.108 332.305 246.873 332.476C246.649 332.636 246.537 332.865 246.537 333.164C246.537 333.377 246.596 333.553 246.713 333.692C246.83 333.831 247.028 333.964 247.305 334.092C247.582 334.22 248.02 334.38 248.617 334.572C249.758 334.935 250.59 335.393 251.113 335.948C251.646 336.492 251.913 337.249 251.913 338.22C251.913 338.924 251.732 339.548 251.369 340.092C251.006 340.625 250.478 341.041 249.785 341.34C249.102 341.639 248.297 341.788 247.369 341.788C245.598 341.788 244.153 341.249 243.033 340.172L244.489 338.556C245.374 339.281 246.297 339.644 247.257 339.644C247.758 339.644 248.148 339.537 248.425 339.324C248.702 339.1 248.841 338.807 248.841 338.444C248.841 338.188 248.788 337.98 248.681 337.82C248.574 337.649 248.382 337.5 248.105 337.372C247.838 337.233 247.444 337.084 246.921 336.924C245.662 336.529 244.777 336.055 244.265 335.5C243.753 334.945 243.497 334.247 243.497 333.404C243.497 332.743 243.673 332.161 244.025 331.66C244.388 331.159 244.884 330.775 245.513 330.508C246.153 330.231 246.868 330.092 247.657 330.092ZM260.706 330.38L260.402 332.636H257.778V341.5H254.818V332.636H252.034V330.38H260.706Z" fill="white"/>
<rect opacity="0.5" x="95" y="29" width="208" height="14" rx="4" fill="#BEC4BE"/>
<rect opacity="0.5" x="143" y="54" width="112" height="14" rx="4" fill="#BEC4BE"/>
<path fill-rule="evenodd" clip-rule="evenodd" d="M321.416 127.132C321.096 127 320.745 126.966 320.406 127.034C320.067 127.102 319.756 127.269 319.512 127.513C319.268 127.757 319.101 128.069 319.034 128.407C318.966 128.746 319 129.098 319.132 129.417L331.381 159.165C331.512 159.483 331.735 159.756 332.02 159.949C332.306 160.142 332.642 160.246 332.987 160.248C333.332 160.251 333.669 160.152 333.958 159.963C334.246 159.774 334.472 159.504 334.608 159.187L339.306 148.225C339.483 147.812 339.812 147.483 340.225 147.306L351.188 142.607C351.505 142.472 351.774 142.246 351.963 141.957C352.152 141.669 352.251 141.331 352.249 140.987C352.247 140.642 352.142 140.306 351.95 140.02C351.757 139.734 351.484 139.512 351.165 139.381L321.416 127.132Z" fill="#FF6A00"/>
</g>
<defs>
<clipPath id="clip0_7159_23842">
<rect width="397" height="393" fill="white"/>
</clipPath>
</defs>
</svg>
