<svg width="374" height="129" viewBox="0 0 374 129" fill="none" xmlns="http://www.w3.org/2000/svg">
<g opacity="0.3" clip-path="url(#clip0_7233_8990)">
<mask id="mask0_7233_8990" style="mask-type:alpha" maskUnits="userSpaceOnUse" x="0" y="0" width="374" height="483">
<path d="M194.534 321.349C253.937 314.56 294.749 261.605 294.749 188.283C294.749 109.53 248.042 54.3125 181.384 54.3125C114.725 54.3125 68.0189 109.53 68.0189 188.283C68.0189 271.11 112.004 319.086 227.183 361.631C310.62 392.861 373.651 416.396 373.651 482.476H310.166C310.166 459.846 271.169 447.173 191.36 415.944C55.7755 362.989 0 290.572 0 188.283C0 77.848 74.8208 0 181.384 0C287.947 0 362.768 77.848 362.768 188.283C362.768 263.416 328.305 323.612 272.529 353.937L194.534 321.349Z" fill="url(#paint0_linear_7233_8990)"/>
</mask>
<g mask="url(#mask0_7233_8990)">
<path d="M19.6162 491.818H-63.9883V450.25H19.6162V491.818ZM61.1855 491.818H19.6172V450.25H61.1855V491.818ZM144.789 491.818H61.6523V450.25H144.789V491.818ZM186.824 491.818H145.256V450.25H186.824V491.818ZM228.394 491.818H186.825V450.25H228.394V491.818ZM395.603 491.818H228.395V450.25H395.603V491.818ZM437.638 491.818H396.069V450.25H437.638V491.818ZM-63.5215 491.352H-22.4199V450.717H-63.5215V491.352ZM-21.4854 491.352H19.1494V450.717H-21.4854V491.352ZM20.084 491.352H60.7188V450.717H20.084V491.352ZM62.1191 491.352H102.754V450.717H62.1191V491.352ZM103.688 491.352H144.322V450.717H103.688V491.352ZM145.723 491.352H186.357V450.717H145.723V491.352ZM187.292 491.352H227.927V450.717H187.292V491.352ZM228.861 491.352H269.963V450.717H228.861V491.352ZM270.896 491.352H311.997V450.717H270.896V491.352ZM312.465 491.352H353.566V450.717H312.465V491.352ZM354.501 491.352H395.136V450.717H354.501V491.352ZM396.536 491.352H437.171V450.717H396.536V491.352ZM19.6162 449.783H-63.9883V408.215H19.6162V449.783ZM61.1855 449.783H19.6172V408.215H61.1855V449.783ZM144.789 449.783H61.6523V408.215H144.789V449.783ZM186.824 449.783H145.256V408.215H186.824V449.783ZM228.394 449.783H186.825V408.215H228.394V449.783ZM395.603 449.783H228.395V408.215H395.603V449.783ZM437.638 449.783H396.069V408.215H437.638V449.783ZM-63.5215 449.316H-22.4199V408.682H-63.5215V449.316ZM-21.4854 449.316H19.1494V408.682H-21.4854V449.316ZM20.084 449.316H60.7188V408.682H20.084V449.316ZM62.1191 449.316H102.754V408.682H62.1191V449.316ZM103.688 449.316H144.322V408.682H103.688V449.316ZM145.723 449.316H186.357V408.682H145.723V449.316ZM187.292 449.316H227.927V408.682H187.292V449.316ZM228.861 449.316H269.963V408.682H228.861V449.316ZM270.896 449.316H311.997V408.682H270.896V449.316ZM312.465 449.316H353.566V408.682H312.465V449.316ZM354.501 449.316H395.136V408.682H354.501V449.316ZM396.536 449.316H437.171V408.682H396.536V449.316ZM19.6162 408.214H-63.9883V283.041H19.6162V408.214ZM61.1855 408.214H19.6172V283.041H61.1855V408.214ZM144.789 408.214H61.6523V283.041H144.789V408.214ZM186.824 408.214H145.256V283.041H186.824V408.214ZM228.394 408.214H186.825V283.041H228.394V408.214ZM395.603 408.214H228.395V283.041H395.603V408.214ZM437.638 408.214H396.069V283.041H437.638V408.214ZM-63.5215 407.746H-22.4199V366.645H-63.5215V407.746ZM-21.4854 407.746H19.1494V366.645H-21.4854V407.746ZM20.084 407.746H60.7188V366.645H20.084V407.746ZM62.1191 407.746H102.754V366.645H62.1191V407.746ZM103.688 407.746H144.322V366.645H103.688V407.746ZM145.723 407.746H186.357V366.645H145.723V407.746ZM187.292 407.746H227.927V366.645H187.292V407.746ZM228.861 407.746H269.963V366.645H228.861V407.746ZM270.896 407.746H311.997V366.645H270.896V407.746ZM312.465 407.746H353.566V366.645H312.465V407.746ZM354.501 407.746H395.136V366.645H354.501V407.746ZM396.536 407.746H437.171V366.645H396.536V407.746ZM-63.5215 365.711H-22.4199V325.076H-63.5215V365.711ZM-21.4854 365.711H19.1494V325.076H-21.4854V365.711ZM20.084 365.711H60.7188V325.076H20.084V365.711ZM62.1191 365.711H102.754V325.076H62.1191V365.711ZM103.688 365.711H144.322V325.076H103.688V365.711ZM145.723 365.711H186.357V325.076H145.723V365.711ZM187.292 365.711H227.927V325.076H187.292V365.711ZM228.861 365.711H269.963V325.076H228.861V365.711ZM270.896 365.711H311.997V325.076H270.896V365.711ZM312.465 365.711H353.566V325.076H312.465V365.711ZM354.501 365.711H395.136V325.076H354.501V365.711ZM396.536 365.711H437.171V325.076H396.536V365.711ZM-63.5215 324.143H-22.4199V283.508H-63.5215V324.143ZM-21.4854 324.143H19.1494V283.508H-21.4854V324.143ZM20.084 324.143H60.7188V283.508H20.084V324.143ZM62.1191 324.143H102.754V283.508H62.1191V324.143ZM103.688 324.143H144.322V283.508H103.688V324.143ZM145.723 324.143H186.357V283.508H145.723V324.143ZM187.292 324.143H227.927V283.508H187.292V324.143ZM228.861 324.143H269.963V283.508H228.861V324.143ZM270.896 324.143H311.997V283.508H270.896V324.143ZM312.465 324.143H353.566V283.508H312.465V324.143ZM354.501 324.143H395.136V283.508H354.501V324.143ZM396.536 324.143H437.171V283.508H396.536V324.143ZM61.1846 115.832L61.1855 157.4V283.04H19.6172V157.4H19.6162V283.04H-63.9883V115.832H61.1846ZM144.789 283.04H61.6523V115.832H144.789V283.04ZM186.824 283.04H145.256V115.832H186.824V283.04ZM395.602 115.832L395.603 157.4V283.04H228.395V157.4H228.394V283.04H186.825V115.832H395.602ZM437.638 283.04H396.069V115.832H437.638V283.04ZM-63.5215 282.572H-22.4199V241.471H-63.5215V282.572ZM-21.4854 282.572H19.1494V241.471H-21.4854V282.572ZM20.084 282.572H60.7188V241.471H20.084V282.572ZM62.1191 282.572H102.754V241.471H62.1191V282.572ZM103.688 282.572H144.322V241.471H103.688V282.572ZM145.723 282.572H186.357V241.471H145.723V282.572ZM187.292 282.572H227.927V241.471H187.292V282.572ZM228.861 282.572H269.963V241.471H228.861V282.572ZM270.896 282.572H311.997V241.471H270.896V282.572ZM312.465 282.572H353.566V241.471H312.465V282.572ZM354.501 282.572H395.136V241.471H354.501V282.572ZM396.536 282.572H437.171V241.471H396.536V282.572ZM-63.5215 240.537H-22.4199V199.437H-63.5215V240.537ZM-21.4854 240.537H19.1494V199.437H-21.4854V240.537ZM20.084 240.537H60.7188V199.437H20.084V240.537ZM62.1191 240.537H102.754V199.437H62.1191V240.537ZM103.688 240.537H144.322V199.437H103.688V240.537ZM145.723 240.537H186.357V199.437H145.723V240.537ZM187.292 240.537H227.927V199.437H187.292V240.537ZM228.861 240.537H269.963V199.437H228.861V240.537ZM270.896 240.537H311.997V199.437H270.896V240.537ZM312.465 240.537H353.566V199.437H312.465V240.537ZM354.501 240.537H395.136V199.437H354.501V240.537ZM396.536 240.537H437.171V199.437H396.536V240.537ZM-63.5215 198.969H-22.4199V157.867H-63.5215V198.969ZM-21.4854 198.969H19.1494V157.867H-21.4854V198.969ZM20.084 198.969H60.7188V157.867H20.084V198.969ZM62.1191 198.969H102.754V157.867H62.1191V198.969ZM103.688 198.969H144.322V157.867H103.688V198.969ZM145.723 198.969H186.357V157.867H145.723V198.969ZM187.292 198.969H227.927V157.867H187.292V198.969ZM228.861 198.969H269.963V157.867H228.861V198.969ZM270.896 198.969H311.997V157.867H270.896V198.969ZM312.465 198.969H353.566V157.867H312.465V198.969ZM354.501 198.969H395.136V157.867H354.501V198.969ZM396.536 198.969H437.171V157.867H396.536V198.969ZM-63.5215 156.934H-22.4199V116.299H-63.5215V156.934ZM-21.4854 156.934H19.1494V116.299H-21.4854V156.934ZM20.083 156.934H60.7178V116.299H20.083V156.934ZM62.1191 156.934H102.754V116.299H62.1191V156.934ZM103.688 156.934H144.322V116.299H103.688V156.934ZM145.723 156.934H186.357V116.299H145.723V156.934ZM187.292 156.934H227.927V116.299H187.292V156.934ZM228.86 156.934H269.962V116.299H228.86V156.934ZM270.896 156.934H311.997V116.299H270.896V156.934ZM312.465 156.934H353.565V116.299H312.465V156.934ZM354.5 156.934H395.135V116.299H354.5V156.934ZM396.536 156.934H437.171V116.299H396.536V156.934ZM61.1846 115.364H-63.9883V-9.80762H61.1846V115.364ZM144.789 115.364H61.6523V-9.80762H144.789V115.364ZM186.824 115.364H145.256V-9.80762H186.824V115.364ZM395.602 115.364H186.825V-9.80762H395.602V115.364ZM437.638 115.364H396.069V-9.80762H437.638V115.364ZM-63.5215 114.897H-22.4199V74.2627H-63.5215V114.897ZM-21.4854 114.897H19.1494V74.2627H-21.4854V114.897ZM20.083 114.897H60.7178V74.2627H20.083V114.897ZM62.1191 114.897H102.754V74.2627H62.1191V114.897ZM103.688 114.897H144.322V74.2627H103.688V114.897ZM145.723 114.897H186.357V74.2627H145.723V114.897ZM187.292 114.897H227.927V74.2627H187.292V114.897ZM228.86 114.897H269.962V74.2627H228.86V114.897ZM270.896 114.897H311.997V74.2627H270.896V114.897ZM312.465 114.897H353.565V74.2627H312.465V114.897ZM354.5 114.897H395.135V74.2627H354.5V114.897ZM396.536 114.897H437.171V74.2627H396.536V114.897ZM-63.5215 73.3291H-22.4199V32.6943H-63.5215V73.3291ZM-21.4854 73.3291H19.1494V32.6943H-21.4854V73.3291ZM20.083 73.3291H60.7178V32.6943H20.083V73.3291ZM62.1191 73.3291H102.754V32.6943H62.1191V73.3291ZM103.688 73.3291H144.322V32.6943H103.688V73.3291ZM145.723 73.3291H186.357V32.6943H145.723V73.3291ZM187.292 73.3291H227.927V32.6943H187.292V73.3291ZM228.86 73.3291H269.962V32.6943H228.86V73.3291ZM270.896 73.3291H311.997V32.6943H270.896V73.3291ZM312.465 73.3291H353.565V32.6943H312.465V73.3291ZM354.5 73.3291H395.135V32.6943H354.5V73.3291ZM396.536 73.3291H437.171V32.6943H396.536V73.3291ZM-63.5215 31.7607H-22.4199V-9.34082H-63.5215V31.7607ZM-21.4854 31.7607H19.1494V-9.34082H-21.4854V31.7607ZM20.083 31.7607H60.7178V-9.34082H20.083V31.7607ZM62.1191 31.7607H102.754V-9.34082H62.1191V31.7607ZM103.688 31.7607H144.322V-9.34082H103.688V31.7607ZM145.723 31.7607H186.357V-9.34082H145.723V31.7607ZM187.292 31.7607H227.927V-9.34082H187.292V31.7607ZM228.86 31.7607H269.962V-9.34082H228.86V31.7607ZM270.896 31.7607H311.997V-9.34082H270.896V31.7607ZM312.465 31.7607H353.565V-9.34082H312.465V31.7607ZM354.5 31.7607H395.135V-9.34082H354.5V31.7607ZM396.536 31.7607H437.171V-9.34082H396.536V31.7607Z" fill="#BEC4BE"/>
</g>
</g>
<defs>
<linearGradient id="paint0_linear_7233_8990" x1="-24.6527" y1="188.505" x2="186.897" y2="447.262" gradientUnits="userSpaceOnUse">
<stop stop-color="#CDCDCD"/>
<stop offset="0.558995" stop-color="#636363"/>
<stop offset="1" stop-color="#313131"/>
</linearGradient>
<clipPath id="clip0_7233_8990">
<rect width="374" height="129" fill="white"/>
</clipPath>
</defs>
</svg>
