<svg width="235" height="400" viewBox="0 0 235 400" fill="none" xmlns="http://www.w3.org/2000/svg">
<path d="M100.334 76.1886C112.372 76.1886 123.689 81.5148 132.2 91.1864L132.203 91.1898C133.858 93.0705 135.364 95.0761 136.724 97.1807L175.625 52.9739C174.113 51.0045 172.54 49.0818 170.898 47.217C170.898 47.217 170.898 47.217 170.895 47.2136C152.048 25.7966 126.989 14 100.334 14C76.076 14 53.138 23.7716 35.001 41.675L73.922 85.9034C81.559 79.5989 90.714 76.1886 100.334 76.1886Z" fill="#FF6A00"/>
<path d="M145.249 117.439C145.249 129.067 140.863 140.018 132.889 148.422L171.596 187.129C189.905 168.384 199.975 143.686 199.975 117.438C199.975 93.1029 191.319 70.1019 175.474 51.9409L136.573 90.8419C142.204 98.5149 145.249 107.743 145.249 117.439Z" fill="#D2F234"/>
<path d="M138.879 219.87L170.744 188.003C171.032 187.715 171.312 187.421 171.596 187.13L132.888 148.423C132.609 148.718 132.336 149.017 132.048 149.305L100.182 181.173L68.3137 149.305C59.7997 140.794 55.1127 129.478 55.1127 117.44C55.1127 105.399 59.7997 94.083 68.3137 85.572C70.0237 83.862 71.8507 82.315 73.7697 80.921L34.8487 42C33.0567 43.556 31.3107 45.18 29.6157 46.874C10.1627 66.33 0.432707 91.884 0.432705 117.44C0.432704 142.994 10.1617 168.548 29.6157 188.004L61.4847 219.873L100.182 181.177L138.879 219.87Z" fill="white"/>
<path d="M132.049 354.171C122.42 363.802 109.48 368.14 96.8576 367.214L96.8576 421.987C123.509 422.868 150.448 413.166 170.747 392.869L170.744 392.866C189.596 374.019 199.975 348.957 199.975 322.302C199.975 296.443 190.205 272.083 172.411 253.44L133.688 292.163C149.601 309.835 149.056 337.164 132.049 354.171Z" fill="#52D6DA"/>
<path d="M96.8564 367.214C86.4484 366.45 76.2554 362.11 68.3144 354.168C56.0794 341.933 52.3734 324.357 57.1764 308.878L16.3914 268.093C5.75943 284.52 0.436423 303.409 0.436422 322.303C0.436421 347.857 10.1634 373.413 29.6194 392.869C48.2294 411.478 72.4224 421.18 96.8574 421.987L96.8564 367.214Z" fill="#696B69"/>
<path d="M68.3146 290.435L100.182 258.568L61.4856 219.872L29.6166 251.74C24.5446 256.812 20.1406 262.301 16.3916 268.093L57.1766 308.878C59.2716 302.126 62.9776 295.77 68.3146 290.435Z" fill="#686968"/>
<path d="M132.048 290.435C132.613 291 133.158 291.577 133.687 292.164L172.41 253.441C171.862 252.868 171.309 252.299 170.746 251.736L138.879 219.87L100.184 258.568L132.048 290.435Z" fill="#52D6DA"/>
<path d="M100.182 258.567L100.184 258.568L138.879 219.87L100.182 181.176L61.4849 219.872L100.181 258.568L100.182 258.567Z" fill="white"/>
<path d="M133.781 314.883L125.731 312.57C125.154 310.45 124.333 308.432 123.283 306.561L127.355 299.145L120.811 292.516L113.49 296.641C111.644 295.577 109.651 294.745 107.558 294.161L105.275 286.006L96.0012 286.006L93.7183 294.161C91.6253 294.745 89.6323 295.577 87.7863 296.641L80.4652 292.516L73.9213 299.145L77.9932 306.561C76.9422 308.431 76.1222 310.45 75.5452 312.57L67.4952 314.883L67.4952 324.278L75.5452 326.591C76.1222 328.711 76.9422 330.729 77.9932 332.6L73.9213 340.016L80.4652 346.645L87.7863 342.52C89.6323 343.584 91.6253 344.416 93.7183 345L96.0012 353.155L105.275 353.155L107.558 345C109.651 344.416 111.643 343.584 113.49 342.52L120.811 346.645L127.355 340.016L123.283 332.6C124.333 330.73 125.154 328.711 125.731 326.591L133.781 324.278L133.781 314.883ZM115.202 319.58C115.202 327.704 108.658 334.333 100.638 334.333C92.6182 334.333 86.0742 327.704 86.0742 319.58C86.0742 311.456 92.6182 304.827 100.638 304.827C108.658 304.827 115.202 311.456 115.202 319.58Z" fill="#00AAFF"/>
<path d="M46.3195 381.618L45.4308 380.525L51.4095 375.665C52.0268 375.163 52.6962 374.861 53.4177 374.758C54.1339 374.654 54.8455 374.752 55.5523 375.051C56.2563 375.352 56.8962 375.857 57.472 376.566C58.0477 377.274 58.4113 378.004 58.5627 378.754C58.7111 379.508 58.6625 380.226 58.417 380.908C58.1661 381.591 57.7321 382.183 57.1148 382.684L51.1361 387.544L50.2473 386.45L56.1378 381.663C56.5787 381.304 56.8923 380.888 57.0785 380.415C57.2618 379.944 57.3062 379.449 57.2117 378.93C57.1118 378.411 56.8576 377.9 56.4491 377.397C56.0405 376.895 55.5923 376.541 55.1044 376.337C54.6136 376.136 54.1201 376.078 53.6238 376.164C53.1222 376.25 52.651 376.472 52.2101 376.83L46.3195 381.618Z" fill="white"/>
<path d="M47.9819 372.881L52.4026 370.049L53.1259 371.178L45.7772 375.886L45.0784 374.795L46.2266 374.059L46.1653 373.963C45.6818 374.03 45.2144 373.961 44.7632 373.755C44.3088 373.551 43.9039 373.172 43.5483 372.617C43.2296 372.119 43.0527 371.619 43.0178 371.115C42.9797 370.613 43.1 370.126 43.3786 369.655C43.654 369.187 44.1043 368.752 44.7295 368.351L49.399 365.36L50.1223 366.489L45.5294 369.432C44.952 369.801 44.5984 370.239 44.4683 370.746C44.335 371.254 44.4359 371.769 44.771 372.293C45.0019 372.653 45.2864 372.925 45.6245 373.109C45.9606 373.289 46.3307 373.365 46.7347 373.336C47.1387 373.306 47.5545 373.155 47.9819 372.881Z" fill="white"/>
<path d="M37.2778 367.68L47.4432 362.017L48.0958 363.189L37.9304 368.852L37.2778 367.68Z" fill="white"/>
<path d="M46.1485 359.694L38.5245 363.941L37.8719 362.77L45.4959 358.522L46.1485 359.694ZM36.922 364.053C37.0492 364.282 37.0811 364.522 37.0177 364.774C36.9525 365.023 36.8108 365.208 36.5924 365.33C36.374 365.451 36.1418 365.474 35.896 365.399C35.6483 365.32 35.4608 365.167 35.3336 364.938C35.2064 364.71 35.1754 364.471 35.2406 364.223C35.304 363.971 35.4449 363.784 35.6633 363.662C35.8817 363.54 36.1147 363.519 36.3624 363.598C36.6083 363.673 36.7948 363.825 36.922 364.053Z" fill="white"/>
<path d="M44.5048 356.516L36.6157 360.248L36.0617 359.077L37.2944 358.494L37.2458 358.392C36.7469 358.426 36.2943 358.316 35.8882 358.059C35.4786 357.805 35.1523 357.421 34.9094 356.907C34.6632 356.387 34.5764 355.898 34.6491 355.44C34.7167 354.981 34.9149 354.554 35.2437 354.159L35.2049 354.077C34.7018 354.068 34.2349 353.918 33.8041 353.627C33.3698 353.338 33.0191 352.911 32.7518 352.346C32.4182 351.641 32.3661 350.959 32.5956 350.302C32.8217 349.646 33.3987 349.099 34.3266 348.66L39.6066 346.162L40.18 347.374L34.9 349.872C34.3179 350.147 33.9772 350.503 33.8779 350.94C33.7786 351.377 33.831 351.811 34.0351 352.242C34.2975 352.797 34.6685 353.147 35.1482 353.293C35.6245 353.441 36.1178 353.394 36.628 353.153L41.7641 350.723L42.3472 351.956L36.944 354.512C36.4955 354.724 36.2031 355.04 36.0668 355.461C35.9271 355.883 35.9658 356.324 36.1829 356.782C36.3319 357.097 36.5551 357.352 36.8525 357.547C37.1482 357.738 37.4847 357.847 37.862 357.874C38.2342 357.899 38.6138 357.82 39.0007 357.637L43.9314 355.304L44.5048 356.516Z" fill="white"/>
<path d="M39.3775 344.342L31.0151 346.839L30.6314 345.554L38.9939 343.057L39.3775 344.342ZM29.4263 346.602C29.501 346.852 29.4802 347.093 29.3638 347.326C29.2463 347.555 29.0678 347.705 28.8283 347.776C28.5887 347.848 28.3571 347.82 28.1334 347.693C27.9086 347.563 27.7589 347.372 27.6841 347.122C27.6093 346.871 27.6306 346.632 27.7481 346.403C27.8645 346.171 28.0425 346.019 28.2821 345.947C28.5216 345.876 28.7538 345.905 28.9785 346.036C29.2022 346.162 29.3515 346.351 29.4263 346.602Z" fill="white"/>
<path d="M28.7868 339.377L29.8757 339.052L31.1697 343.385L30.0809 343.711L28.7868 339.377ZM27.7002 343.046L27.3166 341.761L35.287 339.381C35.65 339.273 35.9065 339.139 36.0565 338.979C36.2018 338.817 36.2804 338.644 36.2923 338.458C36.2994 338.27 36.2748 338.082 36.2184 337.893C36.1762 337.752 36.1342 337.638 36.0926 337.551C36.0474 337.466 36.0112 337.398 35.984 337.346L37.0602 336.74C37.1189 336.818 37.1879 336.93 37.2671 337.076C37.35 337.221 37.4272 337.414 37.4988 337.653C37.6071 338.016 37.6353 338.395 37.5833 338.79C37.5302 339.182 37.378 339.539 37.1269 339.863C36.8747 340.184 36.5054 340.417 36.0191 340.562L27.7002 343.046Z" fill="white"/>
<path d="M36.2469 331.31C36.4167 332.133 36.3813 332.881 36.1409 333.553C35.896 334.223 35.4784 334.786 34.8883 335.244C34.2937 335.7 33.5587 336.017 32.6831 336.198C31.8076 336.378 31.0031 336.378 30.2695 336.197C29.5315 336.012 28.9159 335.671 28.4227 335.173C27.9249 334.673 27.5966 334.036 27.4375 333.265C27.3457 332.82 27.3293 332.365 27.3882 331.9C27.4472 331.435 27.6069 330.991 27.8673 330.566C28.1241 330.141 28.5034 329.767 29.0051 329.443C29.5069 329.12 30.1566 328.875 30.9542 328.711L31.5107 328.596L32.8688 335.185L31.7336 335.419L30.6508 330.166C30.1685 330.265 29.758 330.45 29.4194 330.721C29.08 330.989 28.8371 331.321 28.6909 331.719C28.5439 332.112 28.5194 332.547 28.6172 333.022C28.7251 333.545 28.9482 333.971 29.2867 334.299C29.6207 334.625 30.0146 334.847 30.4684 334.966C30.9223 335.085 31.3848 335.096 31.8559 334.999L32.6128 334.843C33.2583 334.71 33.7825 334.486 34.1856 334.171C34.5841 333.853 34.8589 333.47 35.0101 333.021C35.1575 332.573 35.1765 332.083 35.0672 331.553C34.996 331.208 34.8836 330.906 34.7298 330.648C34.5715 330.386 34.373 330.174 34.1343 330.011C33.8919 329.848 33.6109 329.741 33.2911 329.691L33.3857 328.349C33.8436 328.394 34.2683 328.54 34.6598 328.788C35.0475 329.037 35.3801 329.375 35.6575 329.801C35.9311 330.228 36.1276 330.731 36.2469 331.31Z" fill="white"/>
<path d="M35.2133 323.175C35.2176 323.902 35.0377 324.545 34.6736 325.104C34.3056 325.663 33.7855 326.102 33.1131 326.42C32.4369 326.739 31.6367 326.901 30.7125 326.906C29.7958 326.912 28.9995 326.759 28.3234 326.449C27.6473 326.138 27.1239 325.704 26.7532 325.145C26.3825 324.587 26.195 323.94 26.1906 323.205C26.1873 322.637 26.2793 322.188 26.4668 321.857C26.6504 321.523 26.8611 321.268 27.0987 321.092C27.3325 320.913 27.5248 320.773 27.6758 320.674L27.6751 320.56L23.3797 320.586L23.3718 319.245L35.008 319.176L35.0156 320.472L33.6747 320.48L33.6757 320.639C33.8353 320.736 34.0369 320.875 34.2804 321.056C34.5201 321.236 34.7356 321.494 34.927 321.83C35.1146 322.166 35.21 322.614 35.2133 323.175ZM34.0077 323C34.0046 322.462 33.8618 322.009 33.5793 321.639C33.293 321.27 32.8993 320.99 32.3982 320.8C31.8933 320.609 31.3113 320.516 30.6522 320.52C30.0007 320.524 29.4312 320.622 28.9437 320.814C28.4524 321.007 28.0714 321.289 27.8009 321.662C27.5266 322.035 27.391 322.494 27.3942 323.039C27.3976 323.607 27.5462 324.08 27.8401 324.457C28.1302 324.83 28.5239 325.11 29.0212 325.297C29.5147 325.48 30.0683 325.569 30.6819 325.565C31.3031 325.562 31.8669 325.464 32.3734 325.271C32.876 325.075 33.2758 324.789 33.5729 324.412C33.8661 324.032 34.011 323.561 34.0077 323Z" fill="white"/>
<path d="M35.3471 311.759L23.773 310.557L24.1795 306.646C24.2734 305.742 24.5051 305.015 24.8743 304.467C25.2398 303.919 25.7045 303.533 26.2685 303.31C26.8324 303.087 27.4554 303.01 28.1373 303.081C28.8193 303.152 29.4095 303.354 29.908 303.688C30.4064 304.022 30.7764 304.492 31.0179 305.1C31.2557 305.708 31.3279 306.46 31.2347 307.356L30.9058 310.521L29.6399 310.389L29.9641 307.27C30.0283 306.652 29.9896 306.145 29.8479 305.75C29.7066 305.35 29.479 305.049 29.1651 304.845C28.8478 304.637 28.4574 304.508 27.994 304.46C27.5306 304.412 27.1166 304.457 26.7519 304.594C26.3873 304.731 26.091 304.98 25.8631 305.341C25.6314 305.702 25.4831 306.195 25.4181 306.82L25.162 309.284L35.4927 310.358L35.3471 311.759ZM30.714 305.771L36.2093 303.463L36.0401 305.091L30.5495 307.354L30.714 305.771Z" fill="white"/>
<path d="M37.9987 298.925C37.7218 299.719 37.3077 300.342 36.7563 300.796C36.2027 301.245 35.5551 301.514 34.8135 301.605C34.0696 301.69 33.2756 301.586 32.4315 301.291C31.5874 300.997 30.8971 300.584 30.3606 300.052C29.8218 299.515 29.4684 298.906 29.3005 298.226C29.1303 297.54 29.1749 296.826 29.4344 296.082C29.5841 295.653 29.8034 295.254 30.0924 294.885C30.3815 294.517 30.7468 294.217 31.1884 293.986C31.6265 293.754 32.144 293.627 32.7408 293.607C33.3377 293.586 34.0206 293.71 34.7896 293.978L35.3261 294.165L33.1107 300.517L32.0162 300.136L33.7825 295.071C33.3176 294.909 32.8703 294.857 32.4406 294.916C32.0122 294.971 31.6332 295.132 31.3037 295.398C30.9754 295.661 30.7314 296.021 30.5718 296.479C30.3959 296.983 30.3689 297.463 30.4907 297.919C30.6103 298.37 30.8343 298.763 31.1627 299.098C31.491 299.433 31.8824 299.68 32.3366 299.838L33.0662 300.093C33.6885 300.31 34.2535 300.386 34.7611 300.323C35.2664 300.254 35.6991 300.066 36.0591 299.758C36.4156 299.449 36.683 299.039 36.8614 298.528C36.9774 298.195 37.0357 297.879 37.0362 297.578C37.0345 297.272 36.9731 296.988 36.8522 296.725C36.7276 296.461 36.541 296.226 36.2923 296.019L37.0623 294.915C37.4323 295.189 37.7216 295.532 37.9303 295.946C38.1355 296.359 38.2477 296.819 38.267 297.327C38.2828 297.834 38.1933 298.367 37.9987 298.925Z" fill="white"/>
<path d="M34.672 283.446L41.1074 290.166L40.5107 291.393L31.2511 290.476L31.8876 289.168L39.1951 290.045L39.2349 289.963L34.0356 284.754L34.672 283.446Z" fill="white"/>
<path d="M43.3583 285.539L35.5109 281.721L36.0976 280.515L43.9451 284.334L43.3583 285.539ZM34.5013 280.471C34.3869 280.706 34.2083 280.87 33.9653 280.962C33.724 281.051 33.491 281.041 33.2662 280.932C33.0414 280.822 32.8896 280.645 32.8107 280.4C32.7335 280.152 32.752 279.911 32.8664 279.676C32.9808 279.441 33.1586 279.279 33.3999 279.19C33.6429 279.097 33.8767 279.106 34.1015 279.215C34.3263 279.324 34.4773 279.503 34.5545 279.751C34.6334 279.996 34.6157 280.236 34.5013 280.471Z" fill="white"/>
<path d="M42.7324 273.568L42.3727 274.767C42.1627 274.723 41.9381 274.712 41.699 274.735C41.4588 274.753 41.2188 274.833 40.979 274.977C40.7393 275.121 40.5146 275.357 40.305 275.686C40.018 276.137 39.8827 276.578 39.8991 277.011C39.9143 277.438 40.08 277.753 40.3963 277.954C40.6774 278.133 40.9646 278.172 41.2578 278.072C41.551 277.971 41.8902 277.738 42.2756 277.373L43.24 276.451C43.819 275.895 44.3758 275.56 44.9104 275.447C45.4418 275.332 45.9647 275.438 46.479 275.766C46.9007 276.034 47.2004 276.396 47.3779 276.85C47.5576 277.302 47.6059 277.804 47.5228 278.357C47.4397 278.911 47.2161 279.473 46.8518 280.045C46.3735 280.796 45.8148 281.314 45.1755 281.598C44.5362 281.882 43.8618 281.891 43.1522 281.623L43.5676 280.378C44.0289 280.528 44.4491 280.524 44.8283 280.366C45.2096 280.205 45.5477 279.893 45.8428 279.429C46.1786 278.902 46.3334 278.413 46.3072 277.96C46.2798 277.503 46.1079 277.173 45.7917 276.972C45.5361 276.809 45.2651 276.762 44.9786 276.831C44.6889 276.898 44.3829 277.089 44.0606 277.405L42.9916 278.448C42.4024 279.021 41.8394 279.358 41.3025 279.461C40.7644 279.558 40.2414 279.445 39.7334 279.122C39.3181 278.857 39.025 278.506 38.854 278.07C38.6852 277.63 38.6389 277.149 38.7153 276.627C38.7937 276.102 38.9977 275.581 39.3274 275.063C39.7914 274.335 40.3154 273.865 40.8994 273.653C41.4855 273.438 42.0965 273.41 42.7324 273.568Z" fill="white"/>
<path d="M49.5834 275.564L42.7754 270.104L43.6144 269.058L50.4224 274.518L49.5834 275.564ZM42.0674 268.662C41.9038 268.866 41.6934 268.986 41.436 269.022C41.181 269.056 40.956 268.994 40.761 268.838C40.5659 268.681 40.4571 268.475 40.4343 268.219C40.4139 267.96 40.4855 267.728 40.649 267.524C40.8126 267.321 41.0218 267.202 41.2769 267.168C41.5342 267.132 41.7604 267.192 41.9554 267.349C42.1505 267.505 42.2582 267.713 42.2785 267.972C42.3013 268.228 42.2309 268.458 42.0674 268.662Z" fill="white"/>
<path d="M54.5237 269.695C54.0307 270.309 53.4519 270.731 52.7873 270.961C52.1251 271.187 51.4267 271.219 50.6922 271.057C49.96 270.893 49.2423 270.528 48.5391 269.964C47.8299 269.395 47.314 268.77 46.9912 268.089C46.6709 267.405 46.5493 266.715 46.6265 266.019C46.706 265.321 46.9923 264.664 47.4853 264.05C47.9782 263.435 48.5558 263.014 49.2181 262.788C49.8827 262.559 50.5826 262.528 51.3177 262.695C52.0552 262.859 52.7785 263.226 53.4876 263.794C54.1909 264.359 54.7012 264.981 55.0186 265.663C55.3384 266.342 55.4585 267.031 55.3789 267.73C55.3017 268.425 55.0167 269.08 54.5237 269.695ZM53.5841 268.941C53.9585 268.474 54.147 267.994 54.1494 267.501C54.1518 267.008 54.016 266.532 53.7421 266.074C53.4682 265.617 53.1037 265.205 52.6487 264.84C52.1936 264.475 51.7115 264.208 51.2024 264.037C50.6933 263.867 50.1967 263.835 49.7127 263.942C49.2286 264.049 48.7994 264.336 48.4249 264.803C48.0505 265.27 47.8635 265.751 47.8641 266.247C47.8646 266.743 48.0033 267.221 48.2802 267.681C48.557 268.141 48.923 268.553 49.378 268.918C49.8331 269.283 50.3137 269.55 50.8199 269.718C51.326 269.886 51.8197 269.915 52.3007 269.806C52.7818 269.696 53.2096 269.408 53.5841 268.941Z" fill="white"/>
<path d="M55.6466 260.553L59.3881 264.236L58.4475 265.191L52.2279 259.069L53.1366 258.146L54.1084 259.102L54.1882 259.021C54.0158 258.565 53.98 258.094 54.0806 257.608C54.1785 257.12 54.4587 256.641 54.921 256.171C55.3355 255.75 55.7846 255.466 56.2683 255.321C56.7493 255.172 57.2502 255.182 57.7712 255.349C58.2894 255.514 58.8131 255.856 59.3422 256.377L63.2942 260.267L62.3536 261.223L58.4663 257.397C57.9777 256.916 57.4722 256.668 56.9498 256.653C56.4247 256.636 55.9442 256.849 55.5084 257.291C55.2081 257.596 55.0059 257.934 54.9017 258.305C54.8001 258.672 54.8085 259.05 54.9267 259.437C55.0449 259.825 55.2849 260.197 55.6466 260.553Z" fill="white"/>
<path d="M121.485 138.69C132.932 127.243 132.932 108.683 121.485 97.2361C110.038 85.789 91.4786 85.789 80.0315 97.2361C68.5844 108.683 68.5844 127.243 80.0315 138.69C91.4786 150.137 110.038 150.137 121.485 138.69Z" fill="#D2F234"/>
<path d="M127.859 120.871C135.447 122.793 143.746 121.747 150.619 118.001C143.635 125.133 135.042 130.598 125.123 131.719" fill="#D2F234"/>
<path d="M83.6855 118.707L95.7058 130.727L126.996 99.4375" fill="#D2F234"/>
<path d="M83.6855 118.707L95.7058 130.727L126.996 99.4375" stroke="#0B0C0B" stroke-width="8.48544" stroke-miterlimit="10"/>
</svg>
