<svg width="64" height="64" viewBox="0 0 64 64" fill="none" xmlns="http://www.w3.org/2000/svg">
<g clip-path="url(#clip0_7159_21242)">
<path d="M32 64C49.6731 64 64 49.6731 64 32C64 14.3269 49.6731 0 32 0C14.3269 0 0 14.3269 0 32C0 49.6731 14.3269 64 32 64Z" fill="#108A00"/>
<g clip-path="url(#clip1_7159_21242)">
<path d="M42.9572 37.7672C41.1183 37.7672 39.3877 36.9884 37.8301 35.7229L38.2087 33.9273L38.2195 33.8624C38.5656 31.9587 39.6365 28.757 42.9572 28.757C45.445 28.757 47.4677 30.7797 47.4677 33.2675C47.4677 35.7553 45.445 37.7672 42.9572 37.7672ZM42.9572 24.1924C38.7171 24.1924 35.4396 26.9398 34.0984 31.472C32.0648 28.4109 30.5181 24.744 29.6203 21.6505H25.0557V33.5163C25.0557 35.8635 23.1519 37.7672 20.8047 37.7672C18.4575 37.7672 16.5538 35.8635 16.5538 33.5163V21.6396H12V33.5055C12 38.3621 15.9481 42.3535 20.8047 42.3535C25.6614 42.3535 29.6095 38.3621 29.6095 33.5055V31.5152C30.4964 33.3649 31.5781 35.2361 32.8977 36.8803L30.107 50.0116H34.769L36.7917 40.493C38.5656 41.6288 40.5991 42.3427 42.9355 42.3427C47.9328 42.3427 51.9999 38.254 51.9999 33.2459C52.0107 28.2594 47.9544 24.1924 42.9572 24.1924Z" fill="white"/>
</g>
</g>
<defs>
<clipPath id="clip0_7159_21242">
<rect width="64" height="64" fill="white"/>
</clipPath>
<clipPath id="clip1_7159_21242">
<rect width="40" height="40" fill="white" transform="translate(12 12)"/>
</clipPath>
</defs>
</svg>
