<svg width="66" height="66" viewBox="0 0 66 66" fill="none" xmlns="http://www.w3.org/2000/svg">
<g clip-path="url(#clip0_19_4620)">
<path d="M61.8054 7.33228H4.18663C1.87244 7.33228 -0.00390625 9.20851 -0.00390625 11.5227V54.4752C-0.00390625 56.7893 1.87244 58.6655 4.18663 58.6655H61.8054C64.1197 58.6655 65.9961 56.7893 65.9961 54.4751V11.5227C65.9961 9.20851 64.1199 7.33228 61.8054 7.33228ZM61.8054 11.5227V41.9989L53.5471 34.4907C52.3058 33.3624 50.397 33.4074 49.2111 34.5944L40.853 42.9512L24.3732 23.2665C23.1274 21.7788 20.8457 21.7642 19.5813 23.234L4.18663 41.1253V11.5227H61.8054Z" fill="#FF00DD"/>
<path opacity="0.6" d="M51.7617 16C48.579 16 46 18.5792 46 21.7619C46 24.9446 48.5791 27.5239 51.7617 27.5238C54.9446 27.5238 57.5236 24.9446 57.5236 21.7619C57.5236 18.5792 54.9445 16 51.7617 16Z" fill="#FF00DD"/>
</g>
<defs>
<clipPath id="clip0_19_4620">
<rect width="66" height="66" fill="white"/>
</clipPath>
</defs>
</svg>
