<svg width="432" height="164" viewBox="0 0 432 164" fill="none" xmlns="http://www.w3.org/2000/svg">
<g clip-path="url(#clip0_25_9483)">
<path d="M353.208 238.107C350.636 240.43 347.984 242.678 345.26 244.835C345.236 244.858 345.206 244.88 345.178 244.9C345.166 244.912 345.153 244.924 345.137 244.934C344.038 245.814 342.925 246.668 341.798 247.517C339.524 249.23 337.203 250.875 334.828 252.466C334.389 252.765 333.945 253.061 333.491 253.352C331.493 254.669 329.455 255.945 327.377 257.176C324.893 258.651 322.358 260.055 319.776 261.392C318.066 262.281 316.333 263.139 314.574 263.967C310.542 265.867 306.395 267.602 302.136 269.167C298.832 270.385 295.463 271.491 292.025 272.483C287.794 273.712 283.46 274.767 279.021 275.644C262.007 279.013 246.148 281.325 231.412 282.786C230.37 282.891 229.336 282.994 228.309 283.081C225.56 283.336 222.843 283.562 220.176 283.751C217.018 283.982 213.918 284.17 210.868 284.32C208.482 284.443 206.127 284.538 203.81 284.608C197.086 284.821 190.633 284.848 184.456 284.709C183.469 284.691 182.491 284.668 181.52 284.631C177.894 284.521 174.37 284.356 170.94 284.139C165.072 283.762 159.478 283.245 154.155 282.604C135.841 280.388 120.707 276.74 108.492 272.708L68.5604 252.853C67.7601 252.223 67.3724 251.87 67.3724 251.87C67.3724 251.87 59.5072 247.959 50.4077 239.067C47.5479 236.272 44.5662 232.989 41.6682 229.176C40.2381 227.288 38.8228 225.283 37.4549 223.132C33.5225 216.96 29.9619 209.69 27.3679 201.225C24.3459 191.342 22.635 179.831 23.1938 166.542C25.8952 102.741 125.381 41.4522 227.773 14.4471L227.787 14.4451C231.688 13.4167 235.591 12.4337 239.489 11.5107C252.563 8.40321 265.617 5.87268 278.468 3.99925C290.453 2.23827 302.257 1.03898 313.723 0.456726C316.379 0.315421 318.993 0.20727 321.605 0.141846L321.63 0.154546C321.653 0.147008 321.67 0.147775 321.68 0.152904L321.705 0.165365C321.84 0.143207 321.996 0.140527 322.127 0.125203L322.152 0.137664C327.645 -0.000908246 333.042 0.0173906 338.341 0.182825C439.835 3.38427 437.982 161.597 353.208 238.107Z" fill="#4A4C4A"/>
<g clip-path="url(#clip1_25_9483)">
<path d="M103.406 177.603C103.406 181.91 290.256 181.91 290.256 177.603C298.95 177.603 305.997 167.693 305.997 155.468V25.7801C305.997 13.5556 298.95 3.64556 290.256 3.64556C290.256 -1.21519 103.406 -1.21519 103.406 3.64556C94.7119 3.64556 87.6641 13.5556 87.6641 25.7801V155.468C87.6642 167.693 94.7121 177.603 103.406 177.603Z" fill="#151615"/>
<path d="M259.747 89.3663H132.638C131.181 89.3663 130 90.5476 130 92.0044V144.749C130 146.205 131.181 147.387 132.638 147.387H259.747C261.204 147.387 262.385 146.205 262.385 144.749V92.0044C262.385 90.5476 261.204 89.3663 259.747 89.3663Z" fill="#1C1D1C"/>
<path fill-rule="evenodd" clip-rule="evenodd" d="M138.523 100.046L137.823 102.172H136.922L139.214 95.413H140.269L142.574 102.172H141.642L140.921 100.046H138.523ZM140.741 99.3679L140.076 97.421C139.927 96.9792 139.827 96.5767 139.726 96.1873H139.704C139.608 96.5898 139.496 96.9981 139.367 97.4123L138.702 99.3679H140.741Z" fill="#EEF3EE"/>
<path fill-rule="evenodd" clip-rule="evenodd" d="M147.587 98.8413C147.587 101.059 146.764 102.28 145.32 102.28C144.047 102.28 143.185 101.09 143.168 98.9332C143.168 96.7457 144.109 95.5426 145.434 95.5426C146.808 95.5426 147.587 96.7676 147.587 98.8413ZM144.047 98.9419C144.047 100.639 144.568 101.602 145.373 101.602C146.274 101.602 146.707 100.548 146.707 98.8807C146.707 97.2795 146.296 96.2251 145.382 96.2251C144.612 96.2251 144.047 97.1701 144.047 98.9419Z" fill="#EEF3EE"/>
<path d="M148.396 102.171V101.628L149.088 100.959C150.755 99.375 151.507 98.5307 151.516 97.5507C151.516 96.8857 151.196 96.2776 150.221 96.2776C149.63 96.2776 149.14 96.5751 148.838 96.8289L148.558 96.2076C149.009 95.8226 149.652 95.5426 150.4 95.5426C151.805 95.5426 152.4 96.5051 152.4 97.437C152.4 98.6401 151.525 99.6157 150.151 100.937L149.63 101.418V101.44H152.557V102.171H148.396Z" fill="#EEF3EE"/>
<path d="M157.437 96.399H154.953L154.699 98.0746C154.852 98.0527 154.992 98.0353 155.233 98.0353C155.736 98.0353 156.234 98.1446 156.637 98.3852C157.149 98.674 157.569 99.2384 157.569 100.061C157.569 101.334 156.554 102.283 155.141 102.283C154.432 102.283 153.828 102.086 153.518 101.885L153.736 101.211C154.008 101.373 154.541 101.575 155.132 101.575C155.963 101.575 156.676 101.032 156.676 100.161C156.668 99.3171 156.103 98.7133 154.799 98.7133C154.432 98.7133 154.139 98.7571 153.898 98.7877L154.318 95.6553H157.437V96.399Z" fill="#EEF3EE"/>
<path d="M163.725 101.954C163.405 102.112 162.762 102.274 161.94 102.274C160.037 102.274 158.602 101.071 158.602 98.857C158.602 96.7395 160.037 95.3046 162.132 95.3046C162.972 95.3046 163.506 95.4883 163.738 95.6064L163.523 96.3195C163.195 96.1577 162.723 96.0395 162.163 96.0395C160.579 96.0395 159.525 97.0501 159.525 98.8264C159.525 100.48 160.478 101.543 162.123 101.543C162.653 101.543 163.195 101.434 163.545 101.263L163.725 101.954Z" fill="#EEF3EE"/>
<path fill-rule="evenodd" clip-rule="evenodd" d="M168.837 98.8413C168.837 101.059 168.014 102.28 166.57 102.28C165.297 102.28 164.435 101.09 164.418 98.9332C164.418 96.7457 165.359 95.5426 166.684 95.5426C168.054 95.5426 168.837 96.7676 168.837 98.8413ZM165.297 98.9419C165.297 100.639 165.818 101.602 166.623 101.602C167.524 101.602 167.957 100.548 167.957 98.8807C167.957 97.2795 167.546 96.2251 166.632 96.2251C165.862 96.2251 165.297 97.1701 165.297 98.9419Z" fill="#EEF3EE"/>
<path fill-rule="evenodd" clip-rule="evenodd" d="M173.984 98.8413C173.984 101.059 173.161 102.28 171.717 102.28C170.444 102.28 169.582 101.09 169.561 98.9332C169.561 96.7457 170.506 95.5426 171.827 95.5426C173.2 95.5426 173.984 96.7676 173.984 98.8413ZM170.444 98.9419C170.444 100.639 170.965 101.602 171.77 101.602C172.671 101.602 173.1 100.548 173.1 98.8807C173.1 97.2795 172.689 96.2251 171.779 96.2251C171.004 96.2251 170.444 97.1701 170.444 98.9419Z" fill="#EEF3EE"/>
<path fill-rule="evenodd" clip-rule="evenodd" d="M175.303 101.549C175.491 101.571 175.714 101.549 176.012 101.519C176.524 101.449 177.005 101.239 177.377 100.889C177.81 100.495 178.121 99.9263 178.239 99.1519H178.208C177.849 99.5938 177.329 99.8563 176.677 99.8563C175.504 99.8563 174.752 98.9726 174.752 97.8613C174.752 96.6276 175.644 95.5426 176.979 95.5426C178.309 95.5426 179.131 96.6276 179.131 98.2901C179.131 99.725 178.65 100.727 178.011 101.348C177.508 101.843 176.817 102.14 176.113 102.223C175.793 102.271 175.513 102.28 175.303 102.271V101.549ZM175.623 97.8001C175.623 98.6138 176.113 99.1826 176.878 99.1826C177.469 99.1826 177.928 98.8938 178.16 98.5001C178.212 98.4242 178.239 98.3178 178.239 98.1807C178.239 97.0695 177.827 96.2164 176.904 96.2164C176.156 96.2164 175.623 96.877 175.623 97.8001Z" fill="#EEF3EE"/>
<path d="M180.01 101.652C180.01 101.28 180.259 101.022 180.609 101.022C180.959 101.022 181.2 101.28 181.2 101.652C181.2 102.011 180.972 102.282 180.6 102.282C180.25 102.282 180.01 102.011 180.01 101.652Z" fill="#EEF3EE"/>
<path d="M182.293 98.6308C182.293 98.1321 182.285 97.7209 182.254 97.3184H183.028L183.068 98.1014H183.098C183.369 97.6377 183.82 97.209 184.621 97.209C185.281 97.209 185.784 97.6071 185.994 98.1802H186.016C186.165 97.909 186.358 97.699 186.554 97.5502C186.848 97.3271 187.167 97.209 187.631 97.209C188.269 97.209 189.223 97.6289 189.223 99.3133V102.17H188.361V99.4227C188.361 98.4908 188.02 97.9309 187.307 97.9309C186.808 97.9309 186.414 98.3027 186.266 98.7315C186.226 98.8539 186.196 99.0115 186.196 99.1733V102.17H185.334V99.2652C185.334 98.4908 184.993 97.9309 184.319 97.9309C183.768 97.9309 183.37 98.3727 183.225 98.8102C183.178 98.9443 183.155 99.0888 183.155 99.2433V102.17H182.293V98.6308Z" fill="#EEF3EE"/>
<path d="M191.067 97.3196L191.758 98.3608C191.938 98.6321 192.091 98.8814 192.248 99.1527H192.279C192.441 98.8639 192.603 98.6146 192.76 98.3521L193.443 97.3196H194.396L192.743 99.6645L194.444 102.171H193.443L192.729 101.078C192.541 100.798 192.379 100.526 192.209 100.238H192.191C192.029 100.526 191.859 100.789 191.679 101.078L190.975 102.171H190.004L191.728 99.6951L190.083 97.3196H191.067Z" fill="#EEF3EE"/>
<path d="M195.391 102.171V97.9926H194.709V97.3188H195.391V97.087C195.391 96.4045 195.54 95.7832 195.951 95.3939C196.284 95.0745 196.726 94.9432 197.137 94.9432C197.448 94.9432 197.719 95.0133 197.885 95.0833L197.767 95.7657C197.636 95.7045 197.456 95.652 197.207 95.652C196.455 95.652 196.262 96.317 196.262 97.0564V97.3188H197.435V97.9926H196.262V102.171H195.391Z" fill="#EEF3EE"/>
<path d="M238.332 105.799L239.741 99.1842H238.402L238.765 97.4342H240.078L240.266 96.4848C240.429 95.6886 240.762 95.1067 241.263 94.7392C241.768 94.3717 242.475 94.188 243.385 94.188C243.852 94.188 244.321 94.2463 244.794 94.363L244.461 95.9423C244.251 95.8782 243.987 95.8461 243.669 95.8461C242.978 95.8461 242.57 96.1494 242.444 96.7561L242.3 97.4342H244.085L243.718 99.1842H241.981L240.581 105.799H238.332Z" fill="white"/>
<path d="M247.52 103.021H247.471L245.358 105.799H242.834L246.386 101.52L244.641 97.355H247.03L248.084 100.137H248.132L250.245 97.355H252.761L249.208 101.638L250.949 105.799H248.565L247.52 103.021Z" fill="white"/>
<path d="M263.046 126.31H254.664C254.585 126.272 254.506 126.222 254.427 126.161C254.266 126.025 254.174 125.802 254.003 125.697C253.622 125.47 253.294 125.701 252.953 125.859C252.73 125.96 252.502 125.973 252.279 126.056C252.144 126.104 252.03 126.218 251.89 126.261C251.823 126.285 251.753 126.301 251.68 126.31H251.238C251.019 126.275 250.822 126.174 250.687 125.999C250.429 125.671 250.297 125.141 250.289 124.73C250.28 124.24 249.921 122.556 249.094 123.024C248.757 123.212 248.635 123.82 248.561 124.166C248.477 124.555 248.583 125.067 248.569 125.465C248.565 125.618 248.631 125.846 248.447 125.916C248.394 125.933 247.804 125.745 247.756 125.706C247.423 125.408 247.62 124.875 247.493 124.533C247.034 124.87 246.806 125.295 246.483 125.732C246.028 126.331 245.918 125.785 245.686 125.36C245.38 124.791 244.951 125.185 244.575 124.844C244.282 124.573 244.216 123.886 244.19 123.531C244.159 123.164 244.068 122.862 244.059 122.477C244.054 122.272 244.054 122.092 243.958 121.9C243.84 121.672 243.84 121.711 243.608 121.567C243.363 121.41 243.319 121.265 242.996 121.235C242.794 121.217 242.633 121.248 242.462 121.34C242.024 121.563 242.046 121.974 241.81 122.311C241.696 122.473 241.482 122.665 241.276 122.565C241.066 122.464 241.149 122.241 241.106 122.044C241.027 121.646 240.887 121.243 240.87 120.823C240.852 120.403 241.079 118.338 240.205 118.68C239.356 119.017 239.33 120.145 239.15 120.858C239.05 121.256 238.866 121.65 238.774 122.048C238.682 122.464 238.8 122.836 238.879 123.238L238.616 124.564C238.538 125.242 238.402 126.008 237.671 126.248C237.291 126.069 237.146 125.159 237.059 124.822C236.958 124.455 236.888 124.161 236.888 123.776C236.897 122.923 236.98 122.04 236.757 121.213C236.521 120.329 236.512 119.476 235.698 118.877C235.134 118.461 235.038 118.968 235.038 119.419C235.038 119.843 234.937 120.259 234.906 120.679C234.845 121.515 234.233 122.232 234.097 123.033C234.036 123.418 234.106 123.908 234.106 124.301C234.106 124.743 234.088 125.19 234.101 125.631C234.115 126.065 234.027 126.279 233.572 126.292C233.2 126.301 232.68 126.279 232.4 126.003C232.128 125.728 232.089 125.238 231.971 124.896C231.848 124.56 231.656 123.864 231.315 123.671C230.934 123.816 230.685 124.669 230.65 125.036C230.602 125.548 230.615 125.977 229.993 126.025C229.766 126.047 229.552 126.003 229.328 126.056C229.022 126.126 228.799 126.209 228.681 125.789C228.62 125.57 228.628 125.334 228.567 125.102C228.497 124.835 228.405 124.577 228.392 124.297C228.383 124.056 228.41 123.807 228.401 123.566C228.388 123.348 228.322 123.234 228.278 123.033C228.147 122.46 228.309 121.821 228.388 121.261C228.427 120.972 228.348 120.762 228.296 120.482C228.243 120.207 228.292 119.935 228.235 119.66C228.108 119.012 228.108 118.325 227.907 117.691C227.81 117.389 227.408 116.448 226.962 116.615C226.699 116.711 226.485 117.555 226.432 117.796C226.38 118.063 226.45 118.325 226.415 118.592C226.384 118.82 226.283 119.021 226.27 119.253C226.248 119.559 226.297 119.87 226.279 120.176C226.266 120.443 226.157 120.688 226.135 120.955C226.073 121.703 226.143 122.49 226.143 123.238C226.143 123.772 226.143 124.306 226.143 124.84C226.143 125.181 226.266 125.745 225.938 125.955C225.352 126.331 225.22 125.658 224.787 125.509C224.376 125.369 224.07 125.798 223.702 125.885C223.287 125.986 222.753 125.798 222.578 125.36C222.469 125.076 222.56 124.608 222.56 124.31C222.56 123.825 222.543 123.47 222.39 123.011C222.285 122.691 222.171 122.236 222.158 121.913C222.14 121.515 221.97 121.23 221.891 120.85C221.812 120.482 221.76 120.045 221.764 119.664C221.769 118.986 221.869 118.198 221.755 117.533C221.699 117.214 221.375 116.645 221.016 116.663C220.552 116.689 220.701 117.367 220.701 117.678C220.698 118.136 220.698 118.594 220.701 119.052C220.705 119.489 220.561 119.883 220.565 120.32C220.579 121.23 220.447 122.07 220.434 122.976C220.43 123.418 220.25 123.798 220.185 124.231C220.115 124.708 220.001 125.15 219.782 125.596C219.682 125.793 219.524 126.086 219.332 126.31H216.641C216.621 126.283 216.602 126.256 216.584 126.226C216.37 125.894 216.374 125.579 216.23 125.233C216.072 124.857 215.919 124.218 215.499 124.056C214.874 123.816 214.904 124.616 214.331 124.564L213.802 124.63C213.399 124.66 213.172 123.65 213.014 123.343C212.94 123.208 212.756 122.761 212.612 122.683C212.314 122.521 212.179 122.783 211.938 122.915C211.654 123.072 211.627 123.028 211.409 122.744C211.291 122.591 211.203 122.411 211.111 122.241C210.871 121.777 210.691 121.331 210.354 120.924C210.192 120.732 210.013 120.456 209.72 120.526C209.457 120.587 209.182 121.103 209.086 121.313C208.898 121.711 208.701 122.298 208.233 122.49C207.677 122.718 207.533 121.698 207.458 121.318C207.379 120.876 207.467 120.43 207.406 119.983C207.366 119.673 207.336 119.052 207.06 118.846C206.933 119.463 206.701 120.045 206.5 120.64C206.255 121.361 206.373 122.206 206.373 122.963C206.373 123.383 206.386 123.811 206.378 124.231C206.373 124.525 206.382 125.115 206.216 125.369C206.032 125.649 205.896 125.404 205.695 125.29C205.503 125.185 205.279 125.198 205.113 125.076C204.628 124.717 204.641 124.236 204.645 123.706C204.654 123.015 204.457 122.359 204.378 121.672C204.313 121.121 204.177 120.578 204.085 120.032C204.002 119.507 204.011 118.448 203.306 118.334C203.118 118.527 203.061 119.025 203.053 119.288C203.039 119.647 202.934 119.935 202.917 120.281C202.873 121.156 202.698 122.022 202.488 122.875C202.388 123.286 202.374 123.68 202.287 124.091C202.178 124.621 202.458 125.05 202.405 125.566C202.357 126.016 202.143 126.143 201.727 126.025C201.434 125.942 201.101 126.056 200.83 125.973C200.485 125.872 200.506 125.596 200.366 125.325C200.314 125.211 200.209 125.12 200.161 125.001C200.034 124.691 200.008 124.205 199.999 123.864C199.986 123.129 200.139 122.438 200.135 121.712C200.13 120.837 199.959 120.058 199.706 119.222C199.496 118.535 199.036 118.002 198.94 117.284C198.892 116.917 198.542 113.78 197.733 114.423C197.514 114.598 197.492 115.258 197.448 115.503C197.387 115.867 197.335 116.217 197.247 116.567C197.142 117.004 197.12 117.424 197.055 117.862C197.002 118.207 196.989 118.579 196.919 118.92C196.836 119.358 196.836 119.712 196.823 120.154C196.81 120.508 196.687 120.819 196.683 121.173C196.674 122.097 196.608 123.072 196.788 123.973C196.919 124.621 196.705 125.299 195.991 125.439C195.068 125.623 195.41 124.24 194.871 123.986C194.556 123.838 194.294 124.157 194.027 124.122C193.765 124.087 193.507 123.501 193.402 123.304C193.257 123.037 193.213 122.998 192.995 122.77C192.802 122.573 192.837 122.547 192.837 122.272C192.834 121.997 192.834 121.725 192.837 121.453C192.837 121.051 192.855 120.648 192.842 120.25C192.828 119.883 192.706 119.563 192.702 119.196C192.693 118.312 192.623 117.494 192.408 116.632C192.29 116.147 191.866 114.738 191.267 114.672C191.096 115.022 191.061 115.46 190.978 115.84C190.89 116.256 190.733 116.65 190.645 117.065C190.501 117.735 190.58 118.509 190.58 119.192C190.583 119.556 190.584 119.919 190.584 120.281C190.58 120.67 190.444 120.99 190.448 121.375C190.457 122.18 190.396 122.796 190.129 123.553C190.007 123.895 190.02 124.301 189.945 124.665C189.871 125.032 189.95 125.465 189.757 125.806C189.569 126.143 189.416 126.078 189.07 125.977C188.825 125.903 188.576 125.876 188.331 125.833C187.675 125.71 187.543 124.914 187.425 124.341C187.355 123.986 187.373 123.645 187.294 123.295C187.224 122.998 187.272 122.674 187.268 122.368C187.263 122.031 187.115 121.865 187.023 121.554C186.927 121.222 186.983 120.858 186.87 120.513C186.699 120.001 186.393 119.406 186.126 118.92C185.724 118.185 184.879 119.24 184.573 118.5C184.477 118.273 184.428 118.023 184.345 117.792C184.245 117.503 184.223 117.013 183.987 116.785C183.737 116.545 183.304 116.637 183.173 116.96C183.09 117.162 183.16 117.415 183.12 117.63C183.059 117.971 183.015 118.33 182.884 118.658C182.744 119.008 182.753 119.353 182.657 119.717C182.556 120.097 182.495 120.417 182.49 120.81C182.486 121.143 182.477 121.672 182.333 121.987C182.202 122.272 181.865 122.468 181.716 122.775C181.607 123.002 181.559 123.265 181.493 123.505C181.331 124.096 181.16 124.651 181.16 125.264C181.163 125.462 181.165 125.659 181.165 125.855C181.16 126.1 181.125 126.226 181.025 126.31H179.918V124.756C179.603 124.966 179.297 124.332 179.03 124.039C178.676 123.645 178.54 123.19 178.435 122.691C178.264 121.887 178.487 121.252 177.971 120.543C177.757 120.246 177.582 120.176 177.24 120.071C177.087 120.023 176.694 119.817 176.567 119.865C176.121 120.04 176.243 121.112 176.086 121.484C176.016 121.646 175.946 121.816 175.779 121.891C175.683 121.939 175.613 121.882 175.512 121.93C175.272 122.048 175.241 122.289 175.167 122.508C175.001 122.98 174.869 123.413 174.909 123.93C174.944 124.367 175.027 124.595 174.935 125.036C174.874 125.325 174.852 125.531 174.646 125.767C174.073 126.423 173.662 125.701 173.391 125.19C173.198 124.84 173.089 123.838 172.669 123.838C172.323 123.833 172.275 124.03 172.074 123.636C171.921 123.326 171.868 122.91 171.767 122.573C171.606 122.053 171.041 121.23 170.783 122.175C170.626 122.748 170.494 123.33 170.311 123.903C170.179 124.315 169.737 125.474 169.142 125.015C168.884 124.818 168.784 124.393 168.552 124.161C168.342 123.947 168.171 123.89 168.049 123.61C167.904 123.273 167.826 122.91 167.686 122.573C167.616 122.407 167.498 121.803 167.292 121.781C167.165 121.768 167.117 121.917 167.016 121.97C166.802 122.088 166.644 122.035 166.417 121.922C166.172 121.803 165.927 121.598 165.756 121.379C165.402 120.928 165.118 120.465 164.702 120.053C164.4 119.752 163.687 118.925 163.494 119.791C163.442 120.045 163.49 120.237 163.376 120.508C163.298 120.692 163.184 120.867 163.109 121.055C163.031 121.252 162.965 121.926 162.711 122.005C162.414 122.101 162.361 121.76 162.274 121.545C162.103 121.099 161.928 120.001 161.246 120.18C160.874 120.277 160.861 120.753 160.445 120.465C160.27 120.347 160.161 120.08 160.065 119.9C159.898 119.598 159.758 119.091 159.338 119.323C159.124 119.445 159.019 119.782 158.735 119.59C158.564 119.476 158.529 118.912 158.494 118.728C158.424 118.382 158.503 118.041 158.437 117.695C158.38 117.398 158.236 116.921 157.986 116.728C157.645 116.466 157.575 116.707 157.453 117.008C157.321 117.341 157.195 117.704 157.046 118.032C156.884 118.408 156.735 118.478 156.481 118.172C156.219 117.862 155.851 117.56 155.611 118.067C155.484 118.334 155.541 118.706 155.545 118.99C155.55 119.314 155.541 119.769 155.392 120.071C155.165 120.53 154.994 120.193 154.714 120.04C154.325 119.826 154.272 120.071 154.084 120.386C153.953 120.613 153.773 120.828 153.616 121.038C153.288 121.471 153.03 122.285 152.513 122.516C152.338 122.473 152.203 121.716 152.133 121.488C152.002 121.068 151.897 120.627 151.831 120.193C151.757 119.708 151.678 119.2 151.551 118.728C151.459 118.378 151.227 117.621 150.89 117.433C150.715 117.507 150.777 117.757 150.667 117.892C150.497 117.323 150.435 116.737 150.352 116.147C150.269 115.552 150.208 114.663 149.565 114.379C149.241 114.488 149.25 114.952 149.162 115.215C149.057 115.521 148.922 115.814 148.838 116.138C148.747 116.514 148.716 116.851 148.58 117.218C148.453 117.542 148.379 117.866 148.313 118.207C148.038 119.581 148.038 121.046 148.235 122.442C148.305 122.923 148.169 123.308 148.108 123.772C148.073 124.026 148.178 124.306 148.095 124.555C148.047 124.695 147.911 124.818 147.845 124.953C147.718 125.216 147.727 125.509 147.6 125.767C147.452 126.065 146.992 126.406 146.651 126.27C146.546 126.231 146.476 126.095 146.397 126.025C146.209 125.863 146.052 125.85 145.85 125.728C145.575 125.566 145.369 125.308 145.321 124.993C145.286 124.756 145.238 124.288 144.818 124.441C144.507 124.551 144.674 125.015 144.468 125.19C144.188 125.102 144.004 124.367 144 124.1C143.991 123.571 144.004 123.094 143.899 122.573C143.781 122 143.869 121.322 143.869 120.74C143.869 120.212 143.869 119.683 143.869 119.152C143.869 118.916 143.912 118.636 143.86 118.404C143.812 118.207 143.672 118.05 143.619 117.853C143.549 117.617 143.545 117.415 143.396 117.201C143.278 117.03 142.967 116.667 142.735 116.724C142.346 116.825 142.237 117.879 142.175 118.194C142.088 118.64 142.066 119.345 141.642 119.62C141.502 119.441 141.51 119.205 141.449 118.995C141.375 118.737 141.279 118.492 141.213 118.229C141.13 117.888 141.073 116.777 140.548 117.118C140.194 117.345 140.08 118.093 139.892 118.457C139.73 118.772 139.655 118.947 139.59 119.288C139.546 119.507 139.498 119.769 139.428 119.979C139.362 120.163 139.262 120.285 139.222 120.482C139.174 120.71 139.179 120.889 139.091 121.117C138.999 121.34 138.982 121.506 138.96 121.746C138.938 121.965 138.855 122.096 138.82 122.306C138.728 122.792 138.715 123.278 138.562 123.763C138.409 124.249 138.501 124.761 138.273 125.22C137.945 125.207 137.722 125.05 137.394 125.251C137.157 125.4 136.912 125.868 136.567 125.85C136.269 125.833 136.195 125.448 135.858 125.491C135.587 125.531 135.342 125.885 135.075 125.999C134.808 126.113 134.519 126.226 134.226 126.31H131.842C131.824 126.304 131.808 126.296 131.794 126.288V126.31H130V127.206H131.794V127.228C131.808 127.222 131.824 127.215 131.842 127.206H134.226C134.519 127.29 134.808 127.408 135.075 127.521C135.342 127.635 135.587 127.99 135.858 128.025C136.195 128.073 136.269 127.688 136.567 127.67C136.912 127.653 137.157 128.116 137.394 128.265C137.722 128.471 137.945 128.313 138.273 128.296C138.501 128.755 138.409 129.271 138.562 129.753C138.715 130.238 138.728 130.728 138.82 131.214C138.855 131.419 138.938 131.555 138.96 131.769C138.982 132.01 138.999 132.176 139.091 132.404C139.179 132.627 139.174 132.811 139.222 133.038C139.262 133.235 139.362 133.358 139.428 133.541C139.498 133.751 139.546 134.009 139.59 134.228C139.655 134.569 139.73 134.749 139.892 135.059C140.08 135.427 140.194 136.175 140.548 136.403C141.073 136.744 141.13 135.628 141.213 135.291C141.279 135.029 141.375 134.784 141.449 134.526C141.51 134.311 141.502 134.075 141.642 133.896C142.066 134.176 142.088 134.88 142.175 135.322C142.237 135.637 142.346 136.696 142.735 136.792C142.967 136.853 143.278 136.49 143.396 136.315C143.545 136.105 143.549 135.904 143.619 135.668C143.672 135.471 143.812 135.309 143.86 135.112C143.912 134.884 143.869 134.6 143.869 134.364C143.869 133.836 143.869 133.308 143.869 132.78C143.869 132.194 143.781 131.516 143.899 130.943C144.004 130.426 143.991 129.945 144 129.42C144.004 129.149 144.188 128.414 144.468 128.326C144.674 128.506 144.507 128.965 144.818 129.079C145.238 129.228 145.286 128.764 145.321 128.528C145.369 128.213 145.575 127.955 145.85 127.788C146.052 127.67 146.209 127.653 146.397 127.495C146.476 127.425 146.546 127.285 146.651 127.246C146.992 127.115 147.452 127.456 147.6 127.749C147.727 128.007 147.718 128.304 147.845 128.567C147.911 128.698 148.047 128.825 148.095 128.965C148.178 129.21 148.073 129.495 148.108 129.748C148.169 130.208 148.305 130.597 148.235 131.078C148.038 132.469 148.038 133.939 148.313 135.313C148.379 135.654 148.453 135.974 148.58 136.302C148.716 136.669 148.747 137.006 148.838 137.382C148.922 137.702 149.057 137.995 149.162 138.306C149.25 138.568 149.241 139.032 149.565 139.141C150.208 138.857 150.269 137.969 150.352 137.369C150.435 136.779 150.497 136.197 150.667 135.624C150.777 135.764 150.715 136.013 150.89 136.088C151.227 135.899 151.459 135.143 151.551 134.793C151.678 134.316 151.757 133.813 151.831 133.327C151.897 132.889 152.002 132.452 152.133 132.028C152.203 131.804 152.338 131.048 152.513 131.004C153.03 131.236 153.288 132.049 153.616 132.483C153.773 132.693 153.953 132.907 154.084 133.13C154.272 133.449 154.325 133.694 154.714 133.48C154.994 133.327 155.165 132.986 155.392 133.445C155.541 133.747 155.55 134.202 155.545 134.526C155.541 134.814 155.484 135.186 155.611 135.453C155.851 135.961 156.219 135.659 156.481 135.348C156.735 135.038 156.884 135.112 157.046 135.484C157.195 135.812 157.321 136.175 157.453 136.512C157.575 136.809 157.645 137.054 157.986 136.788C158.236 136.599 158.38 136.118 158.437 135.825C158.503 135.479 158.424 135.134 158.494 134.788C158.529 134.609 158.564 134.044 158.735 133.926C159.019 133.738 159.124 134.075 159.338 134.198C159.758 134.429 159.898 133.918 160.065 133.62C160.161 133.441 160.27 133.174 160.445 133.051C160.861 132.767 160.874 133.239 161.246 133.34C161.928 133.515 162.103 132.417 162.274 131.975C162.361 131.761 162.414 131.419 162.711 131.511C162.965 131.59 163.031 132.268 163.109 132.465C163.184 132.653 163.298 132.824 163.376 133.012C163.49 133.283 163.442 133.476 163.494 133.729C163.687 134.596 164.4 133.764 164.702 133.467C165.118 133.051 165.402 132.592 165.756 132.137C165.927 131.923 166.172 131.717 166.417 131.594C166.644 131.485 166.802 131.433 167.016 131.546C167.117 131.603 167.165 131.748 167.292 131.734C167.498 131.713 167.616 131.113 167.686 130.943C167.826 130.606 167.904 130.243 168.049 129.91C168.171 129.626 168.342 129.573 168.552 129.359C168.784 129.127 168.884 128.703 169.142 128.506C169.737 128.042 170.179 129.206 170.311 129.617C170.494 130.19 170.626 130.768 170.783 131.345C171.041 132.29 171.606 131.468 171.767 130.947C171.868 130.61 171.921 130.194 172.074 129.884C172.275 129.486 172.323 129.683 172.669 129.683C173.089 129.678 173.198 128.676 173.391 128.326C173.662 127.819 174.073 127.093 174.646 127.753C174.852 127.99 174.874 128.191 174.935 128.484C175.027 128.926 174.944 129.153 174.909 129.591C174.869 130.103 175.001 130.54 175.167 131.008C175.241 131.231 175.272 131.472 175.512 131.59C175.613 131.638 175.683 131.577 175.779 131.625C175.946 131.704 176.016 131.874 176.086 132.032C176.243 132.404 176.121 133.48 176.567 133.655C176.694 133.703 177.087 133.498 177.24 133.449C177.582 133.34 177.757 133.274 177.971 132.977C178.487 132.268 178.264 131.629 178.435 130.829C178.54 130.326 178.676 129.875 179.03 129.481C179.297 129.188 179.603 128.554 179.918 128.764V127.206H181.025C181.125 127.29 181.16 127.416 181.165 127.666C181.165 127.861 181.163 128.057 181.16 128.252C181.16 128.869 181.331 129.42 181.493 130.015C181.559 130.256 181.607 130.518 181.716 130.746C181.865 131.048 182.202 131.244 182.333 131.533C182.477 131.844 182.486 132.378 182.49 132.71C182.495 133.099 182.556 133.423 182.657 133.804C182.753 134.163 182.744 134.513 182.884 134.858C183.015 135.186 183.059 135.545 183.12 135.891C183.16 136.105 183.09 136.359 183.173 136.556C183.304 136.884 183.737 136.976 183.987 136.735C184.223 136.503 184.245 136.013 184.345 135.724C184.428 135.497 184.477 135.243 184.573 135.02C184.879 134.276 185.724 135.335 186.126 134.6C186.393 134.114 186.699 133.515 186.87 133.003C186.983 132.662 186.927 132.299 187.023 131.962C187.115 131.656 187.263 131.489 187.268 131.148C187.272 130.846 187.224 130.518 187.294 130.221C187.373 129.871 187.355 129.534 187.425 129.179C187.543 128.606 187.675 127.81 188.331 127.688C188.576 127.64 188.825 127.618 189.07 127.543C189.416 127.438 189.569 127.377 189.757 127.71C189.95 128.055 189.871 128.484 189.945 128.856C190.02 129.219 190.007 129.621 190.129 129.967C190.396 130.719 190.457 131.341 190.448 132.146C190.444 132.531 190.58 132.85 190.584 133.239C190.584 133.601 190.583 133.963 190.58 134.324C190.58 135.011 190.501 135.781 190.645 136.451C190.733 136.866 190.89 137.264 190.978 137.68C191.061 138.056 191.096 138.494 191.267 138.844C191.866 138.782 192.29 137.369 192.408 136.884C192.623 136.022 192.693 135.204 192.702 134.32C192.706 133.957 192.828 133.633 192.842 133.27C192.855 132.872 192.837 132.465 192.837 132.067C192.834 131.793 192.834 131.52 192.837 131.249C192.837 130.973 192.802 130.947 192.995 130.75C193.213 130.523 193.257 130.483 193.402 130.216C193.507 130.019 193.765 129.433 194.027 129.394C194.294 129.359 194.556 129.678 194.871 129.534C195.41 129.28 195.068 127.893 195.991 128.077C196.705 128.221 196.919 128.895 196.788 129.547C196.608 130.448 196.674 131.419 196.683 132.343C196.687 132.701 196.81 133.008 196.823 133.362C196.836 133.804 196.836 134.163 196.919 134.6C196.989 134.941 197.002 135.313 197.055 135.654C197.12 136.092 197.142 136.516 197.247 136.954C197.335 137.304 197.387 137.654 197.448 138.013C197.492 138.262 197.514 138.922 197.733 139.097C198.542 139.741 198.892 136.604 198.94 136.236C199.036 135.519 199.496 134.985 199.706 134.298C199.959 133.463 200.13 132.684 200.135 131.809C200.139 131.083 199.986 130.387 199.999 129.656C200.008 129.311 200.034 128.829 200.161 128.514C200.209 128.401 200.314 128.309 200.366 128.195C200.506 127.92 200.485 127.648 200.83 127.543C201.101 127.465 201.434 127.578 201.727 127.495C202.143 127.377 202.357 127.504 202.405 127.955C202.458 128.471 202.178 128.9 202.287 129.429C202.374 129.836 202.388 130.234 202.488 130.641C202.698 131.498 202.873 132.364 202.917 133.235C202.934 133.581 203.039 133.869 203.053 134.233C203.061 134.491 203.118 134.994 203.306 135.186C204.011 135.073 204.002 134.014 204.085 133.489C204.177 132.938 204.313 132.399 204.378 131.848C204.457 131.161 204.654 130.505 204.645 129.81C204.641 129.28 204.628 128.799 205.113 128.44C205.279 128.318 205.503 128.335 205.695 128.23C205.896 128.116 206.032 127.867 206.216 128.151C206.382 128.405 206.373 128.996 206.378 129.284C206.386 129.709 206.373 130.133 206.373 130.558C206.373 131.314 206.255 132.154 206.5 132.881C206.701 133.476 206.933 134.058 207.06 134.67C207.336 134.469 207.366 133.848 207.406 133.537C207.467 133.091 207.379 132.64 207.458 132.203C207.533 131.818 207.677 130.798 208.233 131.03C208.701 131.223 208.898 131.809 209.086 132.207C209.182 132.417 209.457 132.929 209.72 132.994C210.013 133.064 210.192 132.789 210.354 132.592C210.691 132.185 210.871 131.743 211.111 131.279C211.203 131.104 211.291 130.929 211.409 130.772C211.627 130.492 211.654 130.448 211.938 130.601C212.179 130.737 212.314 130.999 212.612 130.838C212.756 130.759 212.94 130.313 213.014 130.173C213.172 129.871 213.399 128.86 213.802 128.886L214.331 128.952C214.904 128.899 214.874 129.704 215.499 129.464C215.919 129.302 216.072 128.659 216.23 128.283C216.374 127.941 216.37 127.622 216.584 127.29C216.602 127.263 216.621 127.236 216.641 127.206H219.332C219.524 127.434 219.682 127.727 219.782 127.924C220.001 128.366 220.115 128.812 220.185 129.289C220.25 129.722 220.43 130.103 220.434 130.544C220.447 131.45 220.579 132.29 220.565 133.196C220.561 133.638 220.705 134.031 220.701 134.469C220.698 134.927 220.698 135.385 220.701 135.843C220.701 136.149 220.552 136.827 221.016 136.853C221.375 136.875 221.699 136.302 221.755 135.987C221.869 135.318 221.769 134.534 221.764 133.852C221.76 133.476 221.812 133.034 221.891 132.671C221.97 132.29 222.14 132.006 222.158 131.608C222.171 131.284 222.285 130.829 222.39 130.509C222.543 130.05 222.56 129.696 222.56 129.21C222.56 128.908 222.469 128.44 222.578 128.16C222.753 127.718 223.287 127.535 223.702 127.635C224.07 127.723 224.376 128.147 224.787 128.007C225.22 127.858 225.352 127.185 225.938 127.561C226.266 127.771 226.143 128.34 226.143 128.681C226.143 129.214 226.143 129.748 226.143 130.282C226.143 131.03 226.073 131.818 226.135 132.561C226.157 132.833 226.266 133.073 226.279 133.344C226.297 133.651 226.248 133.957 226.27 134.263C226.283 134.499 226.384 134.701 226.415 134.928C226.45 135.195 226.38 135.458 226.432 135.724C226.485 135.965 226.699 136.805 226.962 136.906C227.408 137.072 227.81 136.131 227.907 135.829C228.108 135.191 228.108 134.504 228.235 133.856C228.292 133.581 228.243 133.314 228.296 133.038C228.348 132.758 228.427 132.548 228.388 132.259C228.309 131.695 228.147 131.061 228.278 130.488C228.322 130.286 228.388 130.173 228.401 129.954C228.41 129.709 228.383 129.464 228.392 129.219C228.405 128.943 228.497 128.685 228.567 128.418C228.628 128.186 228.62 127.95 228.681 127.727C228.799 127.311 229.022 127.39 229.328 127.465C229.552 127.517 229.766 127.473 229.993 127.491C230.615 127.543 230.602 127.972 230.65 128.484C230.685 128.847 230.934 129.7 231.315 129.849C231.656 129.656 231.848 128.956 231.971 128.619C232.089 128.283 232.128 127.788 232.4 127.517C232.68 127.237 233.2 127.215 233.572 127.228C234.027 127.241 234.115 127.451 234.101 127.885C234.088 128.331 234.106 128.777 234.106 129.219C234.106 129.608 234.036 130.098 234.097 130.483C234.233 131.288 234.845 132.006 234.906 132.837C234.937 133.261 235.038 133.673 235.038 134.097C235.038 134.552 235.134 135.059 235.698 134.644C236.512 134.044 236.521 133.191 236.757 132.308C236.98 131.481 236.897 130.597 236.888 129.739C236.888 129.359 236.958 129.066 237.059 128.694C237.146 128.361 237.291 127.451 237.671 127.268C238.402 127.513 238.538 128.274 238.616 128.952L238.879 130.282C238.8 130.68 238.682 131.056 238.774 131.468C238.866 131.87 239.05 132.264 239.15 132.658C239.33 133.375 239.356 134.504 240.205 134.836C241.079 135.182 240.852 133.113 240.87 132.697C240.887 132.273 241.027 131.874 241.106 131.476C241.149 131.279 241.066 131.056 241.276 130.956C241.482 130.855 241.696 131.043 241.81 131.205C242.046 131.546 242.024 131.953 242.462 132.181C242.633 132.268 242.794 132.303 242.996 132.286C243.319 132.255 243.363 132.106 243.608 131.953C243.84 131.809 243.84 131.844 243.958 131.616C244.054 131.424 244.054 131.244 244.059 131.039C244.068 130.658 244.159 130.356 244.19 129.989C244.216 129.634 244.282 128.948 244.575 128.676C244.951 128.335 245.38 128.729 245.686 128.16C245.918 127.736 246.028 127.189 246.483 127.788C246.806 128.221 247.034 128.65 247.493 128.987C247.62 128.646 247.423 128.108 247.756 127.815C247.804 127.771 248.394 127.587 248.447 127.605C248.631 127.675 248.565 127.902 248.569 128.051C248.583 128.453 248.477 128.961 248.561 129.35C248.635 129.7 248.757 130.308 249.094 130.496C249.921 130.964 250.28 129.28 250.289 128.79C250.297 128.379 250.429 127.85 250.687 127.517C250.822 127.346 251.019 127.246 251.238 127.206H251.68C251.753 127.218 251.823 127.234 251.89 127.255C252.03 127.298 252.144 127.416 252.279 127.465C252.502 127.543 252.73 127.561 252.953 127.661C253.294 127.815 253.622 128.046 254.003 127.819C254.174 127.718 254.266 127.495 254.427 127.36C254.506 127.295 254.585 127.244 254.664 127.206H263.046V126.31Z" fill="#BEC4BE"/>
<path d="M210.889 97.7783C210.474 97.7783 210.137 98.1152 210.137 98.5308V102.18C210.137 102.591 210.474 102.928 210.889 102.928C211.305 102.928 211.642 102.591 211.642 102.18V98.5308C211.642 98.1152 211.305 97.7783 210.889 97.7783Z" fill="white"/>
<path d="M215.637 98.5117C215.221 98.5117 214.889 98.8486 214.889 99.2642V101.447C214.889 101.863 215.221 102.2 215.637 102.2C216.052 102.2 216.389 101.863 216.389 101.447V99.2642C216.389 98.8486 216.052 98.5117 215.637 98.5117Z" fill="white"/>
<path d="M213.264 95.6934C212.849 95.6934 212.512 96.0302 212.512 96.4458V104.264C212.512 104.679 212.849 105.016 213.264 105.016C213.68 105.016 214.017 104.679 214.017 104.264V96.4458C214.017 96.0302 213.68 95.6934 213.264 95.6934Z" fill="white"/>
<path d="M218.018 96.4373C217.603 96.4373 217.266 96.7741 217.266 97.1854V103.525C217.266 103.94 217.603 104.277 218.018 104.277C218.429 104.277 218.766 103.94 218.766 103.525V97.1854C218.766 96.7741 218.429 96.4373 218.018 96.4373Z" fill="white"/>
<path d="M222.77 97.7783C222.354 97.7783 222.018 98.1152 222.018 98.5308V102.18C222.018 102.591 222.354 102.928 222.77 102.928C223.186 102.928 223.523 102.591 223.523 102.18V98.5308C223.523 98.1152 223.186 97.7783 222.77 97.7783Z" fill="white"/>
<path d="M220.393 93.8569C219.977 93.8569 219.641 94.1938 219.641 94.6094V106.107C219.641 106.518 219.977 106.855 220.393 106.855C220.809 106.855 221.141 106.518 221.141 106.107V94.6094C221.141 94.1938 220.809 93.8569 220.393 93.8569Z" fill="white"/>
</g>
<path d="M188.067 21.5994C190.518 24.0507 194.495 24.0507 196.946 21.5992C199.399 19.1467 199.398 15.1711 196.946 12.7197C194.494 10.267 190.519 10.2672 188.067 12.7197C185.615 15.1712 185.614 19.1467 188.067 21.5994Z" fill="#FF6A00" stroke="#4F8CB5" stroke-width="0.342283" stroke-linecap="round" stroke-linejoin="round"/>
<path d="M176.689 51.9378C176.953 59.8471 183.136 69.1651 183.136 69.1651L202.178 69.1651C206.203 64.9907 209.044 51.9378 209.044 51.9378L192.934 19.2111L176.689 51.9378ZM187.801 49.205C187.801 46.3701 190.099 44.0713 192.934 44.0713C195.769 44.0713 198.066 46.3701 198.066 49.205C198.066 52.0401 195.769 54.3386 192.934 54.3386C190.099 54.3386 187.801 52.0401 187.801 49.205Z" fill="#9EA19E"/>
<path d="M192.935 44.2177C193.233 44.2177 193.47 43.9759 193.47 43.6813L193.47 19.8546C193.47 19.5583 193.233 19.3182 192.935 19.3182C192.639 19.3182 192.4 19.5583 192.4 19.8546L192.4 43.6812C192.4 43.9759 192.639 44.2177 192.935 44.2177Z" fill="#1A1A1A"/>
<path d="M181.777 75.4902L203.747 75.4902C203.897 75.4902 204.019 75.3674 204.019 75.2174L204.019 68.7914C204.019 68.6414 203.897 68.5186 203.747 68.5186L181.777 68.5186C181.627 68.5186 181.504 68.6414 181.504 68.7914L181.504 75.2174C181.504 75.3674 181.627 75.4902 181.777 75.4902Z" fill="#696B69"/>
<path d="M161.327 67.3574L177.816 76.8776C178.074 77.0265 178.4 76.9356 178.547 76.6805C178.695 76.4241 178.61 76.0975 178.352 75.9485L161.863 66.4283C161.605 66.2795 161.278 66.3683 161.13 66.6247C160.983 66.8798 161.069 67.2085 161.327 67.3574Z" fill="#1A1A1A"/>
<path d="M230.494 167.95C230.679 169.923 231.969 171.624 233.926 172.243C239.789 174.035 251.565 179.608 249.233 194.944C248.98 196.64 249.471 198.376 250.76 199.545L265.398 212.279C266.902 213.554 268.95 213.829 270.804 213.13C276.676 210.793 290.359 207.141 299.136 218.616C300.268 220.138 302.126 221.035 304.041 220.795L325.359 218.112C327.274 217.871 328.855 216.607 329.58 214.918C331.584 210.14 337.524 201.006 353.791 201.288C355.4 201.285 357 200.685 358.054 199.487C362.237 194.434 373.107 181.351 373.048 180.893C372.858 180.451 360.012 163.896 376.435 155.44C377.886 154.725 378.998 153.453 379.342 151.945L382.238 137.869C382.606 136.026 381.893 134.119 380.34 132.983C375.745 129.567 366.81 121.041 369.609 108.841C370.044 106.988 369.603 105.114 368.165 103.83L350.527 88.0787C348.932 86.6154 346.547 86.3169 344.602 87.3603C338.64 90.5731 324.735 95.1188 311.848 77.1719C310.796 75.7735 309.07 74.8592 307.28 75.0178L287.105 76.1589C285.108 76.2774 283.387 77.4924 282.605 79.2548C279.86 85.5912 271.51 100.021 254.026 96.4963C252.095 96.0736 250.058 96.9292 248.848 98.4794L238.308 111.521C237.089 113.005 236.861 114.898 237.616 116.6C240.151 122.271 244.45 135.974 231.387 145.006C229.846 146.066 228.849 147.722 229.019 149.564L230.494 167.95ZM258.973 155.18C255.877 130.943 274.421 108.641 300.425 105.368C326.364 102.103 349.929 119.106 353.026 143.343C356.114 167.515 337.571 189.817 311.631 193.082C285.627 196.355 262.062 179.352 258.973 155.18Z" fill="#D2F234"/>
</g>
<defs>
<clipPath id="clip0_25_9483">
<rect width="432" height="164" fill="white"/>
</clipPath>
<clipPath id="clip1_25_9483">
<rect width="218.333" height="180.833" fill="white" transform="translate(87.6641)"/>
</clipPath>
</defs>
</svg>
