<svg width="38" height="38" viewBox="0 0 38 38" fill="none" xmlns="http://www.w3.org/2000/svg">
<path d="M7.64616 8.8083C8.17345 8.8083 8.60091 8.38085 8.60091 7.85355C8.60091 7.32626 8.17345 6.8988 7.64616 6.8988C7.11886 6.8988 6.69141 7.32626 6.69141 7.85355C6.69141 8.38085 7.11886 8.8083 7.64616 8.8083Z" fill="#ECD540"/>
<path d="M11.0094 8.8083C11.5367 8.8083 11.9642 8.38085 11.9642 7.85355C11.9642 7.32626 11.5367 6.8988 11.0094 6.8988C10.4821 6.8988 10.0547 7.32626 10.0547 7.85355C10.0547 8.38085 10.4821 8.8083 11.0094 8.8083Z" fill="#ECD540"/>
<path d="M14.3727 8.8083C14.9 8.8083 15.3275 8.38085 15.3275 7.85355C15.3275 7.32626 14.9 6.8988 14.3727 6.8988C13.8454 6.8988 13.418 7.32626 13.418 7.85355C13.418 8.38085 13.8454 8.8083 14.3727 8.8083Z" fill="#ECD540"/>
<path opacity="0.7" d="M23.8344 23.9762L26.9492 34.2148C27.2508 35.2064 28.6473 35.2278 28.9786 34.2445L30.4369 29.9173C30.5437 29.6014 30.7907 29.3544 31.1066 29.2475L35.4339 27.7893C36.4159 27.458 36.3957 26.0615 35.4042 25.7598L25.1656 22.645C24.3497 22.398 23.5874 23.1604 23.8344 23.9762Z" fill="#ECD540"/>
<path d="M22.1307 24.4944C21.8647 23.6228 22.0238 22.7025 22.5653 21.9722C23.102 21.249 23.9547 20.8167 24.8488 20.8167C25.1303 20.8167 25.4105 20.8583 25.6837 20.9414L34.8892 23.7404V7.44667C34.8892 5.0123 32.906 3.02917 30.4717 3.02917H6.25734C3.82297 3.02917 1.83984 5.0123 1.83984 7.44667V27.2185C1.83984 29.6648 3.82297 31.6479 6.26922 31.6479H24.305L22.1307 24.4944ZM3.97734 10.5579V7.44786C3.97734 6.1903 4.99978 5.16786 6.25734 5.16786H30.4705C31.728 5.16786 32.7505 6.1903 32.7505 7.44786V10.5579H3.97734Z" fill="#ECD540"/>
</svg>
