<svg width="66" height="66" viewBox="0 0 66 66" fill="none" xmlns="http://www.w3.org/2000/svg">
<path d="M13.2832 15.2979C14.1991 15.2979 14.9415 14.5555 14.9415 13.6397C14.9415 12.7239 14.1991 11.9814 13.2832 11.9814C12.3674 11.9814 11.625 12.7239 11.625 13.6397C11.625 14.5555 12.3674 15.2979 13.2832 15.2979Z" fill="#ECD540"/>
<path d="M19.1231 15.2979C20.0389 15.2979 20.7813 14.5555 20.7813 13.6397C20.7813 12.7239 20.0389 11.9814 19.1231 11.9814C18.2073 11.9814 17.4648 12.7239 17.4648 13.6397C17.4648 14.5555 18.2073 15.2979 19.1231 15.2979Z" fill="#ECD540"/>
<path d="M24.9649 15.2979C25.8807 15.2979 26.6231 14.5555 26.6231 13.6397C26.6231 12.7239 25.8807 11.9814 24.9649 11.9814C24.0491 11.9814 23.3066 12.7239 23.3066 13.6397C23.3066 14.5555 24.0491 15.2979 24.9649 15.2979Z" fill="#ECD540"/>
<path opacity="0.7" d="M41.3965 41.6422L46.8065 59.4251C47.3303 61.1472 49.7558 61.1844 50.3313 59.4766L52.864 51.9609C53.0497 51.4122 53.4787 50.9832 54.0273 50.7976L61.543 48.2649C63.2487 47.6894 63.2137 45.2639 61.4915 44.7401L43.7086 39.3301C42.2917 38.9011 40.9675 40.2252 41.3965 41.6422Z" fill="#ECD540"/>
<path d="M38.4392 42.5425C37.9772 41.0286 38.2536 39.4302 39.1941 38.1617C40.1263 36.9057 41.6072 36.1549 43.1603 36.1549C43.6491 36.1549 44.1358 36.2271 44.6102 36.3715L60.5987 41.2328V12.9332C60.5987 8.70512 57.1543 5.26074 52.9262 5.26074H10.8698C6.64164 5.26074 3.19727 8.70512 3.19727 12.9332V47.2739C3.19727 51.5226 6.64164 54.967 10.8904 54.967H42.2156L38.4392 42.5425ZM6.90977 18.337V12.9353C6.90977 10.7511 8.68558 8.9753 10.8698 8.9753H52.9241C55.1083 8.9753 56.8841 10.7511 56.8841 12.9353V18.337H6.90977Z" fill="#ECD540"/>
</svg>
